<?xml version="1.0" standalone="no"?>
<!DOCTYPE svg PUBLIC "-//W3C//DTD SVG 1.1//EN" "http://www.w3.org/Graphics/SVG/1.1/DTD/svg11.dtd" >
<svg>
<metadata>
Created by FontForge 20090914 at Thu Oct 20 23:06:13 2016
 By www-data
Typeface and data &#194;&#169; 1996 Microsoft Corporation. All Rights Reserved
</metadata>
<defs>
<font id="VerdanaKOI8-BoldItalic" horiz-adv-x="1456" >
  <font-face 
    font-family="Verdana KOI8"
    font-weight="700"
    font-style="italic"
    font-stretch="normal"
    units-per-em="2048"
    panose-1="2 11 8 4 3 5 4 11 2 4"
    ascent="1638"
    descent="-410"
    x-height="1123"
    cap-height="1489"
    bbox="-279.999 -425.002 3491 2049"
    underline-thickness="211"
    underline-position="-34"
    slope="-13"
    unicode-range="U+0020-U+2122"
  />
<missing-glyph horiz-adv-x="1024" 
 />
    <glyph glyph-name=".notdef" horiz-adv-x="1024" 
 />
    <glyph glyph-name="space" unicode=" " horiz-adv-x="700" 
 />
    <glyph glyph-name="space" unicode="&#xa0;" horiz-adv-x="700" 
 />
    <glyph glyph-name="exclam" unicode="!" horiz-adv-x="824" 
d="M835 1489l-291 -1060h-326l199 1060h418zM484 0h-404l61 264h404z" />
    <glyph glyph-name="quotedbl" unicode="&#x22;" horiz-adv-x="1203" 
d="M1248 1556l-196 -589h-226l76 589h346zM725 1556l-196 -589h-226l76 589h346z" />
    <glyph glyph-name="numbersign" unicode="#" horiz-adv-x="1776" 
d="M1677 905h-316l-127 -311h282l-38 -240h-342l-147 -354h-241l145 354h-264l-145 -354h-245l146 354h-270l38 240h330l126 311h-293l38 239h353l140 345h245l-140 -345h263l141 345h245l-141 -345h255zM1121 907h-268l-130 -316h269z" />
    <glyph glyph-name="dollar" unicode="$" 
d="M691 2l-84.0029 -363h-174l83 357c-77.333 0.666992 -162.333 9.66699 -255 27s-163.667 39 -213 65l68 292h45c46.667 -30 107.334 -55.667 182.001 -77s154.334 -35.333 239.001 -42l65 284c-154 36 -265 78 -333 126s-102 114 -102 198
c0 138.667 51.5 247.334 154.5 326.001s256.5 128 460.5 148l54 233h174l-54 -231c60.667 -2.66699 130.5 -11.334 209.5 -26.001s140.167 -31.667 183.5 -51l-67 -288h-44c-42 27.333 -91.667 50 -149 68s-121.666 29.333 -192.999 34l-61 -264
c154 -34 265.833 -76 335.5 -126s104.5 -119.667 104.5 -209c0 -142 -55 -254 -165 -336s-264.667 -130.333 -464 -145zM782.997 1082c-62.667 -4.66699 -111.833 -19 -147.5 -43s-53.5 -54.667 -53.5 -92c0 -26 13 -47.5 39 -64.5s61.667 -29.5 107 -37.5zM939.998 406
c0 30 -9.83203 53.666 -29.499 70.999s-54.5 31 -104.5 41l-58 -253c59.333 6 106.166 20.333 140.499 43s51.5 55.334 51.5 98.001z" />
    <glyph glyph-name="percent" unicode="%" horiz-adv-x="2605" 
d="M1146 1161c0 -185.333 -47.333 -334 -142 -446s-222 -168 -382 -168c-135.333 0 -237.5 30.667 -306.5 92s-103.5 152.333 -103.5 273c0 184.667 47.833 331.667 143.5 441s222.5 164 380.5 164c134 0 235.833 -30.333 305.5 -91s104.5 -149 104.5 -265zM853 1140
c0 54.667 -11.333 95.832 -34 123.499s-57 41.5 -103 41.5c-60 0 -110.167 -36 -150.5 -108s-60.5 -162.667 -60.5 -272c0 -55.333 11.333 -96.833 34 -124.5s57 -41.5 103 -41.5c64 0 115.167 37.833 153.5 113.5s57.5 164.834 57.5 267.501zM2457 582.998
c0 -185.333 -47.333 -334 -142 -446s-222 -168 -382 -168c-135.333 0 -237.5 30.667 -306.5 92s-103.5 152.333 -103.5 273c0 184.667 47.833 331.667 143.5 441s222.5 164 380.5 164c134 0 235.833 -30.333 305.5 -91s104.5 -149 104.5 -265zM2164 561.998
c0 54.667 -11.333 95.832 -34 123.499s-57 41.5 -103 41.5c-60 0 -110.167 -36 -150.5 -108s-60.5 -162.667 -60.5 -272c0 -55.333 11.333 -96.833 34 -124.5s57 -41.5 103 -41.5c64 0 115.167 37.833 153.5 113.5s57.5 164.834 57.5 267.501zM1993 1489l-1043 -1489h-271
l1043 1489h271z" />
    <glyph glyph-name="ampersand" unicode="&#x26;" horiz-adv-x="1766" 
d="M1682 0l-476 -0.000976562l-113 126c-89.333 -59.333 -176 -100.333 -260 -123s-160 -34 -228 -34c-161.333 0 -289.166 34.667 -383.499 104s-141.5 163 -141.5 281c0 57.333 9.33301 110.166 28 158.499s45 92.5 79 132.5c32.667 38.667 72.167 73.334 118.5 104.001
s96.166 59 149.499 85c-50.667 45.333 -87 90 -109 134s-33 91 -33 141c0 56 12.667 108.667 38 158s62.666 93 111.999 131c47.333 36.667 108.5 66 183.5 88s157.833 33 248.5 33c148.667 0 265.334 -25.167 350.001 -75.5s127 -119.5 127 -207.5
c0 -40 -8.33301 -81 -25 -123s-41.667 -80.333 -75 -115c-34 -36 -77.667 -69.5 -131 -100.5s-119 -58.167 -197 -81.5l249 -269l69 322h373l-24 -111c-18 -82 -47.167 -157.167 -87.5 -225.5s-89.833 -128.166 -148.5 -179.499l311 -333zM990 1186
c0 38 -10.5 67.833 -31.5 89.5s-53.167 32.5 -96.5 32.5c-48 0 -88.167 -13.5 -120.5 -40.5s-48.5 -65.167 -48.5 -114.5c0 -32 11.833 -66 35.5 -102s56.167 -72.667 97.5 -110c48.667 32.667 88.167 70.667 118.5 114s45.5 87 45.5 131zM953 294.999l-347.001 379
c-38.667 -32 -68 -66.333 -88 -103s-30 -75.667 -30 -117c0 -68 20.833 -123.167 62.5 -165.5s102.167 -63.5 181.5 -63.5c40.667 0 77.834 5.16699 111.501 15.5s70.167 28.5 109.5 54.5z" />
    <glyph glyph-name="quotesingle" unicode="'" horiz-adv-x="680" 
d="M725 1556l-196 -589h-226l76 589h346z" />
    <glyph glyph-name="parenleft" unicode="(" horiz-adv-x="1113" 
d="M1168 1527c-97.333 -75.333 -187.334 -158.5 -270.001 -249.5s-154.334 -187.5 -215.001 -289.5c-61.333 -103.333 -109.166 -212.666 -143.499 -327.999s-51.5 -233.333 -51.5 -354c0 -136.667 18 -259.167 54 -367.5s98 -215.5 186 -321.5v-29h-354
c-75.333 110 -131.166 217 -167.499 321s-54.5 224 -54.5 360c0 233.333 57.167 462.666 171.5 687.999s272.5 425 474.5 599h370v-29z" />
    <glyph glyph-name="parenright" unicode=")" horiz-adv-x="1113" 
d="M963 875c0 -233.333 -57.166 -462.666 -171.499 -687.999s-272.5 -425 -474.5 -599h-370v29c97.333 75.333 187.333 158.5 270 249.5s154.334 187.5 215.001 289.5c61.333 103.333 109.166 212.666 143.499 327.999s51.5 233.333 51.5 354
c0 136.667 -18 259.167 -54 367.5s-98 215.5 -186 321.5v29h354c75.333 -110 131.166 -217 167.499 -321s54.5 -224 54.5 -360z" />
    <glyph glyph-name="asterisk" unicode="*" 
d="M1353 836l-111 -165l-320 218l11 -355h-213l8 346l-314 -210l-109 166l355 209l-354 211l108 167l313 -213l-7 346h212l-8 -347l317 211l111 -166l-358 -208z" />
    <glyph glyph-name="plus" unicode="+" horiz-adv-x="1776" 
d="M1580 528h-533v-528h-274v528h-533v268h533v528h274v-528h533v-268z" />
    <glyph glyph-name="comma" unicode="," horiz-adv-x="740" 
d="M584 393l-538 -763h-223l371 763h390z" />
    <glyph glyph-name="hyphen" unicode="-" horiz-adv-x="983" 
d="M863 518h-763l66 288h763z" />
    <glyph glyph-name="period" unicode="." horiz-adv-x="740" 
d="M429 0h-376l90 393h376z" />
    <glyph glyph-name="slash" unicode="/" horiz-adv-x="1412" 
d="M1403 1556l-1125 -1880h-317l1122 1880h320z" />
    <glyph glyph-name="zero" unicode="0" 
d="M1413 1031c0 -137.333 -15.999 -271.499 -47.999 -402.499s-79 -244.167 -141 -339.5c-70.667 -106.667 -153.167 -186.667 -247.5 -240s-201.833 -80 -322.5 -80c-174 0 -307.333 39.5 -400 118.5s-139 202.167 -139 369.5c0 142.667 15.667 277.167 47 403.5
s78.666 239.166 141.999 338.499c63.333 98.667 143.5 176.667 240.5 234s207.833 86 332.5 86c178 0 311.833 -40.833 401.5 -122.5s134.5 -203.5 134.5 -365.5zM1027 1016c0 78 -14.168 135.667 -42.501 173s-70.5 56 -126.5 56c-52.667 0 -102.167 -23.667 -148.5 -71
s-86.166 -115 -119.499 -203c-29.333 -76.667 -51.5 -160.5 -66.5 -251.5s-22.5 -173.5 -22.5 -247.5c0 -78.667 14 -136.5 42 -173.5s72 -55.5 132 -55.5c57.333 0 108 25.833 152 77.5s81 117.167 111 196.5c28 74 49.833 155.667 65.5 245s23.5 174 23.5 254z" />
    <glyph glyph-name="one" unicode="1" 
d="M1131 0l-994 0.000976562l60 260h313l181 787h-313l56 243c46 0 92.5 3 139.5 9s86.167 15.667 117.5 29c34.667 15.333 64.667 36.166 90 62.499s44 60.5 56 102.5h332l-284 -1233h306z" />
    <glyph glyph-name="two" unicode="2" 
d="M1224 0l-1169 -0.00195312l57 246c110.667 70.667 214.667 140.334 312 209.001s179.666 130.334 246.999 185.001c104 84 180.333 159.5 229 226.5s73 131.167 73 192.5c0 58 -19.333 100.833 -58 128.5s-92 41.5 -160 41.5c-69.333 0 -140 -11.833 -212 -35.5
s-140.667 -56.834 -206 -99.501h-32l74 331c49.333 20 123.666 40.5 222.999 61.5s193.333 31.5 282 31.5c160.667 0 283.667 -29.667 369 -89s128 -147.666 128 -264.999c0 -121.333 -32 -228.5 -96 -321.5s-165.667 -194.5 -305 -304.5
c-68.667 -54 -134.167 -102.333 -196.5 -145l-162.5 -108h669z" />
    <glyph glyph-name="three" unicode="3" 
d="M1094 112c-66 -47.333 -140.829 -83.1689 -224.496 -107.502s-177.167 -36.5 -280.5 -36.5c-120.667 0 -228.334 11.167 -323.001 33.5s-172 48.833 -232 79.5l70 324l39 -1c60.667 -43.333 128.667 -78 204 -104s149.666 -39 222.999 -39
c107.333 0 191.166 20.167 251.499 60.5s90.5 97.833 90.5 172.5c0 31.333 -5.83301 57 -17.5 77s-30.5 35.667 -56.5 47c-28 12.667 -63.333 20.834 -106 24.501s-90.667 5.5 -144 5.5h-82l57 264h85c136.667 0 232.167 14.833 286.5 44.5s81.5 74.834 81.5 135.501
c0 48 -22.833 83.333 -68.5 106s-108.834 34 -189.501 34c-69.333 0 -142 -11 -218 -33s-144 -48 -204 -78l-37 1l69 321c59.333 20 133.166 37.833 221.499 53.5s174.833 23.5 259.5 23.5c85.333 0 161.666 -6.5 228.999 -19.5s125 -32.5 173 -58.5
c50.667 -27.333 89.834 -62 117.501 -104s41.5 -94.667 41.5 -158c0 -60.667 -10.5 -114.167 -31.5 -160.5s-49.167 -84.833 -84.5 -115.5c-34 -30 -73 -54.667 -117 -74s-87 -33.666 -129 -42.999l-3 -14c72.667 -12 133.5 -41 182.5 -87s73.5 -105.667 73.5 -179
c0 -82.667 -18.667 -157.834 -56 -225.501s-87.666 -124.167 -150.999 -169.5z" />
    <glyph glyph-name="four" unicode="4" 
d="M1325 343h-203l-80 -347h-367l80 347h-721l65 282l896 864h391l-201 -874h203zM818 615l122 528l-545 -528h423z" />
    <glyph glyph-name="five" unicode="5" 
d="M1101 112c-67.333 -47.333 -146.167 -83.0029 -236.5 -107.003s-186.5 -36 -288.5 -36c-124 0 -229.833 8.83301 -317.5 26.5s-157.834 38.834 -210.501 63.501l76 329h42c64.667 -42 129 -73.5 193 -94.5s132 -31.5 204 -31.5c108 0 194.833 20 260.5 60
s98.5 101.667 98.5 185c0 63.333 -27.167 110.833 -81.5 142.5s-137.5 47.5 -249.5 47.5c-49.333 0 -101.666 -4.66699 -156.999 -14s-105.333 -20.666 -150 -33.999h-44l194 840h1059l-66 -285h-698l-56 -243c9.33301 0.666992 21.333 1 36 1h53c76 0 147.333 -7 214 -21
s126 -36.667 178 -68s93.333 -72.166 124 -122.499s46 -112.833 46 -187.5c0 -102 -20.167 -190.667 -60.5 -266s-94.5 -137 -162.5 -185z" />
    <glyph glyph-name="six" unicode="6" 
d="M684 -32c-82 0 -156.833 9.66602 -224.5 28.999s-125.834 50 -174.501 92s-86.334 96 -113.001 162s-40 145.667 -40 239c0 150 21.833 287.333 65.5 412s106.167 233 187.5 325c79.333 90 178.333 160.833 297 212.5s249 77.5 391 77.5c53.333 0 113.333 -4.5 180 -13.5
s112 -16.5 136 -22.5l-51 -291l-38 2c-15.333 8.66699 -46.166 19.834 -92.499 33.501s-98.833 20.5 -157.5 20.5c-114 0 -211.167 -28.333 -291.5 -85s-141.5 -144 -183.5 -262c51.333 26 106.5 47.667 165.5 65s120.167 26 183.5 26
c132.667 0 237.334 -34.5 314.001 -103.5s115 -165.5 115 -289.5c0 -180.667 -63.5 -330.667 -190.5 -450s-286.5 -179 -478.5 -179zM958 538.999c0 69.333 -20.667 119.833 -62 151.5s-101 47.5 -179 47.5c-34 0 -67 -3.5 -99 -10.5s-58.333 -13.5 -79 -19.5
c-7.33301 -28 -13.833 -62.333 -19.5 -103s-8.5 -77.334 -8.5 -110.001c0 -93.333 15.333 -162.333 46 -207s82.334 -67 155.001 -67c67.333 0 125.166 29.833 173.499 89.5s72.5 135.834 72.5 228.501z" />
    <glyph glyph-name="seven" unicode="7" 
d="M1471 1203l-945 -1203h-435l978 1214h-763l64 275h1167z" />
    <glyph glyph-name="eight" unicode="8" 
d="M1443 1185c0 -82.667 -29.3311 -157.169 -87.998 -223.502s-143.334 -119.5 -254.001 -159.5l-1 -6c76 -36 135.333 -78.667 178 -128s64 -112 64 -188c0 -154 -65 -278.167 -195 -372.5s-294.333 -141.5 -493 -141.5c-182 0 -325.833 33.5 -431.5 100.5
s-158.5 158.167 -158.5 273.5c0 100.667 30.5 186.5 91.5 257.5s154.833 127.5 281.5 169.5l1 6c-65.333 38.667 -114 79.334 -146 122.001s-48 95.334 -48 158.001c0 64 13.5 123.5 40.5 178.5s67.833 104.833 122.5 149.5c53.333 43.333 120 77.833 200 103.5
s171.667 38.5 275 38.5c175.333 0 312.666 -30.667 411.999 -92s149 -143.333 149 -246zM1058 1125c0 46 -18.5 81.834 -55.5 107.501s-84.167 38.5 -141.5 38.5c-68.667 0 -123.834 -16.167 -165.501 -48.5s-62.5 -72.5 -62.5 -120.5
c0 -30.667 8.83301 -55.834 26.5 -75.501s45.834 -39.167 84.501 -58.5c18.667 -9.33301 43.167 -20.333 73.5 -33s65.833 -26.667 106.5 -42c37.333 34 69 70.333 95 109s39 79.667 39 123zM953.002 423.999c0 34.667 -9.33398 64.167 -28.001 88.5
s-58.334 51.833 -119.001 82.5c-19.333 10 -48.666 23.167 -87.999 39.5l-100 42.5c-55.333 -41.333 -96.333 -84 -123 -128s-40 -90 -40 -138c0 -60 22.5 -106.667 67.5 -140s103.5 -50 175.5 -50c66.667 0 125.834 19 177.501 57s77.5 86.667 77.5 146z" />
    <glyph glyph-name="nine" unicode="9" 
d="M1387 998c0 -146 -22 -282.998 -66 -410.998s-106.333 -236.667 -187 -326c-82.667 -92 -181 -163.333 -295 -214s-245 -76 -393 -76c-57.333 0 -118.666 4.5 -183.999 13.5s-109.333 16.5 -132 22.5l51 291l38 -2c16 -8.66699 45.667 -19.834 89 -33.501
s97 -20.5 161 -20.5c117.333 0 216 29.667 296 89s139.667 145.333 179 258c-60.667 -29.333 -115.5 -51.833 -164.5 -67.5s-110.5 -23.5 -184.5 -23.5c-134.667 0 -239.834 35 -315.501 105s-113.5 166 -113.5 288c0 184 65.167 334.833 195.5 452.5
s288.166 176.5 473.499 176.5c80.667 0 154.834 -9.5 222.501 -28.5s126.5 -49.833 176.5 -92.5c50 -43.333 88 -98.333 114 -165s39 -145.334 39 -236.001zM1008 993.002c0 93.333 -15.333 162.334 -46 207.001s-82.334 67 -155.001 67
c-67.333 0 -125.166 -29.833 -173.499 -89.5s-72.5 -135.834 -72.5 -228.501c0 -69.333 20.667 -119.833 62 -151.5s101 -47.5 179 -47.5c30 0 61 3 93 9s60.333 13 85 21c8 32.667 14.667 66.5 20 101.5s8 72.167 8 111.5z" />
    <glyph glyph-name="colon" unicode=":" horiz-adv-x="824" 
d="M640 730h-376l90 393h376zM472 0h-376l90 393h376z" />
    <glyph glyph-name="semicolon" unicode=";" horiz-adv-x="824" 
d="M640 730h-376l90 393h376zM623 393l-538 -763h-223l371 763h390z" />
    <glyph glyph-name="less" unicode="&#x3c;" horiz-adv-x="1776" 
d="M1562 -7l-1336 555v228l1336 555v-287l-935 -383l935 -381v-287z" />
    <glyph glyph-name="equal" unicode="=" horiz-adv-x="1776" 
d="M1549 791h-1278v268h1278v-268zM1549 265h-1278v268h1278v-268z" />
    <glyph glyph-name="greater" unicode="&#x3e;" horiz-adv-x="1776" 
d="M1594 548l-1336 -555v287l935 382l-935 382v287l1336 -555v-228z" />
    <glyph glyph-name="question" unicode="?" horiz-adv-x="1263" 
d="M1291 1161c0 -115.333 -43.668 -219.167 -131.001 -311.5s-224.333 -172.833 -411 -241.5l-49 -208h-352l80 346c149.333 38 262.166 86 338.499 144s114.5 123.667 114.5 197c0 53.333 -18.167 92.833 -54.5 118.5s-88.166 38.5 -155.499 38.5
c-52.667 0 -109.167 -10.333 -169.5 -31s-121.833 -49 -184.5 -85h-40l71 305c54 22.667 120 42.667 198 60s162.333 26 253 26c156.667 0 277.834 -31.333 363.501 -94s128.5 -150.667 128.5 -264zM696.999 263.999l-61 -264h-404l61 264h404z" />
    <glyph glyph-name="at" unicode="@" horiz-adv-x="1974" 
d="M1639 139l-527.003 0.000976562v78c-41.333 -26.667 -79 -47.167 -113 -61.5s-79.333 -21.5 -136 -21.5c-94 0 -169.667 32.833 -227 98.5s-86 156.5 -86 272.5c0 174 49.333 323.333 148 448s216.334 187 353.001 187c44 0 83.833 -7 119.5 -21s65.5 -32.333 89.5 -55
l12 62h232l-159 -816h181c44.667 74 77.667 152.833 99 236.5s32 168.167 32 253.5c0 166.667 -46.167 297.834 -138.5 393.501s-225.166 143.5 -398.499 143.5c-95.333 0 -188.166 -20.5 -278.499 -61.5s-171.166 -98.833 -242.499 -173.5
c-70 -72.667 -125.833 -159.167 -167.5 -259.5s-62.5 -207.833 -62.5 -322.5c0 -94 14.333 -176.5 43 -247.5s67 -129.5 115 -175.5c50 -48 108.167 -84.167 174.5 -108.5s138.5 -36.5 216.5 -36.5c57.333 0 124.5 5.66699 201.5 17s141.167 24.333 192.5 39l-28 -194
c-64.667 -14 -128 -24.667 -190 -32s-129.333 -11 -202 -11c-218.667 0 -395.834 65.5 -531.501 196.5s-203.5 308.167 -203.5 531.5c0 134 25.167 262.167 75.5 384.5s119.833 230.833 208.5 325.5c87.333 93.333 191.833 168.166 313.5 224.499s251.5 84.5 389.5 84.5
c218.667 0 393.167 -66.333 523.5 -199s195.5 -304 195.5 -514c0 -118.667 -21.5 -238.834 -64.5 -360.501s-96.167 -223.5 -159.5 -305.5zM1127 404.001l96.999 499.001c-20.667 13.333 -44 24.166 -70 32.499s-56 12.5 -90 12.5c-73.333 0 -135.5 -40.833 -186.5 -122.5
s-76.5 -182.167 -76.5 -301.5c0 -71.333 12 -122.5 36 -153.5s62 -46.5 114 -46.5c30.667 0 60.334 7 89.001 21s57.667 33.667 87 59z" />
    <glyph glyph-name="A" unicode="A" horiz-adv-x="1590" 
d="M1451 0h-387l-34 304h-548l-174 -304h-401l893 1489h444zM1001 571l-60 535l-307 -535h367z" />
    <glyph glyph-name="B" unicode="B" horiz-adv-x="1560" 
d="M1499 1152c0 -90.667 -24.834 -165.5 -74.501 -224.5s-125.5 -103.5 -227.5 -133.5l-2 -8c80.667 -23.333 141.834 -57 183.501 -101s62.5 -106 62.5 -186c0 -156.667 -64.167 -279 -192.5 -367s-309.833 -132 -544.5 -132h-645l344 1489h543
c179.333 0 316.333 -29.5 411 -88.5s142 -141.833 142 -248.5zM1093 1091c0 44 -17.333 75.833 -52 95.5s-82.667 29.5 -144 29.5h-173l-73 -315h175c84 0 149.5 16.167 196.5 48.5s70.5 79.5 70.5 141.5zM1050 489c0 54.667 -20.667 94.166 -62 118.499
s-106.333 36.5 -195 36.5h-201l-86 -371h194c112 0 198.333 18.333 259 55s91 90.334 91 161.001z" />
    <glyph glyph-name="C" unicode="C" horiz-adv-x="1482" 
d="M748 -29c-201.333 0 -356.666 49.499 -465.999 148.499s-164 240.833 -164 425.5c0 146 24.167 278.333 72.5 397s114.833 221.334 199.5 308.001c82.667 84 181.834 149.667 297.501 197s237.167 71 364.5 71c102.667 0 198 -10.5 286 -31.5s167.333 -51.833 238 -92.5
l-88 -361h-44c-63.333 68 -126.333 118 -189 150s-136.334 48 -221.001 48c-148.667 0 -271.167 -59.667 -367.5 -179s-144.5 -271.333 -144.5 -456c0 -118.667 26.667 -204.667 80 -258s131.333 -80 234 -80c92 0 178.333 18.5 259 55.5s157 84.167 229 141.5h40l-87 -356
l-105 -43.5c-40 -17 -78.333 -30.833 -115 -41.5c-48 -14 -92.833 -24.667 -134.5 -32s-99.834 -11 -174.501 -11z" />
    <glyph glyph-name="D" unicode="D" horiz-adv-x="1700" 
d="M1663 908c0 -168.667 -44.332 -324.332 -132.999 -466.999s-202.334 -252 -341.001 -328c-84 -45.333 -171.667 -75.5 -263 -90.5s-200.666 -22.5 -327.999 -22.5h-539l344 1489h482c142 0 256.333 -11 343 -33s156.667 -51.667 210 -89
c73.333 -50.667 129.166 -113.834 167.499 -189.501s57.5 -165.5 57.5 -269.5zM1261 873.002c0 68 -12.666 126.502 -37.999 175.502s-64 88.5 -116 118.5c-24 13.333 -48.5 23.5 -73.5 30.5s-53.5 12.167 -85.5 15.5c-30.667 2.66699 -65.667 4 -105 4h-103h-13l-220 -944
h35h124c44 0 79.667 1.66699 107 5c35.333 3.33301 67.166 8.66602 95.499 15.999s59.5 19.666 93.5 36.999c96 49.333 169.833 123 221.5 221s77.5 205 77.5 321z" />
    <glyph glyph-name="E" unicode="E" horiz-adv-x="1399" 
d="M1482 1489l-65 -282h-695l-62 -266h645l-66 -283h-645l-87 -376h695l-64 -282h-1079l344 1489h1079z" />
    <glyph glyph-name="F" unicode="F" horiz-adv-x="1332" 
d="M1471 1489l-67 -288h-684l-64 -277h634l-66 -288h-634l-147 -636h-384l344 1489h1068z" />
    <glyph glyph-name="G" unicode="G" horiz-adv-x="1661" 
d="M794 -31c-211.333 0 -376.833 49.999 -496.5 149.999s-179.5 242 -179.5 426c0 286.667 92.333 520.5 277 701.5s419 271.5 703 271.5c107.333 0 206.833 -9.16699 298.5 -27.5s186.834 -53.166 285.501 -104.499l-85 -349h-43c-80 76 -155.667 128.833 -227 158.5
s-150 44.5 -236 44.5c-87.333 0 -166.333 -17.833 -237 -53.5s-131 -83.834 -181 -144.501c-47.333 -57.333 -84.333 -125.333 -111 -204s-40 -161 -40 -247c0 -119.333 32.667 -207.166 98 -263.499s171.666 -84.5 318.999 -84.5c14.667 0 30.667 0.333008 48 1
s33.333 1.66699 48 3l68 292h-297l65 281h687l-170 -735c-88.667 -30.667 -183.167 -57.667 -283.5 -81s-203.833 -35 -310.5 -35z" />
    <glyph glyph-name="H" unicode="H" horiz-adv-x="1715" 
d="M1740 1489l-344 -1489h-386l152 658h-565l-152 -658h-386l344 1489h386l-127 -548h565l127 548h386z" />
    <glyph glyph-name="I" unicode="I" horiz-adv-x="1118" 
d="M865 0h-872l61 264h243l222 961h-243l61 264h872l-61 -264h-243l-222 -961h243z" />
    <glyph glyph-name="J" unicode="J" horiz-adv-x="1137" 
d="M950 491c-40.667 -174.667 -117.002 -304.001 -229.002 -388.001s-265.333 -126 -460 -126c-71.333 0 -135.666 2.5 -192.999 7.5s-108.666 12.167 -153.999 21.5l71 308h36c28.667 -11.333 59.167 -22.333 91.5 -33s75.5 -16 129.5 -16c102 0 178.333 24.333 229 73
s92 143.334 124 284.001l137 593h-340l63 274h726z" />
    <glyph glyph-name="K" unicode="K" horiz-adv-x="1579" 
d="M1466 0h-423l-335 603l-155 -135l-108 -468h-386l343 1489h386l-151 -656l672 656h456l-752 -693z" />
    <glyph glyph-name="L" unicode="L" horiz-adv-x="1305" 
d="M1134 0h-1075l344 1489h386l-277 -1201h689z" />
    <glyph glyph-name="M" unicode="M" horiz-adv-x="1941" 
d="M1622 0h-384l225 974l-409 -624h-265l-132 665l-234 -1015h-364l344 1489h441l163 -747l506 747h453z" />
    <glyph glyph-name="N" unicode="N" horiz-adv-x="1734" 
d="M1415 0h-327l-437 1031l-238 -1031h-354l344 1489h430l374 -862l198 862h354z" />
    <glyph glyph-name="O" unicode="O" horiz-adv-x="1741" 
d="M1707 935c0 -122 -20.667 -242.002 -62 -360.002s-101.333 -221 -180 -309c-86 -96 -186.333 -169.5 -301 -220.5s-246.667 -76.5 -396 -76.5c-203.333 0 -362.5 52.5 -477.5 157.5s-172.5 249.5 -172.5 433.5c0 129.333 22 252.333 66 369s107 219.334 189 308.001
c80 86 179 154.667 297 206s246.667 77 386 77c204 0 363.5 -52.667 478.5 -158s172.5 -247.666 172.5 -426.999zM1158 426.998c45.333 59.333 80.832 128.165 106.499 206.498s38.5 168.5 38.5 270.5c0 106.667 -25.5 190.167 -76.5 250.5s-123.833 90.5 -218.5 90.5
c-62 0 -121.167 -14.167 -177.5 -42.5s-108.166 -71.5 -155.499 -129.5c-46 -55.333 -83 -124.166 -111 -206.499s-42 -174.833 -42 -277.5c0 -114 26.167 -200 78.5 -258s124.833 -87 217.5 -87c64 0 125.667 15.833 185 47.5s111 76.834 155 135.501z" />
    <glyph glyph-name="P" unicode="P" horiz-adv-x="1501" 
d="M1540 1077c0 -177.333 -73.499 -320.333 -220.499 -429s-352.5 -163 -616.5 -163h-146l-112 -485h-386l344 1489h535c97.333 0 182.166 -6.66699 254.499 -20s134.833 -36.333 187.5 -69c52 -32.667 91.667 -75.167 119 -127.5s41 -117.5 41 -195.5zM1130 1040
c0 58 -21 101 -63 129s-104.333 42 -187 42h-155l-103 -446h138c116.667 0 207.5 23.833 272.5 71.5s97.5 115.5 97.5 203.5z" />
    <glyph glyph-name="Q" unicode="Q" horiz-adv-x="1741" 
d="M1707 935c0 -92.667 -11.999 -185.667 -35.999 -279s-61.333 -181 -112 -263c-48.667 -78.667 -109.667 -149.834 -183 -213.501s-156.333 -112.834 -249 -147.501c-2.66699 -9.33301 -4.66699 -20.5 -6 -33.5s-2 -25.167 -2 -36.5
c0 -45.333 14.167 -78.166 42.5 -98.499s76.833 -30.5 145.5 -30.5c28.667 0 62.167 4.5 100.5 13.5s66.166 17.5 83.499 25.5h38l-61 -264c-39.333 -8.66699 -79.333 -16.334 -120 -23.001s-97 -10 -169 -10c-136 0 -238.833 26.333 -308.5 79s-104.5 128.667 -104.5 228
c0 16.667 0.833008 32 2.5 46s3.5 27.667 5.5 41h-3h-3c-203.333 0 -362.5 52.5 -477.5 157.5s-172.5 249.5 -172.5 433.5c0 129.333 22 252.333 66 369s107 219.334 189 308.001c80 86 179 154.667 297 206s246.667 77 386 77c204 0 363.5 -52.667 478.5 -158
s172.5 -247.666 172.5 -426.999zM1158 427c45.333 59.333 80.832 128.165 106.499 206.498s38.5 168.5 38.5 270.5c0 106.667 -25.5 190.167 -76.5 250.5s-123.833 90.5 -218.5 90.5c-62 0 -121.167 -14.167 -177.5 -42.5s-108.166 -71.5 -155.499 -129.5
c-46 -55.333 -83 -124.166 -111 -206.499s-42 -174.833 -42 -277.5c0 -114 26.167 -200 78.5 -258s124.833 -87 217.5 -87c64 0 125.667 15.833 185 47.5s111 76.834 155 135.501z" />
    <glyph glyph-name="R" unicode="R" horiz-adv-x="1602" 
d="M1555 1114c0 -119.333 -36.332 -219.667 -108.999 -301s-171.334 -142.666 -296.001 -183.999l344 -629h-429l-280 546h-216l-126 -546h-384l344 1489h581c182 0 322.667 -30.833 422 -92.5s149 -155.834 149 -282.501zM1141 1050c0 60 -19.167 102.5 -57.5 127.5
s-94.833 37.5 -169.5 37.5h-190l-93 -401h189c102 0 181 20.833 237 62.5s84 99.5 84 173.5z" />
    <glyph glyph-name="S" unicode="S" horiz-adv-x="1455" 
d="M606 -27c-127.333 0 -240.831 11 -340.498 33s-185.834 49.333 -258.501 82l77 357h42c68.667 -62.667 149.334 -111.167 242.001 -145.5s192.334 -51.5 299.001 -51.5c109.333 0 189.666 14.833 240.999 44.5s77 72.167 77 127.5c0 20.667 -4.16699 38.5 -12.5 53.5
s-24.5 29.833 -48.5 44.5s-56.833 29.167 -98.5 43.5s-95.5 30.833 -161.5 49.5c-72.667 20 -137.834 41.667 -195.501 65s-106.834 51 -147.501 83c-40.667 32.667 -71.5 70.334 -92.5 113.001s-31.5 93.667 -31.5 153c0 149.333 65.833 268.5 197.5 357.5
s311.834 133.5 540.501 133.5c110 0 213.833 -9 311.5 -27s180.5 -42.333 248.5 -73l-73 -343h-41c-52 48 -120.5 88.167 -205.5 120.5s-177.833 48.5 -278.5 48.5c-98.667 0 -175 -14.333 -229 -43s-81 -68.334 -81 -119.001c0 -23.333 4 -42.666 12 -57.999
s24.333 -30.333 49 -45c21.333 -13.333 55 -27.833 101 -43.5s100 -31.834 162 -48.501c166.667 -44.667 285.667 -97 357 -157s107 -141.333 107 -244c0 -86 -19.333 -161.667 -58 -227s-92 -118.333 -160 -159c-71.333 -43.333 -152.333 -75 -243 -95
s-193.334 -30 -308.001 -30z" />
    <glyph glyph-name="T" unicode="T" horiz-adv-x="1396" 
d="M1504 1201h-464l-277 -1201h-386l277 1201h-464l66 288h1314z" />
    <glyph glyph-name="U" unicode="U" horiz-adv-x="1663" 
d="M1710 1489l-216 -930.001c-48.667 -206 -131 -355.5 -247 -448.5s-284 -139.5 -504 -139.5c-196 0 -344.333 35.167 -445 105.5s-151 176.833 -151 319.5c0 29.333 2.33301 59 7 89s9.66699 57.333 15 82l214 922h388l-214 -923
c-4.66699 -18.667 -8.5 -39.167 -11.5 -61.5s-4.5 -40.833 -4.5 -55.5c0 -62.667 18.833 -110.167 56.5 -142.5s100.167 -48.5 187.5 -48.5c84.667 0 153.167 23.333 205.5 70s89.833 119.334 112.5 218.001l219 943h388z" />
    <glyph glyph-name="V" unicode="V" horiz-adv-x="1564" 
d="M1754 1489l-887 -1489h-430l-199 1489h393l119 -1063l593 1063h411z" />
    <glyph glyph-name="W" unicode="W" horiz-adv-x="2311" 
d="M2459 1489l-724 -1489h-412l-64 987l-483 -987h-428l-68 1489h401l3 -1025l500 1025h383l45 -1025l456 1025h391z" />
    <glyph glyph-name="X" unicode="X" horiz-adv-x="1564" 
d="M610 768l-361 721h418l219 -469l435 469h425l-701 -742l365 -747h-419l-223 495l-450 -495h-424z" />
    <glyph glyph-name="Y" unicode="Y" horiz-adv-x="1509" 
d="M1715 1489l-759 -913l-133 -576h-386l129 558l-342 931h411l191 -583l445 583h444z" />
    <glyph glyph-name="Z" unicode="Z" horiz-adv-x="1417" 
d="M1209 0h-1251l64 274l984 932h-733l65 283h1175l-65 -279l-981 -927h808z" />
    <glyph glyph-name="bracketleft" unicode="[" horiz-adv-x="1113" 
d="M695 -392h-668l450 1948h668l-56 -240h-355l-338 -1468h355z" />
    <glyph glyph-name="backslash" unicode="\" horiz-adv-x="1412" 
d="M1127 -324h-297l-461 1880h300z" />
    <glyph glyph-name="bracketright" unicode="]" horiz-adv-x="1113" 
d="M645 -392h-668l56 240h355l338 1468h-355l56 240h668z" />
    <glyph glyph-name="asciicircum" unicode="^" horiz-adv-x="1776" 
d="M1628 642h-320l-388 567l-357 -569h-318l550 849h249z" />
    <glyph glyph-name="underscore" unicode="_" 
d="M1310 -139l-48 -211h-1488l48 211h1488z" />
    <glyph glyph-name="grave" unicode="`" 
d="M1065 1283h-226l-286 373v20h341z" />
    <glyph glyph-name="a" unicode="a" horiz-adv-x="1368" 
d="M843 530c-64 -5.33301 -123.998 -11.6641 -179.998 -18.9971s-103.667 -18 -143 -32c-40.667 -14.667 -71.667 -35.334 -93 -62.001s-32 -62 -32 -106c0 -38.667 14.167 -65.834 42.5 -81.501s69.5 -23.5 123.5 -23.5c35.333 0 73.166 8.16699 113.499 24.5
s78.166 37.166 113.499 62.499zM748.002 119.002l-82 -53.002c-32 -20.667 -61.667 -37 -89 -49c-37.333 -15.333 -72.333 -27 -105 -35s-78 -12 -136 -12c-93.333 0 -169.5 26.167 -228.5 78.5s-88.5 120.5 -88.5 204.5c0 88.667 21 163.834 63 225.501
s104.333 110.834 187 147.501c77.333 34.667 169.5 59.667 276.5 75s222.833 26.666 347.5 33.999c0.666992 4 2 10.5 4 19.5s3 19.167 3 30.5c0 47.333 -22 80.5 -66 99.5s-109.667 28.5 -197 28.5c-59.333 0 -124.833 -10 -196.5 -30s-125.5 -36.667 -161.5 -50h-33
l53 266c42 10.667 107 22.667 195 36s175.667 20 263 20c176 0 305.167 -23 387.5 -69s123.5 -117.333 123.5 -214c0 -13.333 -1.16699 -30.666 -3.5 -51.999s-5.5 -40 -9.5 -56l-176 -764h-358z" />
    <glyph glyph-name="b" unicode="b" horiz-adv-x="1432" 
d="M1367 764c0 -102 -16.4971 -201.001 -49.4971 -297.001s-78.167 -179.667 -135.5 -251c-58.667 -72.667 -127.334 -130.5 -206.001 -173.5s-165.667 -64.5 -261 -64.5c-62.667 0 -118.834 6.33301 -168.501 19s-93.834 32.334 -132.501 59.001l-27 -56h-347l359 1556h362
l-127 -550c64.667 44.667 126.167 80.5 184.5 107.5s123.5 40.5 195.5 40.5c116 0 203.833 -34.5 263.5 -103.5s89.5 -164.5 89.5 -286.5zM986.003 696.999c0 62.667 -13.667 110.333 -41 143s-74.666 49 -141.999 49c-35.333 0 -70 -6.16699 -104 -18.5
s-70 -28.5 -108 -48.5l-130 -564c23.333 -9.33301 48 -16.833 74 -22.5s55.333 -8.5 88 -8.5c111.333 0 199.666 43.833 264.999 131.5s98 200.5 98 338.5z" />
    <glyph glyph-name="c" unicode="c" horiz-adv-x="1205" 
d="M620 -30c-76.667 0 -148.499 9.49805 -215.499 28.498s-125.5 48.5 -175.5 88.5c-48.667 39.333 -86.667 88.666 -114 147.999s-41 128 -41 206c0 100.667 19.167 194.167 57.5 280.5s92.166 161.833 161.499 226.5c68 63.333 151 113.5 249 150.5s204 55.5 318 55.5
c68.667 0 136.834 -7.66699 204.501 -23s130.5 -37.666 188.5 -66.999l-76 -307h-51c-39.333 47.333 -83.833 82.5 -133.5 105.5s-105.5 34.5 -167.5 34.5c-113.333 0 -204.333 -40.167 -273 -120.5s-103 -180.5 -103 -300.5c0 -83.333 21.167 -145.666 63.5 -186.999
s108.166 -62 197.499 -62c69.333 0 132.5 14.167 189.5 42.5s105.833 59.833 146.5 94.5h51l-76 -307c-72 -31.333 -135.167 -53.666 -189.5 -66.999s-124.833 -20 -211.5 -20z" />
    <glyph glyph-name="d" unicode="d" horiz-adv-x="1432" 
d="M1494 1556l-359.999 -1556h-362l27 117l-91.5 -59.5c-26.333 -17.667 -55.5 -33.834 -87.5 -48.501c-30 -13.333 -59.5 -23.333 -88.5 -30s-63.833 -10 -104.5 -10c-108.667 0 -195.5 35.333 -260.5 106s-97.5 171 -97.5 301c0 106.667 17.167 206.834 51.5 300.501
s81.5 176.5 141.5 248.5c58.667 70 128 125.667 208 167s163.667 62 251 62c61.333 0 114.666 -6.16699 159.999 -18.5s92 -31.5 140 -57.5l111 478h362zM971.001 861c-19.333 9.33301 -44.666 17.833 -75.999 25.5s-59 11.5 -83 11.5c-57.333 0 -109 -12.667 -155 -38
s-85 -60 -117 -104c-28.667 -39.333 -51.334 -89.5 -68.001 -150.5s-25 -119.833 -25 -176.5c0 -67.333 15.667 -116.333 47 -147s79 -46 143 -46c32.667 0 67.167 7.33301 103.5 22s70.833 32 103.5 52z" />
    <glyph glyph-name="e" unicode="e" horiz-adv-x="1360" 
d="M949 706c2 12 3.5 23 4.5 33s1.5 20.333 1.5 31c0 52.667 -16.333 93 -49 121s-79.667 42 -141 42c-74 0 -136.167 -20 -186.5 -60s-88.5 -95.667 -114.5 -167h485zM674 -30c-191.333 0 -339.002 42.3311 -443.002 126.998s-156 201.667 -156 351
c0 102 17 195.667 51 281s83 160.333 147 225c61.333 62.667 138 112.334 230 149.001s193 55 303 55c167.333 0 293.5 -33.833 378.5 -101.5s127.5 -167.5 127.5 -299.5c0 -45.333 -4.5 -89.666 -13.5 -132.999s-20.833 -86.333 -35.5 -129h-834v-11.5v-11.5
c0 -78 27.333 -139 82 -183s138.334 -66 251.001 -66c78.667 0 153.167 13.333 223.5 40s131.5 56.334 183.5 89.001h40l-67 -289c-70 -30.667 -143.667 -53.834 -221 -69.501s-159.666 -23.5 -246.999 -23.5z" />
    <glyph glyph-name="f" unicode="f" horiz-adv-x="865" 
d="M676 1123l278.001 0.000976562l-54 -237h-266l-205 -886h-362l205 886h-154l54 237h154l7 29c30.667 135.333 86.667 238.166 168 308.499s201.666 105.5 360.999 105.5c58.667 0 109.667 -1.83301 153 -5.5s80.666 -8.5 111.999 -14.5l-59 -254h-27
c-15.333 5.33301 -37.166 10.833 -65.499 16.5s-54.5 8.5 -78.5 8.5c-66.667 0 -115.167 -13 -145.5 -39s-54.833 -75 -73.5 -147z" />
    <glyph glyph-name="g" unicode="g" horiz-adv-x="1432" 
d="M1393 1123l-226.001 -994.003c-24.667 -106.667 -59.667 -195.334 -105 -266.001s-100.333 -127 -165 -169c-66.667 -43.333 -139 -73.666 -217 -90.999s-165.667 -26 -263 -26c-80.667 0 -158 4.83301 -232 14.5s-136.333 20.834 -187 33.501l55 276h44
c55.333 -21.333 111.333 -38.333 168 -51s107 -19 151 -19c63.333 0 118.333 5.83301 165 17.5s83.334 28.5 110.001 50.5c28.667 23.333 51.5 52 68.5 86s30.833 75.667 41.5 125l5 21c-52 -35.333 -103.667 -63.333 -155 -84s-109.333 -31 -174 -31
c-126 0 -224.5 31.667 -295.5 95s-106.5 159 -106.5 287c0 220.667 62.333 401.834 187 543.501s276 212.5 454 212.5c64 0 122.167 -7.66699 174.5 -23s94.5 -34.666 126.5 -57.999l25 50h351zM970.999 862.997c-19.333 8.66699 -44.833 16.833 -76.5 24.5
s-59.5 11.5 -83.5 11.5c-107.333 0 -193.666 -40.333 -258.999 -121s-98 -184.334 -98 -311.001c0 -57.333 14 -102 42 -134s78.333 -48 151 -48c35.333 0 71.166 6.83301 107.499 20.5s70.5 29.834 102.5 48.501z" />
    <glyph glyph-name="h" unicode="h" horiz-adv-x="1459" 
d="M1356 869c0 -16 -1.33008 -36.667 -3.99707 -62s-7 -50.666 -13 -75.999l-169 -731h-364l129 557c9.33301 42.667 16.666 78.667 21.999 108s8 55.666 8 78.999c0 44.667 -11.167 76.834 -33.5 96.501s-62.833 29.5 -121.5 29.5c-28.667 0 -61.667 -6.16699 -99 -18.5
s-79 -30.833 -125 -55.5l-184 -796h-362l359 1556h362l-128 -557c73.333 48.667 140.666 86.667 201.999 114s128.666 41 201.999 41c102 0 180.667 -24.833 236 -74.5s83 -119.834 83 -210.501z" />
    <glyph glyph-name="i" unicode="i" horiz-adv-x="700" 
d="M662 1123l-260 -1123h-362l260 1123h362zM772 1556l-63 -273h-382l63 273h382z" />
    <glyph glyph-name="j" unicode="j" horiz-adv-x="825" 
d="M787 1123l-259.001 -1119c-30.667 -130.667 -90.167 -234.5 -178.5 -311.5s-201.5 -115.5 -339.5 -115.5c-67.333 0 -125.666 2.66699 -174.999 8s-87.666 11.333 -114.999 18l59 258h28c22 -8 44.167 -14 66.5 -18s47.166 -6 74.499 -6
c63.333 0.666992 113 17.5 149 50.5s63 89.167 81 168.5l190 823h-213l57 244h575zM883.999 1556l-63 -273h-382l63 273h382z" />
    <glyph glyph-name="k" unicode="k" horiz-adv-x="1374" 
d="M1245 0h-379l-221 496l-159 -142l-83 -354h-362l359 1556h362l-214 -929l502 496h415l-520 -489z" />
    <glyph glyph-name="l" unicode="l" horiz-adv-x="700" 
d="M762 1556l-360 -1556h-362l360 1556h362z" />
    <glyph glyph-name="m" unicode="m" horiz-adv-x="2167" 
d="M2065 873c0 -20.667 -1.5 -43.001 -4.5 -67.001s-7.5 -49 -13.5 -75l-169 -731h-364l130 561c8.66699 38.667 16.5 75.667 23.5 111s10.5 64 10.5 86c0 38.667 -10.667 67 -32 85s-59.333 27 -114 27c-26 0 -55.5 -6.16699 -88.5 -18.5s-72.833 -30.833 -119.5 -55.5
l-184 -796h-364l130 561c7.33301 32.667 14.666 68 21.999 106s11 67 11 87c0 40.667 -10.167 70.167 -30.5 88.5s-58.166 27.5 -113.499 27.5c-28.667 0 -60 -6.66699 -94 -20s-72.333 -31.333 -115 -54l-184 -796h-362l260 1123h362l-29 -124
c73.333 48.667 139.5 86.667 198.5 114s122.833 41 191.5 41c74 0 136.333 -16.5 187 -49.5s86 -81.5 106 -145.5c89.333 64.667 169.333 113.334 240 146.001s139 49 205 49c98.667 0 174 -24.333 226 -73s78 -118 78 -208z" />
    <glyph glyph-name="n" unicode="n" horiz-adv-x="1459" 
d="M1355 869c0 -20 -1.33203 -41.665 -3.99902 -64.998s-7 -47.666 -13 -72.999l-168 -731h-364l128 557c9.33301 41.333 16.666 76.666 21.999 105.999s8 56.666 8 81.999c0 43.333 -11 75 -33 95s-62.333 30 -121 30c-28.667 0 -61.667 -6.16699 -99 -18.5
s-79.333 -30.833 -126 -55.5l-183 -796h-362l259 1123h362l-29 -124c74 48.667 141.5 86.667 202.5 114s128.167 41 201.5 41c100.667 0 179 -24.333 235 -73s84 -119.334 84 -212.001z" />
    <glyph glyph-name="o" unicode="o" horiz-adv-x="1404" 
d="M1335 712c0 -105.333 -17.666 -204 -52.999 -296s-85 -171 -149 -237c-66.667 -68.667 -144 -121.5 -232 -158.5s-190.667 -55.5 -308 -55.5c-167.333 0 -295.666 40 -384.999 120s-134 190.667 -134 332c0 100 16.667 195 50 285s82.666 169.333 147.999 238
c63.333 67.333 141.166 120.5 233.499 159.5s195.833 58.5 310.5 58.5c168 0 296.5 -39.5 385.5 -118.5s133.5 -188.167 133.5 -327.5zM867.001 344c30.667 46.667 53.832 97.668 69.499 153.001s23.5 122.666 23.5 201.999c0 68.667 -15 121.5 -45 158.5
s-77.667 55.5 -143 55.5c-50.667 0 -95.167 -12.333 -133.5 -37s-72.166 -59.667 -101.499 -105c-27.333 -42 -48.833 -94 -64.5 -156s-23.5 -125.667 -23.5 -191c0 -76.667 17 -131.5 51 -164.5s80.667 -49.5 140 -49.5c43.333 0 85 11.833 125 35.5s74 56.5 102 98.5z" />
    <glyph glyph-name="p" unicode="p" horiz-adv-x="1432" 
d="M1366 764c0 -103.333 -16.833 -203.501 -50.5 -300.501s-79.5 -180.5 -137.5 -250.5c-60.667 -74 -129.167 -131.667 -205.5 -173s-161.833 -62 -256.5 -62c-60 0 -115.167 6.83301 -165.5 20.5s-95.833 32.834 -136.5 57.501l-108 -468h-362l355 1535h362l-27 -117
c68 46.667 130.833 83 188.5 109s121.5 39 191.5 39c113.333 0 200.333 -34.5 261 -103.5s91 -164.5 91 -286.5zM897 369.999c28.667 42 50.667 91.167 66 147.5s23 117.5 23 183.5c0 60.667 -13.333 107.167 -40 139.5s-74.334 48.5 -143.001 48.5
c-35.333 0 -70 -6.16699 -104 -18.5s-70 -28.5 -108 -48.5l-130 -565c21.333 -9.33301 46.166 -16.5 74.499 -21.5s57.5 -7.5 87.5 -7.5c60.667 0 114.334 13 161.001 39s84.334 60.333 113.001 103z" />
    <glyph glyph-name="q" unicode="q" horiz-adv-x="1432" 
d="M971 861c-19.333 9.33301 -44.668 17.833 -76.001 25.5s-59 11.5 -83 11.5c-64 0 -118.167 -13.667 -162.5 -41s-80.833 -61.666 -109.5 -102.999c-29.333 -40.667 -52.166 -89.334 -68.499 -146.001s-24.5 -115.667 -24.5 -177c0 -62 13.667 -110 41 -144
s77 -51 149 -51c32.667 0 67.167 7.33301 103.5 22s70.833 32 103.5 52zM1394 1123l-355.001 -1535h-362l121 522l-92.5 -57.5c-33 -20.333 -61.5 -35.5 -85.5 -45.5c-34 -14.667 -66 -24.667 -96 -30s-62.333 -8 -97 -8c-108.667 0 -195.5 35.333 -260.5 106
s-97.5 171 -97.5 301c0 112 18.333 215.667 55 311s85.334 178 146.001 248c60.667 69.333 130.667 123.166 210 161.499s159.666 57.5 240.999 57.5c60.667 0 114.834 -7.16699 162.501 -21.5s92.5 -34.166 134.5 -59.499l25 50h351z" />
    <glyph glyph-name="r" unicode="r" horiz-adv-x="1018" 
d="M1036 780h-32.002c-16 5.33301 -38.667 9.33301 -68 12s-58.333 4 -87 4c-47.333 0 -93 -3.5 -137 -10.5s-89.333 -18.167 -136 -33.5l-174 -752h-362l260 1123h362l-38 -165c68 50 135.833 90.667 203.5 122s135.834 47 204.501 47c12.667 0 26.834 -0.333008 42.501 -1
s29.5 -1.66699 41.5 -3z" />
    <glyph glyph-name="s" unicode="s" horiz-adv-x="1215" 
d="M473 -31c-96 0 -188.997 9 -278.997 27s-159 39 -207 63l69 296h33c14.667 -12.667 33.167 -26.667 55.5 -42s54.166 -31.333 95.499 -48c35.333 -15.333 76.333 -28.5 123 -39.5s97 -16.5 151 -16.5c80.667 0 141.167 9.33301 181.5 28s60.5 45.334 60.5 80.001
c0 26.667 -14.333 47 -43 61s-88 31.333 -178 52c-152.667 35.333 -257.167 78 -313.5 128s-84.5 112.333 -84.5 187c0 126.667 56.667 226.5 170 299.5s266.666 109.5 459.999 109.5c84 0 168 -8.5 252 -25.5s145.667 -35.167 185 -54.5l-66 -284h-31
c-47.333 36.667 -104.5 66.5 -171.5 89.5s-135.833 34.5 -206.5 34.5c-76.667 0 -135.5 -9.16699 -176.5 -27.5s-61.5 -46.5 -61.5 -84.5c0 -29.333 17.667 -51.833 53 -67.5s91 -31.834 167 -48.501c141.333 -30.667 243.166 -69.334 305.499 -116.001s93.5 -112 93.5 -196
c0 -125.333 -57.333 -224.166 -172 -296.499s-269.667 -108.5 -465 -108.5z" />
    <glyph glyph-name="t" unicode="t" horiz-adv-x="933" 
d="M471 -22c-124.667 0 -213.666 20.5 -266.999 61.5s-80 101.833 -80 182.5c0 21.333 1.66699 42 5 62s7.66602 43.333 12.999 70l122 532h-148l55 237h148l74 321h361l-74 -321h338l-55 -237h-338l-93 -405c-6.66699 -28 -13 -56.167 -19 -84.5s-9 -52.5 -9 -72.5
c0 -40 11.167 -67.833 33.5 -83.5s56.833 -23.5 103.5 -23.5c18.667 0 43.167 3.5 73.5 10.5s54.5 14.833 72.5 23.5h30l-56 -241c-40.667 -10 -83.5 -17.833 -128.5 -23.5s-98.833 -8.5 -161.5 -8.5z" />
    <glyph glyph-name="u" unicode="u" horiz-adv-x="1459" 
d="M1420 1123l-259.998 -1123h-362l29 124l-105.5 -65.5c-34.333 -20.333 -66.833 -36.5 -97.5 -48.5c-38.667 -16 -74 -26.833 -106 -32.5s-63.667 -8.5 -95 -8.5c-98.667 0 -176.5 23.667 -233.5 71s-85.5 117.333 -85.5 210c0 25.333 1.33301 48.833 4 70.5
s7 45.5 13 71.5l169 731h364l-129 -557c-10 -42.667 -17.5 -79.334 -22.5 -110.001s-7.5 -56.667 -7.5 -78c0 -44 10.667 -75.833 32 -95.5s61.666 -29.5 120.999 -29.5c29.333 0 63.166 6.33301 101.499 19s79.833 31 124.5 55l184 796h362z" />
    <glyph glyph-name="v" unicode="v" horiz-adv-x="1329" 
d="M1419 1123l-693 -1123h-410l-170 1123h371l82 -773l433 773h387z" />
    <glyph glyph-name="w" unicode="w" horiz-adv-x="2006" 
d="M2091 1123l-587 -1123h-382l-75 757l-379 -757h-387l-106 1123h368l33 -774l399 774h319l69 -774l348 774h380z" />
    <glyph glyph-name="x" unicode="x" horiz-adv-x="1370" 
d="M479 571l-316 552h388l179 -342l323 342h416l-575 -563l320 -560h-388l-181 346l-334 -346h-415z" />
    <glyph glyph-name="y" unicode="y" horiz-adv-x="1333" 
d="M454 -412h-395l286 434l-185 1101h368l97 -736l428 736h380z" />
    <glyph glyph-name="z" unicode="z" horiz-adv-x="1222" 
d="M1005 0h-1055l52 221l738 649h-565l59 253h1020l-51 -217l-729 -648h591z" />
    <glyph glyph-name="braceleft" unicode="{" 
d="M1052 -392l-266 0.000976562c-108.667 0 -195 23.667 -259 71s-96 116.666 -96 207.999c0 44.667 9.5 106 28.5 184s28.5 140 28.5 186c0 68 -22 118.667 -66 152s-118 50 -222 50h-70l52 246h70c122.667 0 214.334 24.5 275.001 73.5s103 130.167 127 243.5l31 147
c27.333 132 84.166 229.5 170.499 292.5s198.5 94.5 336.5 94.5h274l-48 -224h-114c-46.667 0 -85.667 -3.16699 -117 -9.5s-60.333 -18.833 -87 -37.5c-26 -18 -47.333 -42.333 -64 -73s-30.667 -72.667 -42 -126l-25 -119
c-22.667 -104.667 -64.167 -186.167 -124.5 -244.5s-146.5 -104.5 -258.5 -138.5l-6 -24c66.667 -27.333 120 -64 160 -110s60 -105.333 60 -178c0 -33.333 -7.16699 -83.333 -21.5 -150s-21.5 -112 -21.5 -136c0 -55.333 15.167 -94.833 45.5 -118.5
s87.833 -35.5 172.5 -35.5h125z" />
    <glyph glyph-name="bar" unicode="|" horiz-adv-x="1113" 
d="M725 -392h-291v1948h291v-1948z" />
    <glyph glyph-name="braceright" unicode="}" 
d="M1334 705l-51.999 -246.001h-70c-122.667 0 -214.334 -24.5 -275.001 -73.5s-103 -130.167 -127 -243.5l-31 -147c-28 -132 -85 -229.5 -171 -292.5s-198 -94.5 -336 -94.5h-274l48 224h114c46.667 0 85.667 3.16699 117 9.5s60.333 18.833 87 37.5
c26 18 47.333 42.333 64 73s30.667 72.667 42 126l25 119c22 104 63.333 185.333 124 244s147 105 259 139l6 24c-66.667 27.333 -120 64 -160 110s-60 105.333 -60 178c0 33.333 7.16699 83.333 21.5 150s21.5 112 21.5 136c0 55.333 -15.167 94.833 -45.5 118.5
s-87.833 35.5 -172.5 35.5h-125l48 224h266c108.667 0 195 -23.667 259 -71s96 -116.666 96 -207.999c0 -44.667 -9.5 -106 -28.5 -184s-28.5 -140 -28.5 -186c0 -68 22 -118.667 66 -152s118 -50 222 -50h70z" />
    <glyph glyph-name="asciitilde" unicode="~" horiz-adv-x="1776" 
d="M1641 1007c-0.666992 -218.667 -37.167 -386.665 -109.5 -503.998s-180.166 -176 -323.499 -176c-47.333 0 -88.833 5.5 -124.5 16.5s-67.834 25.833 -96.501 44.5c-28 19.333 -53.167 40.5 -75.5 63.5s-45.5 48.5 -69.5 76.5l-56.5 70.5
c-21.667 27.667 -40.167 49.5 -55.5 65.5c-19.333 20.667 -37.833 36.834 -55.5 48.501s-37.5 17.5 -59.5 17.5c-40 0 -70.333 -10.333 -91 -31s-36.667 -47.334 -48 -80.001c-12 -36 -19.833 -81 -23.5 -135s-6.16699 -107 -7.5 -159h-270c0 225.333 37.333 395 112 509
s181.667 171 321 171c45.333 0 86.333 -5.83301 123 -17.5s70 -26.834 100 -45.501c28 -18.667 53.5 -39.667 76.5 -63s45.833 -48.333 68.5 -75l52.5 -66.5c19 -25 38.833 -48.5 59.5 -70.5c22 -22.667 41.833 -39.167 59.5 -49.5s35.5 -15.5 53.5 -15.5
c38 0 68 9.66699 90 29s38.333 46.666 49 81.999c11.333 35.333 19 78 23 128s6.66699 105.333 8 166h270z" />
    <glyph glyph-name="afii10051" horiz-adv-x="1865" 
d="M1761 572c0 -91.333 -22.5 -177.5 -67.5 -258.5s-103.167 -146.167 -174.5 -195.5c-65.333 -44.667 -133 -75.5 -203 -92.5s-151.667 -25.5 -245 -25.5h-117l65 282h42c54.667 0 101 6.5 139 19.5s68 30.5 90 52.5c22 21.333 38 45.833 48 73.5s15 57.167 15 88.5
c0 20.667 -3.16699 39.334 -9.5 56.001s-16.833 31.667 -31.5 45c-15.333 13.333 -37.5 24.166 -66.5 32.499s-64.833 12.5 -107.5 12.5h-257l-152 -662h-385l278 1201h-433l66 288h1282l-66 -288h-465l-62 -267h323c161.333 0 284 -30.667 368 -92s126 -151.333 126 -270z
" />
    <glyph glyph-name="afii10051" unicode="&#x402;" horiz-adv-x="1865" 
d="M1761 572c0 -91.333 -22.5 -177.5 -67.5 -258.5s-103.167 -146.167 -174.5 -195.5c-65.333 -44.667 -133 -75.5 -203 -92.5s-151.667 -25.5 -245 -25.5h-117l65 282h42c54.667 0 101 6.5 139 19.5s68 30.5 90 52.5c22 21.333 38 45.833 48 73.5s15 57.167 15 88.5
c0 20.667 -3.16699 39.334 -9.5 56.001s-16.833 31.667 -31.5 45c-15.333 13.333 -37.5 24.166 -66.5 32.499s-64.833 12.5 -107.5 12.5h-257l-152 -662h-385l278 1201h-433l66 288h1282l-66 -288h-465l-62 -267h323c161.333 0 284 -30.667 368 -92s126 -151.333 126 -270z
" />
    <glyph glyph-name="afii10052" horiz-adv-x="1305" 
d="M1469 2029l-438 -373h-256l313 393h381v-20zM1410 1201h-688l-277 -1201h-386l344 1489h1074z" />
    <glyph glyph-name="afii10052" unicode="&#x403;" horiz-adv-x="1305" 
d="M1469 2029l-438 -373h-256l313 393h381v-20zM1410 1201h-688l-277 -1201h-386l344 1489h1074z" />
    <glyph glyph-name="afii10061" horiz-adv-x="1579" 
d="M1527 2029l-438 -373h-256l313 393h381v-20zM1466 0h-423.003l-336 605h-122l-140 -605h-386l343 1489h386l-141 -610c60 2.66699 107 14.667 141 36s86.333 75.666 157 162.999l62.5 80l67.5 87c40.667 50.667 80 92.834 118 126.501s74.667 59.167 110 76.5
c34.667 16.667 71.334 28.167 110.001 34.5s86.334 9.5 143.001 9.5c34 0 64.333 -0.5 91 -1.5s46.334 -1.5 59.001 -1.5l-73 -317h-101c-30.667 0 -55 -3.16699 -73 -9.5s-38.667 -18.166 -62 -35.499c-19.333 -14.667 -38.333 -32.834 -57 -54.501
s-44.334 -53.834 -77.001 -96.501c-53.333 -70 -97.666 -119.667 -132.999 -149s-68 -50.666 -98 -63.999z" />
    <glyph glyph-name="afii10061" unicode="&#x40c;" horiz-adv-x="1579" 
d="M1527 2029l-438 -373h-256l313 393h381v-20zM1466 0h-423.003l-336 605h-122l-140 -605h-386l343 1489h386l-141 -610c60 2.66699 107 14.667 141 36s86.333 75.666 157 162.999l62.5 80l67.5 87c40.667 50.667 80 92.834 118 126.501s74.667 59.167 110 76.5
c34.667 16.667 71.334 28.167 110.001 34.5s86.334 9.5 143.001 9.5c34 0 64.333 -0.5 91 -1.5s46.334 -1.5 59.001 -1.5l-73 -317h-101c-30.667 0 -55 -3.16699 -73 -9.5s-38.667 -18.166 -62 -35.499c-19.333 -14.667 -38.333 -32.834 -57 -54.501
s-44.334 -53.834 -77.001 -96.501c-53.333 -70 -97.666 -119.667 -132.999 -149s-68 -50.666 -98 -63.999z" />
    <glyph glyph-name="afii10060" horiz-adv-x="1917" 
d="M750 0l-386 0.00195312l277 1201h-451l66 288h1300l-66 -288h-463l-70 -303c62 11.333 130.667 22.333 206 33s145.666 16 210.999 16c126.667 0 226.667 -27.833 300 -83.5s110 -134.834 110 -237.501c0 -14 -1.16699 -34.833 -3.5 -62.5s-7.5 -58.5 -15.5 -92.5
l-108 -471h-388l72 313c6.66699 30 13 61.333 19 94s9 60 9 82c0 65.333 -21.5 110.666 -64.5 135.999s-108.167 38 -195.5 38c-37.333 0 -74.666 -2 -111.999 -6s-70 -8 -98 -12z" />
    <glyph glyph-name="afii10060" unicode="&#x40b;" horiz-adv-x="1917" 
d="M750 0l-386 0.00195312l277 1201h-451l66 288h1300l-66 -288h-463l-70 -303c62 11.333 130.667 22.333 206 33s145.666 16 210.999 16c126.667 0 226.667 -27.833 300 -83.5s110 -134.834 110 -237.501c0 -14 -1.16699 -34.833 -3.5 -62.5s-7.5 -58.5 -15.5 -92.5
l-108 -471h-388l72 313c6.66699 30 13 61.333 19 94s9 60 9 82c0 65.333 -21.5 110.666 -64.5 135.999s-108.167 38 -195.5 38c-37.333 0 -74.666 -2 -111.999 -6s-70 -8 -98 -12z" />
    <glyph glyph-name="afii10145" horiz-adv-x="1715" 
d="M550 0h-491l344 1489h385l-278 -1206h565l279 1206h385l-343 -1489h-491l-81 -352h-355z" />
    <glyph glyph-name="afii10145" unicode="&#x40f;" horiz-adv-x="1715" 
d="M550 0h-491l344 1489h385l-278 -1206h565l279 1206h385l-343 -1489h-491l-81 -352h-355z" />
    <glyph glyph-name="afii10099" horiz-adv-x="1459" 
d="M712 -79c32 30.667 61.1699 76.168 87.5029 136.501s53.5 145.166 81.5 254.499l21.5 86c7.66699 30.667 13.834 57 18.501 79l25 120.5c12.667 61 19 106.5 19 136.5c0 45.333 -10.833 79.333 -32.5 102s-62.5 34 -122.5 34c-28.667 0 -61.667 -6.16699 -99 -18.5
s-79 -30.833 -125 -55.5l-184 -796h-362l286 1240h-129l46 201h129l27 115h362l-27 -115h324l-46 -201h-324l-55 -241c73.333 48.667 140.666 86.667 201.999 114s128.666 41 201.999 41c94.667 0 170.5 -23.667 227.5 -71s85.5 -119.666 85.5 -216.999
c0 -36 -6.33301 -88 -19 -156s-28 -141 -46 -219l-32.5 -136l-28.5 -113c-30 -120 -69.5 -221.833 -118.5 -305.5s-103.5 -150.834 -163.5 -201.501c-62 -52 -125.333 -89 -190 -111s-131.334 -33 -200.001 -33c-36.667 0 -72.167 0.166992 -106.5 0.5s-65.5 1.5 -93.5 3.5
l59 257h42c55.333 0 104.666 4 147.999 12s80.333 27 111 57z" />
    <glyph glyph-name="afii10099" unicode="&#x452;" horiz-adv-x="1459" 
d="M712 -79c32 30.667 61.1699 76.168 87.5029 136.501s53.5 145.166 81.5 254.499l21.5 86c7.66699 30.667 13.834 57 18.501 79l25 120.5c12.667 61 19 106.5 19 136.5c0 45.333 -10.833 79.333 -32.5 102s-62.5 34 -122.5 34c-28.667 0 -61.667 -6.16699 -99 -18.5
s-79 -30.833 -125 -55.5l-184 -796h-362l286 1240h-129l46 201h129l27 115h362l-27 -115h324l-46 -201h-324l-55 -241c73.333 48.667 140.666 86.667 201.999 114s128.666 41 201.999 41c94.667 0 170.5 -23.667 227.5 -71s85.5 -119.666 85.5 -216.999
c0 -36 -6.33301 -88 -19 -156s-28 -141 -46 -219l-32.5 -136l-28.5 -113c-30 -120 -69.5 -221.833 -118.5 -305.5s-103.5 -150.834 -163.5 -201.501c-62 -52 -125.333 -89 -190 -111s-131.334 -33 -200.001 -33c-36.667 0 -72.167 0.166992 -106.5 0.5s-65.5 1.5 -93.5 3.5
l59 257h42c55.333 0 104.666 4 147.999 12s80.333 27 111 57z" />
    <glyph glyph-name="afii10109" horiz-adv-x="1374" 
d="M1319 1656l-438 -373h-256l313 393h381v-20zM1245 0l-379.001 -0.00292969l-200 448h-161l-103 -448h-362l259 1123h362l-105 -454c65.333 0.666992 111 8.33398 137 23.001s63 52.334 111 113.001l50 66.5l47 63.5c44 59.333 94 105.833 150 139.5
s131.333 50.5 226 50.5c26.667 0 55.334 -0.333008 86.001 -1s51.334 -1 62.001 -1l-66 -289h-90c-36 0 -67.333 -9.5 -94 -28.5s-55.334 -51.5 -86.001 -97.5c-30 -43.333 -51.167 -72.166 -63.5 -86.499s-30.5 -28.833 -54.5 -43.5z" />
    <glyph glyph-name="afii10109" unicode="&#x45c;" horiz-adv-x="1374" 
d="M1319 1656l-438 -373h-256l313 393h381v-20zM1245 0l-379.001 -0.00292969l-200 448h-161l-103 -448h-362l259 1123h362l-105 -454c65.333 0.666992 111 8.33398 137 23.001s63 52.334 111 113.001l50 66.5l47 63.5c44 59.333 94 105.833 150 139.5
s131.333 50.5 226 50.5c26.667 0 55.334 -0.333008 86.001 -1s51.334 -1 62.001 -1l-66 -289h-90c-36 0 -67.333 -9.5 -94 -28.5s-55.334 -51.5 -86.001 -97.5c-30 -43.333 -51.167 -72.166 -63.5 -86.499s-30.5 -28.833 -54.5 -43.5z" />
    <glyph glyph-name="afii10108" horiz-adv-x="1459" 
d="M1356 869c0 -16 -1.33008 -36.667 -3.99707 -62s-7 -50.666 -13 -75.999l-169 -731h-364l129 557c9.33301 42.667 16.666 78.667 21.999 108s8 55.666 8 78.999c0 44.667 -11.167 76.834 -33.5 96.501s-62.833 29.5 -121.5 29.5c-28.667 0 -61.667 -6.16699 -99 -18.5
s-79 -30.833 -125 -55.5l-184 -796h-362l286 1240h-129l46 201h129l27 115h362l-27 -115h324l-46 -201h-324l-55 -241c73.333 48.667 140.666 86.667 201.999 114s128.666 41 201.999 41c102 0 180.667 -24.833 236 -74.5s83 -119.834 83 -210.501z" />
    <glyph glyph-name="afii10108" unicode="&#x45b;" horiz-adv-x="1459" 
d="M1356 869c0 -16 -1.33008 -36.667 -3.99707 -62s-7 -50.666 -13 -75.999l-169 -731h-364l129 557c9.33301 42.667 16.666 78.667 21.999 108s8 55.666 8 78.999c0 44.667 -11.167 76.834 -33.5 96.501s-62.833 29.5 -121.5 29.5c-28.667 0 -61.667 -6.16699 -99 -18.5
s-79 -30.833 -125 -55.5l-184 -796h-362l286 1240h-129l46 201h129l27 115h362l-27 -115h324l-46 -201h-324l-55 -241c73.333 48.667 140.666 86.667 201.999 114s128.666 41 201.999 41c102 0 180.667 -24.833 236 -74.5s83 -119.834 83 -210.501z" />
    <glyph glyph-name="exclamdown" unicode="&#xa1;" horiz-adv-x="824" 
d="M767 1225h-404l61 264h404zM491 0h-418l291 1060h326z" />
    <glyph glyph-name="exclamdown" unicode="&#x40e;" horiz-adv-x="824" 
d="M767 1225h-404l61 264h404zM491 0h-418l291 1060h326z" />
    <glyph glyph-name="cent" unicode="&#xa2;" 
d="M1156 67c-38 -14 -86.333 -29.5049 -145 -46.5049s-119 -28.167 -181 -33.5l-80 -348h-174l79 345c-155.333 10.667 -275.333 54.334 -360 131.001s-127 179.334 -127 308.001c0 106.667 19.333 204.334 58 293.001s92.334 165.334 161.001 230.001
c66.667 62 146.5 111.5 239.5 148.5s193.167 58.833 300.5 65.5l73 315h174l-74 -319c71.333 -8 132.166 -21.167 182.499 -39.5s85.5 -32.5 105.5 -42.5l-68 -295h-49c-22 22.667 -50.167 46.834 -84.5 72.501s-83.5 44.834 -147.5 57.501l-156 -676
c68 10 127.667 29.167 179 57.5s89 52.166 113 71.499h49zM718 235.995l155 671.999c-50 -12 -95.667 -32 -137 -60s-77.333 -62.333 -108 -103c-28 -37.333 -50.167 -80.333 -66.5 -129s-24.5 -96 -24.5 -142c0 -66.667 15.167 -119.667 45.5 -159
s75.5 -65.666 135.5 -78.999z" />
    <glyph glyph-name="cent" unicode="&#x45e;" 
d="M1156 67c-38 -14 -86.333 -29.5049 -145 -46.5049s-119 -28.167 -181 -33.5l-80 -348h-174l79 345c-155.333 10.667 -275.333 54.334 -360 131.001s-127 179.334 -127 308.001c0 106.667 19.333 204.334 58 293.001s92.334 165.334 161.001 230.001
c66.667 62 146.5 111.5 239.5 148.5s193.167 58.833 300.5 65.5l73 315h174l-74 -319c71.333 -8 132.166 -21.167 182.499 -39.5s85.5 -32.5 105.5 -42.5l-68 -295h-49c-22 22.667 -50.167 46.834 -84.5 72.501s-83.5 44.834 -147.5 57.501l-156 -676
c68 10 127.667 29.167 179 57.5s89 52.166 113 71.499h49zM718 235.995l155 671.999c-50 -12 -95.667 -32 -137 -60s-77.333 -62.333 -108 -103c-28 -37.333 -50.167 -80.333 -66.5 -129s-24.5 -96 -24.5 -142c0 -66.667 15.167 -119.667 45.5 -159
s75.5 -65.666 135.5 -78.999z" />
    <glyph glyph-name="afii10071" unicode="&#xa3;" horiz-adv-x="1360" 
d="M949 706c2 12 3.5 23 4.5 33s1.5 20.333 1.5 31c0 52.667 -16.333 93 -49 121s-79.667 42 -141 42c-74 0 -136.167 -20 -186.5 -60s-88.5 -95.667 -114.5 -167h485zM674 -30c-191.333 0 -339.002 42.3311 -443.002 126.998s-156 201.667 -156 351
c0 102 17 195.667 51 281s83 160.333 147 225c61.333 62.667 138 112.334 230 149.001s193 55 303 55c167.333 0 293.5 -33.833 378.5 -101.5s127.5 -167.5 127.5 -299.5c0 -45.333 -4.5 -89.666 -13.5 -132.999s-20.833 -86.333 -35.5 -129h-834v-11.5v-11.5
c0 -78 27.333 -139 82 -183s138.334 -66 251.001 -66c78.667 0 153.167 13.333 223.5 40s131.5 56.334 183.5 89.001h40l-67 -289c-70 -30.667 -143.667 -53.834 -221 -69.501s-159.666 -23.5 -246.999 -23.5zM1282 1556l-63 -273h-297l63 273h297zM744.998 1556l-63 -273
h-297l63 273h297z" />
    <glyph glyph-name="afii10071" unicode="&#x408;" horiz-adv-x="1360" 
d="M949 706c2 12 3.5 23 4.5 33s1.5 20.333 1.5 31c0 52.667 -16.333 93 -49 121s-79.667 42 -141 42c-74 0 -136.167 -20 -186.5 -60s-88.5 -95.667 -114.5 -167h485zM674 -30c-191.333 0 -339.002 42.3311 -443.002 126.998s-156 201.667 -156 351
c0 102 17 195.667 51 281s83 160.333 147 225c61.333 62.667 138 112.334 230 149.001s193 55 303 55c167.333 0 293.5 -33.833 378.5 -101.5s127.5 -167.5 127.5 -299.5c0 -45.333 -4.5 -89.666 -13.5 -132.999s-20.833 -86.333 -35.5 -129h-834v-11.5v-11.5
c0 -78 27.333 -139 82 -183s138.334 -66 251.001 -66c78.667 0 153.167 13.333 223.5 40s131.5 56.334 183.5 89.001h40l-67 -289c-70 -30.667 -143.667 -53.834 -221 -69.501s-159.666 -23.5 -246.999 -23.5zM1282 1556l-63 -273h-297l63 273h297zM744.998 1556l-63 -273
h-297l63 273h297z" />
    <glyph glyph-name="afii10101" unicode="&#xa4;" horiz-adv-x="1241" 
d="M1047 52c-75.333 -29.333 -144.831 -50.332 -208.498 -62.999s-126.834 -19 -189.501 -19c-178.667 0 -319.167 40.667 -421.5 122s-153.5 195 -153.5 341c0 106 19 203 57 291s91.333 164 160 228c67.333 62.667 149.833 112 247.5 148s203.167 54 316.5 54
c66.667 0 135.167 -7.33301 205.5 -22s134.5 -35.667 192.5 -63l-63 -280h-49c-36 38 -82 69.5 -138 94.5s-119 37.5 -189 37.5c-76.667 0 -145.167 -19 -205.5 -57s-105.833 -96 -136.5 -174h511l-49 -223h-514c-0.666992 -6.66699 -1 -12.834 -1 -18.501v-15.5
c0 -75.333 22.667 -132.833 68 -172.5s109.666 -59.5 192.999 -59.5c75.333 0 144 12 206 36s120.333 57.333 175 100h49z" />
    <glyph glyph-name="yen" unicode="&#xa5;" 
d="M1607 1489l-693 -859l-13 -55h315l-50 -217h-313l-82 -358h-368l82 358h-313l50 217h315l9 36l-291 878h390l146 -532l384 532h432z" />
    <glyph glyph-name="yen" unicode="&#x490;" 
d="M1607 1489l-693 -859l-13 -55h315l-50 -217h-313l-82 -358h-368l82 358h-313l50 217h315l9 36l-291 878h390l146 -532l384 532h432z" />
    <glyph glyph-name="afii10103" unicode="&#xa6;" horiz-adv-x="700" 
d="M662 1123l-260 -1123h-362l260 1123h362zM772 1556l-63 -273h-382l63 273h382z" />
    <glyph glyph-name="afii10104" unicode="&#xa7;" horiz-adv-x="700" 
d="M662 1123l-260 -1123h-362l260 1123h362zM945 1556l-63 -273h-277l63 273h277zM486 1556l-63 -273h-277l63 273h277z" />
    <glyph glyph-name="dieresis" unicode="&#xa8;" 
d="M1316 1556l-63 -273h-297l63 273h297zM779 1556l-63 -273h-297l63 273h297z" />
    <glyph glyph-name="dieresis" unicode="&#x401;" 
d="M1316 1556l-63 -273h-297l63 273h297zM779 1556l-63 -273h-297l63 273h297z" />
    <glyph glyph-name="registered" unicode="&#xa9;" horiz-adv-x="1974" 
d="M1895 655c0 -238.667 -84.5 -442.5 -253.5 -611.5s-372.833 -253.5 -611.5 -253.5s-442.5 84.5 -611.5 253.5s-253.5 372.833 -253.5 611.5s84.5 442.5 253.5 611.5s372.833 253.5 611.5 253.5s442.5 -84.5 611.5 -253.5s253.5 -372.833 253.5 -611.5zM1704 655
c0 186 -65.833 345.667 -197.5 479s-290.5 200 -476.5 200s-344.833 -66.667 -476.5 -200s-197.5 -293 -197.5 -479s65.833 -345.667 197.5 -479s290.5 -200 476.5 -200s344.833 66.667 476.5 200s197.5 293 197.5 479zM1516 245l-271 0.00195312l-261 316h-86v-316h-212
v861h327c60.667 0 109.334 -2.33301 146.001 -7s73 -16.667 109 -36c39.333 -22 68.166 -48.667 86.499 -80s27.5 -70.333 27.5 -117c0 -62.667 -17.667 -114.334 -53 -155.001s-81.333 -72.334 -138 -95.001zM1146 850.002c0 18 -3.8291 34.501 -11.4961 49.501
s-20.5 27.167 -38.5 36.5c-16.667 9.33301 -35.834 15.166 -57.501 17.499s-46.167 3.5 -73.5 3.5h-67v-243h51c35.333 0 65.666 2.5 90.999 7.5s45.666 13.5 60.999 25.5c15.333 11.333 26.666 25.333 33.999 42s11 37 11 61z" />
    <glyph glyph-name="ordfeminine" unicode="&#xaa;" horiz-adv-x="1224" 
d="M1033 596l-280.004 0.000976562l21 96l-64 -43c-24.667 -16.667 -47.667 -29.667 -69 -39c-29.333 -12.667 -56.833 -22.167 -82.5 -28.5s-60.834 -9.5 -105.501 -9.5c-72.667 0 -132 21 -178 63s-69 96.667 -69 164c0 76 17.333 137.5 52 184.5
s82.334 84.833 143.001 113.5c58.667 27.333 128.834 47.166 210.501 59.499s173.5 21.5 275.5 27.5c0.666992 3.33301 1.83398 8.83301 3.50098 16.5s2.5 15.5 2.5 23.5c0 38 -17.167 64.667 -51.5 80s-85.5 23 -153.5 23c-46 0 -96.167 -7.83301 -150.5 -23.5
s-97.166 -29.167 -128.499 -40.5h-26l41 213c36.667 9.33301 86.334 19 149.001 29s132 15 208 15c130 0 229 -17.5 297 -52.5s102 -92.833 102 -173.5c0 -10.667 -0.833008 -24.167 -2.5 -40.5s-4.16699 -31.5 -7.5 -45.5zM847.996 1020
c-58.667 -5.33301 -106.333 -10.166 -143 -14.499s-72.667 -12.833 -108 -25.5c-30 -11.333 -53.833 -28 -71.5 -50s-26.5 -50.333 -26.5 -85c0 -28.667 9.83301 -49.834 29.5 -63.501s53.167 -20.5 100.5 -20.5c28 0 58 6.83301 90 20.5s61 30.167 87 49.5z" />
    <glyph glyph-name="ordfeminine" unicode="&#x404;" horiz-adv-x="1224" 
d="M1033 596l-280.004 0.000976562l21 96l-64 -43c-24.667 -16.667 -47.667 -29.667 -69 -39c-29.333 -12.667 -56.833 -22.167 -82.5 -28.5s-60.834 -9.5 -105.501 -9.5c-72.667 0 -132 21 -178 63s-69 96.667 -69 164c0 76 17.333 137.5 52 184.5
s82.334 84.833 143.001 113.5c58.667 27.333 128.834 47.166 210.501 59.499s173.5 21.5 275.5 27.5c0.666992 3.33301 1.83398 8.83301 3.50098 16.5s2.5 15.5 2.5 23.5c0 38 -17.167 64.667 -51.5 80s-85.5 23 -153.5 23c-46 0 -96.167 -7.83301 -150.5 -23.5
s-97.166 -29.167 -128.499 -40.5h-26l41 213c36.667 9.33301 86.334 19 149.001 29s132 15 208 15c130 0 229 -17.5 297 -52.5s102 -92.833 102 -173.5c0 -10.667 -0.833008 -24.167 -2.5 -40.5s-4.16699 -31.5 -7.5 -45.5zM847.996 1020
c-58.667 -5.33301 -106.333 -10.166 -143 -14.499s-72.667 -12.833 -108 -25.5c-30 -11.333 -53.833 -28 -71.5 -50s-26.5 -50.333 -26.5 -85c0 -28.667 9.83301 -49.834 29.5 -63.501s53.167 -20.5 100.5 -20.5c28 0 58 6.83301 90 20.5s61 30.167 87 49.5z" />
    <glyph glyph-name="guillemotleft" unicode="&#xab;" horiz-adv-x="1740" 
d="M1346 128l-495 463l31 135l708 462l-75 -327l-353 -223l251 -223zM719 128l-495 463l31 135l708 462l-75 -327l-353 -223l251 -223z" />
    <glyph glyph-name="logicalnot" unicode="&#xac;" horiz-adv-x="1776" 
d="M1560 29h-285v528h-1044v269h1329v-797z" />
    <glyph glyph-name="afii10098" unicode="&#xad;" horiz-adv-x="1088" 
d="M604 879l-202 -879h-362l259 1123h600l84 363h307l-140 -607h-546z" />
    <glyph glyph-name="afii10110" unicode="&#xae;" horiz-adv-x="1333" 
d="M454 -412h-395l286 434l-185 1101h368l97 -736l428 736h380zM1283 1621c-23.333 -116.667 -79.5 -207.332 -168.5 -271.999s-203.5 -97 -343.5 -97c-122.667 0 -216.667 25.667 -282 77s-98 122.333 -98 213c0 13.333 0.666992 26.166 2 38.499s3.33301 25.833 6 40.5
h278c-2.66699 -14 -4.5 -27.333 -5.5 -40s-1.5 -23.667 -1.5 -33c0 -42 10.5 -73.5 31.5 -94.5s55.167 -31.5 102.5 -31.5c60.667 0 106 17 136 51s51.667 83.333 65 148h278z" />
    <glyph glyph-name="macron" unicode="&#xaf;" 
d="M1766 1839l-48 -211h-1488l48 211h1488z" />
    <glyph glyph-name="macron" unicode="&#x407;" 
d="M1766 1839l-48 -211h-1488l48 211h1488z" />
    <glyph glyph-name="degree" unicode="&#xb0;" horiz-adv-x="1203" 
d="M1132 1102c0 -117.333 -40.833 -216.333 -122.5 -297s-181.5 -121 -299.5 -121s-217.833 40.333 -299.5 121s-122.5 179.667 -122.5 297s40.833 216.333 122.5 297s181.5 121 299.5 121c118.667 0 218.667 -40.333 300 -121s122 -179.667 122 -297zM904 1102
c0 54.667 -18.5 101.5 -55.5 140.5s-83.167 58.5 -138.5 58.5c-54.667 0 -100.667 -19.333 -138 -58s-56 -85.667 -56 -141c0 -56.667 18.833 -103.834 56.5 -141.501s83.5 -56.5 137.5 -56.5c55.333 0 101.5 19.333 138.5 58s55.5 85.334 55.5 140.001z" />
    <glyph glyph-name="plusminus" unicode="&#xb1;" horiz-adv-x="1776" 
d="M1578 0h-1340v268h534v416h-534v268h533v529h274v-529h533v-268h-534v-416h534v-268z" />
    <glyph glyph-name="twosuperior" unicode="&#xb2;" horiz-adv-x="1224" 
d="M1102 1271c0 -50 -8.66602 -95.501 -25.999 -136.501s-44 -78.833 -80 -113.5c-36.667 -36 -85.667 -74.833 -147 -116.5s-130 -85.834 -206 -132.501h412l-48 -206h-807l44 189c61.333 32.667 127.333 70.334 198 113.001s123 76.334 157 101.001
c64 45.333 110.5 84.5 139.5 117.5s43.5 69.5 43.5 109.5c0 35.333 -12.333 62.5 -37 81.5s-61 28.5 -109 28.5c-38 0 -76 -6.83301 -114 -20.5s-85.667 -35.167 -143 -64.5h-23l54 237c56 18 110.333 32.667 163 44s108 17 166 17c119.333 0 209.666 -21.667 270.999 -65
s92 -104.333 92 -183z" />
    <glyph glyph-name="twosuperior" unicode="&#x406;" horiz-adv-x="1224" 
d="M1102 1271c0 -50 -8.66602 -95.501 -25.999 -136.501s-44 -78.833 -80 -113.5c-36.667 -36 -85.667 -74.833 -147 -116.5s-130 -85.834 -206 -132.501h412l-48 -206h-807l44 189c61.333 32.667 127.333 70.334 198 113.001s123 76.334 157 101.001
c64 45.333 110.5 84.5 139.5 117.5s43.5 69.5 43.5 109.5c0 35.333 -12.333 62.5 -37 81.5s-61 28.5 -109 28.5c-38 0 -76 -6.83301 -114 -20.5s-85.667 -35.167 -143 -64.5h-23l54 237c56 18 110.333 32.667 163 44s108 17 166 17c119.333 0 209.666 -21.667 270.999 -65
s92 -104.333 92 -183z" />
    <glyph glyph-name="afii10023" unicode="&#xb3;" horiz-adv-x="1399" 
d="M1482 1489l-65 -282h-695l-62 -266h645l-66 -283h-645l-87 -376h695l-64 -282h-1079l344 1489h1079zM1430 1929l-63 -273h-297l63 273h297zM893 1929l-63 -273h-297l63 273h297z" />
    <glyph glyph-name="afii10023" unicode="&#x456;" horiz-adv-x="1399" 
d="M1482 1489l-65 -282h-695l-62 -266h645l-66 -283h-645l-87 -376h695l-64 -282h-1079l344 1489h1079zM1430 1929l-63 -273h-297l63 273h297zM893 1929l-63 -273h-297l63 273h297z" />
    <glyph glyph-name="afii10053" unicode="&#xb4;" horiz-adv-x="1519" 
d="M497 639c-1.33301 -12 -2.16602 -23.165 -2.49902 -33.498s-0.5 -18.833 -0.5 -25.5c0 -108.667 32.333 -192.834 97 -252.501s154 -89.5 268 -89.5c86 0 170.167 15.5 252.5 46.5s166.166 77.167 251.499 138.5h39l-76 -337c-112 -45.333 -210.5 -75.833 -295.5 -91.5
s-169.833 -23.5 -254.5 -23.5c-208 0 -369.667 51.5 -485 154.5s-173 245.833 -173 428.5c0 138 23.167 266 69.5 384s112.5 221 198.5 309c82 84 181.667 150.167 299 198.5s242.333 72.5 375 72.5c118.667 0 223.5 -11.833 314.5 -35.5s164.5 -49.834 220.5 -78.501
l-79 -336h-41c-73.333 68 -144.166 115.5 -212.499 142.5s-138.833 40.5 -211.5 40.5c-102.667 0 -198.834 -29.167 -288.501 -87.5s-155.5 -140.833 -197.5 -247.5h659l-62 -277h-665z" />
    <glyph glyph-name="afii10053" unicode="&#x491;" horiz-adv-x="1519" 
d="M497 639c-1.33301 -12 -2.16602 -23.165 -2.49902 -33.498s-0.5 -18.833 -0.5 -25.5c0 -108.667 32.333 -192.834 97 -252.501s154 -89.5 268 -89.5c86 0 170.167 15.5 252.5 46.5s166.166 77.167 251.499 138.5h39l-76 -337c-112 -45.333 -210.5 -75.833 -295.5 -91.5
s-169.833 -23.5 -254.5 -23.5c-208 0 -369.667 51.5 -485 154.5s-173 245.833 -173 428.5c0 138 23.167 266 69.5 384s112.5 221 198.5 309c82 84 181.667 150.167 299 198.5s242.333 72.5 375 72.5c118.667 0 223.5 -11.833 314.5 -35.5s164.5 -49.834 220.5 -78.501
l-79 -336h-41c-73.333 68 -144.166 115.5 -212.499 142.5s-138.833 40.5 -211.5 40.5c-102.667 0 -198.834 -29.167 -288.501 -87.5s-155.5 -140.833 -197.5 -247.5h659l-62 -277h-665z" />
    <glyph glyph-name="mu1" unicode="&#xb5;" horiz-adv-x="1477" 
d="M1177 0l-317.998 -0.000976562v80h-7c-40.667 -29.333 -78.334 -52.5 -113.001 -69.5s-75.334 -25.5 -122.001 -25.5c-42.667 0 -80.167 7.33301 -112.5 22s-61.5 36.334 -87.5 65.001l-112 -484h-362l355 1535h362l-185 -799
c26.667 -25.333 56.334 -42.666 89.001 -51.999s67 -14 103 -14c33.333 0 70.166 5.16699 110.499 15.5s77.833 27.166 112.5 50.499l185 799h362z" />
    <glyph glyph-name="afii10055" unicode="&#xb6;" horiz-adv-x="1118" 
d="M865 0h-872l61 264h243l222 961h-243l61 264h872l-61 -264h-243l-222 -961h243z" />
    <glyph glyph-name="afii10056" unicode="&#xb7;" horiz-adv-x="1118" 
d="M865 0h-872l61 264h243l222 961h-243l61 264h872l-61 -264h-243l-222 -961h243zM1286 1929l-63 -273h-297l63 273h297zM749 1929l-63 -273h-297l63 273h297z" />
    <glyph glyph-name="afii10056" unicode="&#x2219;" horiz-adv-x="1118" 
d="M865 0h-872l61 264h243l222 961h-243l61 264h872l-61 -264h-243l-222 -961h243zM1286 1929l-63 -273h-297l63 273h297zM749 1929l-63 -273h-297l63 273h297z" />
    <glyph glyph-name="cedilla" unicode="&#xb8;" 
d="M890 20c-11.333 -156.667 -55.3311 -269.667 -131.998 -339s-186.334 -104 -329.001 -104c-25.333 0 -60.833 2.33301 -106.5 7s-79.5 10.334 -101.5 17.001l46 200h23c16.667 -8 37.667 -15.833 63 -23.5s54.333 -11.5 87 -11.5c26 0 52.5 3.5 79.5 10.5
s48.833 19.167 65.5 36.5c20 20 36.167 45.167 48.5 75.5s20.166 74.166 23.499 131.499h233z" />
    <glyph glyph-name="cedilla" unicode="&#x451;" 
d="M890 20c-11.333 -156.667 -55.3311 -269.667 -131.998 -339s-186.334 -104 -329.001 -104c-25.333 0 -60.833 2.33301 -106.5 7s-79.5 10.334 -101.5 17.001l46 200h23c16.667 -8 37.667 -15.833 63 -23.5s54.333 -11.5 87 -11.5c26 0 52.5 3.5 79.5 10.5
s48.833 19.167 65.5 36.5c20 20 36.167 45.167 48.5 75.5s20.166 74.166 23.499 131.499h233z" />
    <glyph glyph-name="afii61352" unicode="&#xb9;" horiz-adv-x="2650" 
d="M1266 0h-350l-283 1018l-235 -1018h-338l343 1489h449l227 -833l192 833h338zM2310 180h-698l47 204h698zM2645 1163c0 -83.333 -13.833 -162.334 -41.5 -237.001s-66.167 -138 -115.5 -190c-51.333 -54 -112.166 -96 -182.5 -126c-70.333 -30 -150.166 -45 -239.5 -45
c-134 0 -234.833 32.667 -302.5 98s-101.5 153.333 -101.5 264c0 85.333 13.833 163.333 41.5 234s65.167 132.334 112.5 185.001c48.667 53.333 109.167 95.666 181.5 126.999s153.166 47 242.5 47c131.333 0 231.666 -31.667 301 -95
c69.333 -63.333 104 -150.666 104 -261.999zM2353 1153c0 62.667 -13.333 106.833 -40 132.5s-62.334 38.5 -107 38.5c-75.333 0 -136.166 -37.833 -182.5 -113.5c-46.333 -75.667 -69.5 -168.167 -69.5 -277.5c0 -62 13.333 -106.167 40 -132.5s63 -39.5 109 -39.5
c69.333 0 128.333 36 177 108s73 166.667 73 284z" />
    <glyph glyph-name="afii61352" unicode="&#x2116;" horiz-adv-x="2650" 
d="M1266 0h-350l-283 1018l-235 -1018h-338l343 1489h449l227 -833l192 833h338zM2310 180h-698l47 204h698zM2645 1163c0 -83.333 -13.833 -162.334 -41.5 -237.001s-66.167 -138 -115.5 -190c-51.333 -54 -112.166 -96 -182.5 -126c-70.333 -30 -150.166 -45 -239.5 -45
c-134 0 -234.833 32.667 -302.5 98s-101.5 153.333 -101.5 264c0 85.333 13.833 163.333 41.5 234s65.167 132.334 112.5 185.001c48.667 53.333 109.167 95.666 181.5 126.999s153.166 47 242.5 47c131.333 0 231.666 -31.667 301 -95
c69.333 -63.333 104 -150.666 104 -261.999zM2353 1153c0 62.667 -13.333 106.833 -40 132.5s-62.334 38.5 -107 38.5c-75.333 0 -136.166 -37.833 -182.5 -113.5c-46.333 -75.667 -69.5 -168.167 -69.5 -277.5c0 -62 13.333 -106.167 40 -132.5s63 -39.5 109 -39.5
c69.333 0 128.333 36 177 108s73 166.667 73 284z" />
    <glyph glyph-name="ordmasculine" unicode="&#xba;" horiz-adv-x="1224" 
d="M611 565c-134 0 -234.833 32.666 -302.5 97.999s-101.5 153.333 -101.5 264c0 85.333 13.833 163.333 41.5 234s65.167 132.334 112.5 185.001c48.667 53.333 109.167 95.666 181.5 126.999s153.166 47 242.499 47c131.333 0 231.666 -31.667 300.999 -95
s104 -150.666 104 -261.999c0 -83.333 -13.833 -162.333 -41.5 -237s-66.167 -138 -115.5 -190c-51.333 -54 -112.166 -96 -182.499 -126s-150.166 -45 -239.499 -45zM898 1153c0 62.667 -13.333 106.833 -40 132.5s-62.334 38.5 -107.001 38.5
c-75.333 0 -136.166 -37.833 -182.499 -113.5s-69.5 -168.167 -69.5 -277.5c0 -62 13.333 -106.167 40 -132.5s63 -39.5 109 -39.5c69.333 0 128.333 36 177 108s73 166.667 73 284z" />
    <glyph glyph-name="ordmasculine" unicode="&#x454;" horiz-adv-x="1224" 
d="M611 565c-134 0 -234.833 32.666 -302.5 97.999s-101.5 153.333 -101.5 264c0 85.333 13.833 163.333 41.5 234s65.167 132.334 112.5 185.001c48.667 53.333 109.167 95.666 181.5 126.999s153.166 47 242.499 47c131.333 0 231.666 -31.667 300.999 -95
s104 -150.666 104 -261.999c0 -83.333 -13.833 -162.333 -41.5 -237s-66.167 -138 -115.5 -190c-51.333 -54 -112.166 -96 -182.499 -126s-150.166 -45 -239.499 -45zM898 1153c0 62.667 -13.333 106.833 -40 132.5s-62.334 38.5 -107.001 38.5
c-75.333 0 -136.166 -37.833 -182.499 -113.5s-69.5 -168.167 -69.5 -277.5c0 -62 13.333 -106.167 40 -132.5s63 -39.5 109 -39.5c69.333 0 128.333 36 177 108s73 166.667 73 284z" />
    <glyph glyph-name="guillemotright" unicode="&#xbb;" horiz-adv-x="1740" 
d="M1529 590l-708 -462l75 327l353 223l-251 223l67 287l495 -463zM902 590l-708 -462l75 327l353 223l-251 223l67 287l495 -463z" />
    <glyph glyph-name="afii10105" unicode="&#xbc;" horiz-adv-x="825" 
d="M787 1123l-259.001 -1119c-30.667 -130.667 -90.167 -234.5 -178.5 -311.5s-201.5 -115.5 -339.5 -115.5c-67.333 0 -125.666 2.66699 -174.999 8s-87.666 11.333 -114.999 18l59 258h28c22 -8 44.167 -14 66.5 -18s47.166 -6 74.499 -6
c63.333 0.666992 113 17.5 149 50.5s63 89.167 81 168.5l190 823h-213l57 244h575zM883.999 1556l-63 -273h-382l63 273h382z" />
    <glyph glyph-name="afii10105" unicode="&#x458;" horiz-adv-x="825" 
d="M787 1123l-259.001 -1119c-30.667 -130.667 -90.167 -234.5 -178.5 -311.5s-201.5 -115.5 -339.5 -115.5c-67.333 0 -125.666 2.66699 -174.999 8s-87.666 11.333 -114.999 18l59 258h28c22 -8 44.167 -14 66.5 -18s47.166 -6 74.499 -6
c63.333 0.666992 113 17.5 149 50.5s63 89.167 81 168.5l190 823h-213l57 244h575zM883.999 1556l-63 -273h-382l63 273h382z" />
    <glyph glyph-name="afii10050" unicode="&#xbd;" horiz-adv-x="1305" 
d="M722 1201l-277 -1201h-386l344 1489h733l95 410h341l-162 -698h-688z" />
    <glyph glyph-name="afii10050" unicode="&#x405;" horiz-adv-x="1305" 
d="M722 1201l-277 -1201h-386l344 1489h733l95 410h341l-162 -698h-688z" />
    <glyph glyph-name="afii10062" unicode="&#xbe;" horiz-adv-x="1509" 
d="M1714 1489l-817 -1191c-48.667 -70 -97.667 -125.667 -147 -167s-98.333 -72.333 -147 -93c-48 -20.667 -93.833 -33.834 -137.5 -39.501s-86.5 -8.5 -128.5 -8.5c-46 0 -101.167 1.16699 -165.5 3.5s-106.166 4.5 -125.499 6.5l73 319h23
c13.333 -4 39.666 -8.16699 78.999 -12.5s71.333 -6.5 96 -6.5c62.667 0 116.667 8 162 24s75 36.333 89 61l-345 1104h395l212 -733l475 733h409zM1559 1980c-24.667 -125.333 -91.6699 -223.004 -201.003 -293.004s-247.666 -105 -414.999 -105
c-148.667 0 -263.167 27.833 -343.5 83.5s-120.5 134.834 -120.5 237.501c0 14.667 0.833008 28.167 2.5 40.5s3.5 24.5 5.5 36.5h336c-2.66699 -13.333 -4.5 -26.166 -5.5 -38.499s-1.5 -23.166 -1.5 -32.499c0 -47.333 12.333 -82.166 37 -104.499
s67.334 -33.5 128.001 -33.5c73.333 0 128.333 17.167 165 51.5s62.334 86.833 77.001 157.5h336z" />
    <glyph glyph-name="afii10062" unicode="&#x455;" horiz-adv-x="1509" 
d="M1714 1489l-817 -1191c-48.667 -70 -97.667 -125.667 -147 -167s-98.333 -72.333 -147 -93c-48 -20.667 -93.833 -33.834 -137.5 -39.501s-86.5 -8.5 -128.5 -8.5c-46 0 -101.167 1.16699 -165.5 3.5s-106.166 4.5 -125.499 6.5l73 319h23
c13.333 -4 39.666 -8.16699 78.999 -12.5s71.333 -6.5 96 -6.5c62.667 0 116.667 8 162 24s75 36.333 89 61l-345 1104h395l212 -733l475 733h409zM1559 1980c-24.667 -125.333 -91.6699 -223.004 -201.003 -293.004s-247.666 -105 -414.999 -105
c-148.667 0 -263.167 27.833 -343.5 83.5s-120.5 134.834 -120.5 237.501c0 14.667 0.833008 28.167 2.5 40.5s3.5 24.5 5.5 36.5h336c-2.66699 -13.333 -4.5 -26.166 -5.5 -38.499s-1.5 -23.166 -1.5 -32.499c0 -47.333 12.333 -82.166 37 -104.499
s67.334 -33.5 128.001 -33.5c73.333 0 128.333 17.167 165 51.5s62.334 86.833 77.001 157.5h336z" />
    <glyph glyph-name="copyright" unicode="&#xbf;" horiz-adv-x="1974" 
d="M1895 655c0 -238.667 -84.5 -442.5 -253.5 -611.5s-372.833 -253.5 -611.5 -253.5s-442.5 84.5 -611.5 253.5s-253.5 372.833 -253.5 611.5s84.5 442.5 253.5 611.5s372.833 253.5 611.5 253.5s442.5 -84.5 611.5 -253.5s253.5 -372.833 253.5 -611.5zM1704 655
c0 186 -65.833 345.667 -197.5 479s-290.5 200 -476.5 200s-344.833 -66.667 -476.5 -200s-197.5 -293 -197.5 -479s65.833 -345.667 197.5 -479s290.5 -200 476.5 -200s344.833 66.667 476.5 200s197.5 293 197.5 479zM1364 277c-52 -24 -101.999 -42.001 -149.999 -54.001
s-94 -18 -138 -18c-148 0 -264.333 41.5 -349 124.5s-127 193.167 -127 330.5c0 138 44.5 248.833 133.5 332.5s203.167 125.5 342.5 125.5c53.333 0 104.666 -7 153.999 -21s94 -30.667 134 -50v-206h-21c-49.333 36 -95 61.833 -137 77.5s-84 23.5 -126 23.5
c-75.333 0 -132.5 -23.667 -171.5 -71s-58.5 -117.666 -58.5 -210.999c0 -90 20.167 -159 60.5 -207s96.833 -72 169.5 -72c54 0 104.167 10.833 150.5 32.5s83.833 44.5 112.5 68.5h21v-205z" />
    <glyph glyph-name="copyright" unicode="&#x457;" horiz-adv-x="1974" 
d="M1895 655c0 -238.667 -84.5 -442.5 -253.5 -611.5s-372.833 -253.5 -611.5 -253.5s-442.5 84.5 -611.5 253.5s-253.5 372.833 -253.5 611.5s84.5 442.5 253.5 611.5s372.833 253.5 611.5 253.5s442.5 -84.5 611.5 -253.5s253.5 -372.833 253.5 -611.5zM1704 655
c0 186 -65.833 345.667 -197.5 479s-290.5 200 -476.5 200s-344.833 -66.667 -476.5 -200s-197.5 -293 -197.5 -479s65.833 -345.667 197.5 -479s290.5 -200 476.5 -200s344.833 66.667 476.5 200s197.5 293 197.5 479zM1364 277c-52 -24 -101.999 -42.001 -149.999 -54.001
s-94 -18 -138 -18c-148 0 -264.333 41.5 -349 124.5s-127 193.167 -127 330.5c0 138 44.5 248.833 133.5 332.5s203.167 125.5 342.5 125.5c53.333 0 104.666 -7 153.999 -21s94 -30.667 134 -50v-206h-21c-49.333 36 -95 61.833 -137 77.5s-84 23.5 -126 23.5
c-75.333 0 -132.5 -23.667 -171.5 -71s-58.5 -117.666 -58.5 -210.999c0 -90 20.167 -159 60.5 -207s96.833 -72 169.5 -72c54 0 104.167 10.833 150.5 32.5s83.833 44.5 112.5 68.5h21v-205z" />
    <glyph glyph-name="afii10096" unicode="&#xc0;" horiz-adv-x="2036" 
d="M1595 699c0 70 -15.167 123.168 -45.5 159.501s-78.5 54.5 -144.5 54.5c-50.667 0 -95.167 -12.333 -133.5 -37s-72.5 -59.667 -102.5 -105c-27.333 -42 -48.833 -94 -64.5 -156s-23.5 -125.667 -23.5 -191c0 -76.667 17.167 -131.5 51.5 -164.5
s81.166 -49.5 140.499 -49.5c44 0 86.167 11.833 126.5 35.5s74.5 56.5 102.5 98.5c30.667 46.667 53.834 97.667 69.501 153s23.5 122.666 23.5 201.999zM1967 712.001c0 -104 -17.499 -202.334 -52.499 -295.001s-83.833 -172 -146.5 -238
c-64.667 -67.333 -141.334 -119.833 -230.001 -157.5s-189.334 -56.5 -302.001 -56.5c-162.667 0 -288.5 39.5 -377.5 118.5s-133.5 190.833 -133.5 335.5c0 13.333 0.333008 25.5 1 36.5s1.33398 21.167 2.00098 30.5h-214l-112 -486h-362l259 1123h361l-90 -394h215
c26 64 60.5 122.333 103.5 175s91.833 97.334 146.5 134.001c56 38 120 67.5 192 88.5s148.333 31.5 229 31.5c165.333 0 291.833 -39.667 379.5 -119s131.5 -188.333 131.5 -327z" />
    <glyph glyph-name="afii10096" unicode="&#x410;" horiz-adv-x="2036" 
d="M1595 699c0 70 -15.167 123.168 -45.5 159.501s-78.5 54.5 -144.5 54.5c-50.667 0 -95.167 -12.333 -133.5 -37s-72.5 -59.667 -102.5 -105c-27.333 -42 -48.833 -94 -64.5 -156s-23.5 -125.667 -23.5 -191c0 -76.667 17.167 -131.5 51.5 -164.5
s81.166 -49.5 140.499 -49.5c44 0 86.167 11.833 126.5 35.5s74.5 56.5 102.5 98.5c30.667 46.667 53.834 97.667 69.501 153s23.5 122.666 23.5 201.999zM1967 712.001c0 -104 -17.499 -202.334 -52.499 -295.001s-83.833 -172 -146.5 -238
c-64.667 -67.333 -141.334 -119.833 -230.001 -157.5s-189.334 -56.5 -302.001 -56.5c-162.667 0 -288.5 39.5 -377.5 118.5s-133.5 190.833 -133.5 335.5c0 13.333 0.333008 25.5 1 36.5s1.33398 21.167 2.00098 30.5h-214l-112 -486h-362l259 1123h361l-90 -394h215
c26 64 60.5 122.333 103.5 175s91.833 97.334 146.5 134.001c56 38 120 67.5 192 88.5s148.333 31.5 229 31.5c165.333 0 291.833 -39.667 379.5 -119s131.5 -188.333 131.5 -327z" />
    <glyph glyph-name="afii10065" unicode="&#xc1;" horiz-adv-x="1368" 
d="M843 530c-64 -5.33301 -123.998 -11.6641 -179.998 -18.9971s-103.667 -18 -143 -32c-40.667 -14.667 -71.667 -35.334 -93 -62.001s-32 -62 -32 -106c0 -38.667 14.167 -65.834 42.5 -81.501s69.5 -23.5 123.5 -23.5c35.333 0 73.166 8.16699 113.499 24.5
s78.166 37.166 113.499 62.499zM748.002 119.002l-82 -53.002c-32 -20.667 -61.667 -37 -89 -49c-37.333 -15.333 -72.333 -27 -105 -35s-78 -12 -136 -12c-93.333 0 -169.5 26.167 -228.5 78.5s-88.5 120.5 -88.5 204.5c0 88.667 21 163.834 63 225.501
s104.333 110.834 187 147.501c77.333 34.667 169.5 59.667 276.5 75s222.833 26.666 347.5 33.999c0.666992 4 2 10.5 4 19.5s3 19.167 3 30.5c0 47.333 -22 80.5 -66 99.5s-109.667 28.5 -197 28.5c-59.333 0 -124.833 -10 -196.5 -30s-125.5 -36.667 -161.5 -50h-33
l53 266c42 10.667 107 22.667 195 36s175.667 20 263 20c176 0 305.167 -23 387.5 -69s123.5 -117.333 123.5 -214c0 -13.333 -1.16699 -30.666 -3.5 -51.999s-5.5 -40 -9.5 -56l-176 -764h-358z" />
    <glyph glyph-name="afii10065" unicode="&#x411;" horiz-adv-x="1368" 
d="M843 530c-64 -5.33301 -123.998 -11.6641 -179.998 -18.9971s-103.667 -18 -143 -32c-40.667 -14.667 -71.667 -35.334 -93 -62.001s-32 -62 -32 -106c0 -38.667 14.167 -65.834 42.5 -81.501s69.5 -23.5 123.5 -23.5c35.333 0 73.166 8.16699 113.499 24.5
s78.166 37.166 113.499 62.499zM748.002 119.002l-82 -53.002c-32 -20.667 -61.667 -37 -89 -49c-37.333 -15.333 -72.333 -27 -105 -35s-78 -12 -136 -12c-93.333 0 -169.5 26.167 -228.5 78.5s-88.5 120.5 -88.5 204.5c0 88.667 21 163.834 63 225.501
s104.333 110.834 187 147.501c77.333 34.667 169.5 59.667 276.5 75s222.833 26.666 347.5 33.999c0.666992 4 2 10.5 4 19.5s3 19.167 3 30.5c0 47.333 -22 80.5 -66 99.5s-109.667 28.5 -197 28.5c-59.333 0 -124.833 -10 -196.5 -30s-125.5 -36.667 -161.5 -50h-33
l53 266c42 10.667 107 22.667 195 36s175.667 20 263 20c176 0 305.167 -23 387.5 -69s123.5 -117.333 123.5 -214c0 -13.333 -1.16699 -30.666 -3.5 -51.999s-5.5 -40 -9.5 -56l-176 -764h-358z" />
    <glyph glyph-name="afii10066" unicode="&#xc2;" horiz-adv-x="1427" 
d="M1235 972c38 -32.667 68.0049 -73.1611 90.0049 -121.494s33 -106.166 33 -173.499c0 -100.667 -17.333 -194.834 -52 -282.501s-85 -163.5 -151 -227.5c-64 -63.333 -140.667 -112.833 -230 -148.5s-188.333 -53.5 -297 -53.5
c-166.667 0 -293.834 43.167 -381.501 129.5s-131.5 211.166 -131.5 374.499c0 74.667 7.66699 152.667 23 234s39 164.666 71 249.999c31.333 83.333 69.666 160.666 114.999 231.999s98.666 131.666 159.999 180.999c66.667 54 145 94.333 235 121s188.667 45 296 55
c65.333 6 142.5 11 231.5 15s160.167 6.66699 213.5 8l-51 -261l-126.5 -5.5c-37.667 -1.66699 -79.834 -4.16699 -126.501 -7.5c-166.667 -12 -279.667 -27.333 -339 -46s-106.333 -45.334 -141 -80.001c-24 -23.333 -45.333 -52.333 -64 -87s-35 -76.667 -49 -126
c60.667 35.333 123.167 63.666 187.5 84.999s129.166 32 194.499 32c58 0 111.167 -7.83301 159.5 -23.5s91.833 -40.167 130.5 -73.5zM982.005 591.006c0 63.333 -18.335 115.334 -55.002 156.001s-88.667 61 -156 61c-38.667 0 -77.667 -3.5 -117 -10.5
s-83.666 -21.833 -132.999 -44.5c-13.333 -44.667 -23.833 -95.167 -31.5 -151.5s-11.5 -108.5 -11.5 -156.5c0 -76 18.833 -134.167 56.5 -174.5s86.5 -60.5 146.5 -60.5c28 0 60.833 8.16699 98.5 24.5s70.167 38.833 97.5 67.5
c32.667 35.333 58.334 76.666 77.001 123.999s28 102.333 28 165z" />
    <glyph glyph-name="afii10066" unicode="&#x412;" horiz-adv-x="1427" 
d="M1235 972c38 -32.667 68.0049 -73.1611 90.0049 -121.494s33 -106.166 33 -173.499c0 -100.667 -17.333 -194.834 -52 -282.501s-85 -163.5 -151 -227.5c-64 -63.333 -140.667 -112.833 -230 -148.5s-188.333 -53.5 -297 -53.5
c-166.667 0 -293.834 43.167 -381.501 129.5s-131.5 211.166 -131.5 374.499c0 74.667 7.66699 152.667 23 234s39 164.666 71 249.999c31.333 83.333 69.666 160.666 114.999 231.999s98.666 131.666 159.999 180.999c66.667 54 145 94.333 235 121s188.667 45 296 55
c65.333 6 142.5 11 231.5 15s160.167 6.66699 213.5 8l-51 -261l-126.5 -5.5c-37.667 -1.66699 -79.834 -4.16699 -126.501 -7.5c-166.667 -12 -279.667 -27.333 -339 -46s-106.333 -45.334 -141 -80.001c-24 -23.333 -45.333 -52.333 -64 -87s-35 -76.667 -49 -126
c60.667 35.333 123.167 63.666 187.5 84.999s129.166 32 194.499 32c58 0 111.167 -7.83301 159.5 -23.5s91.833 -40.167 130.5 -73.5zM982.005 591.006c0 63.333 -18.335 115.334 -55.002 156.001s-88.667 61 -156 61c-38.667 0 -77.667 -3.5 -117 -10.5
s-83.666 -21.833 -132.999 -44.5c-13.333 -44.667 -23.833 -95.167 -31.5 -151.5s-11.5 -108.5 -11.5 -156.5c0 -76 18.833 -134.167 56.5 -174.5s86.5 -60.5 146.5 -60.5c28 0 60.833 8.16699 98.5 24.5s70.167 38.833 97.5 67.5
c32.667 35.333 58.334 76.666 77.001 123.999s28 102.333 28 165z" />
    <glyph glyph-name="afii10088" unicode="&#xc3;" horiz-adv-x="1493" 
d="M966 0h-926l259 1123h362l-203 -881h409l203 881h362l-203 -881h116l-120 -520h-323z" />
    <glyph glyph-name="afii10088" unicode="&#x413;" horiz-adv-x="1493" 
d="M966 0h-926l259 1123h362l-203 -881h409l203 881h362l-203 -881h116l-120 -520h-323z" />
    <glyph glyph-name="afii10069" unicode="&#xc4;" horiz-adv-x="1416" 
d="M1148 -278l-322.998 -0.000976562l65 282h-660l-65 -282h-323l119 520h93c73.333 103.333 143.666 233.333 210.999 390s120.666 320.334 159.999 491.001h930l-203 -881h116zM791.002 241.999l147.999 637.002h-245c-38 -118.667 -84.167 -235.334 -138.5 -350.001
s-109.166 -210.334 -164.499 -287.001h400z" />
    <glyph glyph-name="afii10069" unicode="&#x414;" horiz-adv-x="1416" 
d="M1148 -278l-322.998 -0.000976562l65 282h-660l-65 -282h-323l119 520h93c73.333 103.333 143.666 233.333 210.999 390s120.666 320.334 159.999 491.001h930l-203 -881h116zM791.002 241.999l147.999 637.002h-245c-38 -118.667 -84.167 -235.334 -138.5 -350.001
s-109.166 -210.334 -164.499 -287.001h400z" />
    <glyph glyph-name="afii10070" unicode="&#xc5;" horiz-adv-x="1360" 
d="M949 706c2 12 3.5 23 4.5 33s1.5 20.333 1.5 31c0 52.667 -16.333 93 -49 121s-79.667 42 -141 42c-74 0 -136.167 -20 -186.5 -60s-88.5 -95.667 -114.5 -167h485zM674 -30c-191.333 0 -339.002 42.3311 -443.002 126.998s-156 201.667 -156 351
c0 102 17 195.667 51 281s83 160.333 147 225c61.333 62.667 138 112.334 230 149.001s193 55 303 55c167.333 0 293.5 -33.833 378.5 -101.5s127.5 -167.5 127.5 -299.5c0 -45.333 -4.5 -89.666 -13.5 -132.999s-20.833 -86.333 -35.5 -129h-834v-11.5v-11.5
c0 -78 27.333 -139 82 -183s138.334 -66 251.001 -66c78.667 0 153.167 13.333 223.5 40s131.5 56.334 183.5 89.001h40l-67 -289c-70 -30.667 -143.667 -53.834 -221 -69.501s-159.666 -23.5 -246.999 -23.5z" />
    <glyph glyph-name="afii10070" unicode="&#x415;" horiz-adv-x="1360" 
d="M949 706c2 12 3.5 23 4.5 33s1.5 20.333 1.5 31c0 52.667 -16.333 93 -49 121s-79.667 42 -141 42c-74 0 -136.167 -20 -186.5 -60s-88.5 -95.667 -114.5 -167h485zM674 -30c-191.333 0 -339.002 42.3311 -443.002 126.998s-156 201.667 -156 351
c0 102 17 195.667 51 281s83 160.333 147 225c61.333 62.667 138 112.334 230 149.001s193 55 303 55c167.333 0 293.5 -33.833 378.5 -101.5s127.5 -167.5 127.5 -299.5c0 -45.333 -4.5 -89.666 -13.5 -132.999s-20.833 -86.333 -35.5 -129h-834v-11.5v-11.5
c0 -78 27.333 -139 82 -183s138.334 -66 251.001 -66c78.667 0 153.167 13.333 223.5 40s131.5 56.334 183.5 89.001h40l-67 -289c-70 -30.667 -143.667 -53.834 -221 -69.501s-159.666 -23.5 -246.999 -23.5z" />
    <glyph glyph-name="afii10086" unicode="&#xc6;" horiz-adv-x="1978" 
d="M1921 758c0 -117.333 -18.6699 -223.831 -56.0029 -319.498s-86.333 -176.834 -147 -243.501s-129.5 -118.334 -206.5 -155.001s-156.167 -55 -237.5 -55c-56 0 -102.333 6.5 -139 19.5s-65 26.167 -85 39.5l-105 -456h-358l105 454
c-22.667 -12.667 -55 -25.334 -97 -38.001s-91 -19 -147 -19c-120.667 0 -215.167 34.5 -283.5 103.5s-102.5 162.833 -102.5 281.5c0 116 18.333 221.833 55 317.5s86 177.834 148 246.501c61.333 68 131 119.833 209 155.5s156.333 53.5 235 53.5
c55.333 0 100.833 -6.33301 136.5 -19s64.834 -26 87.501 -40l109 472h358l-109 -471c22.667 10.667 57.334 23 104.001 37s93.334 21 140.001 21c120.667 0 215.167 -34.5 283.5 -103.5s102.5 -162.833 102.5 -281.5zM1546 689.002
c0 66.667 -17.668 117.666 -53.001 152.999s-88.333 53 -159 53c-18.667 0 -35.167 -1 -49.5 -3s-27.5 -4 -39.5 -6l-149 -643c14 -2.66699 27.833 -4.66699 41.5 -6s29.834 -2 48.501 -2c54.667 0 104.667 11.667 150 35s83 55.333 113 96
c30.667 40.667 54.5 88.334 71.5 143.001s25.5 114.667 25.5 180zM737.996 242.001l148.999 643c-12 2.66699 -26.667 4.66699 -44 6s-32.666 2 -45.999 2c-54.667 0 -104 -11.5 -148 -34.5s-82.333 -55.167 -115 -96.5c-30 -38.667 -53.667 -86.834 -71 -144.501
s-26 -117.167 -26 -178.5c0 -66.667 17.667 -117.667 53 -153s88.333 -53 159 -53c13.333 0 28.5 0.833008 45.5 2.5s31.5 3.83398 43.5 6.50098z" />
    <glyph glyph-name="afii10086" unicode="&#x416;" horiz-adv-x="1978" 
d="M1921 758c0 -117.333 -18.6699 -223.831 -56.0029 -319.498s-86.333 -176.834 -147 -243.501s-129.5 -118.334 -206.5 -155.001s-156.167 -55 -237.5 -55c-56 0 -102.333 6.5 -139 19.5s-65 26.167 -85 39.5l-105 -456h-358l105 454
c-22.667 -12.667 -55 -25.334 -97 -38.001s-91 -19 -147 -19c-120.667 0 -215.167 34.5 -283.5 103.5s-102.5 162.833 -102.5 281.5c0 116 18.333 221.833 55 317.5s86 177.834 148 246.501c61.333 68 131 119.833 209 155.5s156.333 53.5 235 53.5
c55.333 0 100.833 -6.33301 136.5 -19s64.834 -26 87.501 -40l109 472h358l-109 -471c22.667 10.667 57.334 23 104.001 37s93.334 21 140.001 21c120.667 0 215.167 -34.5 283.5 -103.5s102.5 -162.833 102.5 -281.5zM1546 689.002
c0 66.667 -17.668 117.666 -53.001 152.999s-88.333 53 -159 53c-18.667 0 -35.167 -1 -49.5 -3s-27.5 -4 -39.5 -6l-149 -643c14 -2.66699 27.833 -4.66699 41.5 -6s29.834 -2 48.501 -2c54.667 0 104.667 11.667 150 35s83 55.333 113 96
c30.667 40.667 54.5 88.334 71.5 143.001s25.5 114.667 25.5 180zM737.996 242.001l148.999 643c-12 2.66699 -26.667 4.66699 -44 6s-32.666 2 -45.999 2c-54.667 0 -104 -11.5 -148 -34.5s-82.333 -55.167 -115 -96.5c-30 -38.667 -53.667 -86.834 -71 -144.501
s-26 -117.167 -26 -178.5c0 -66.667 17.667 -117.667 53 -153s88.333 -53 159 -53c13.333 0 28.5 0.833008 45.5 2.5s31.5 3.83398 43.5 6.50098z" />
    <glyph glyph-name="afii10068" unicode="&#xc7;" horiz-adv-x="1088" 
d="M1150 879h-546l-202 -879h-362l259 1123h908z" />
    <glyph glyph-name="afii10068" unicode="&#x417;" horiz-adv-x="1088" 
d="M1150 879h-546l-202 -879h-362l259 1123h908z" />
    <glyph glyph-name="afii10087" unicode="&#xc8;" horiz-adv-x="1370" 
d="M479 571l-316 552h388l179 -342l323 342h416l-575 -563l320 -560h-388l-181 346l-334 -346h-415z" />
    <glyph glyph-name="afii10087" unicode="&#x418;" horiz-adv-x="1370" 
d="M479 571l-316 552h388l179 -342l323 342h416l-575 -563l320 -560h-388l-181 346l-334 -346h-415z" />
    <glyph glyph-name="afii10074" unicode="&#xc9;" horiz-adv-x="1480" 
d="M1181 0h-350l157 677l-650 -677h-298l259 1123h349l-141 -605l598 605h335z" />
    <glyph glyph-name="afii10074" unicode="&#x419;" horiz-adv-x="1480" 
d="M1181 0h-350l157 677l-650 -677h-298l259 1123h349l-141 -605l598 605h335z" />
    <glyph glyph-name="afii10075" unicode="&#xca;" horiz-adv-x="1480" 
d="M1181 0h-350l157 677l-650 -677h-298l259 1123h349l-141 -605l598 605h335zM1366 1621c-23.333 -116.667 -79.5 -207.332 -168.5 -271.999s-203.5 -97 -343.5 -97c-122.667 0 -216.667 25.667 -282 77s-98 122.333 -98 213c0 13.333 0.666992 26.166 2 38.499
s3.33301 25.833 6 40.5h278c-2.66699 -14 -4.5 -27.333 -5.5 -40s-1.5 -23.667 -1.5 -33c0 -42 10.5 -73.5 31.5 -94.5s55.167 -31.5 102.5 -31.5c60.667 0 106 17 136 51s51.667 83.333 65 148h278z" />
    <glyph glyph-name="afii10075" unicode="&#x41a;" horiz-adv-x="1480" 
d="M1181 0h-350l157 677l-650 -677h-298l259 1123h349l-141 -605l598 605h335zM1366 1621c-23.333 -116.667 -79.5 -207.332 -168.5 -271.999s-203.5 -97 -343.5 -97c-122.667 0 -216.667 25.667 -282 77s-98 122.333 -98 213c0 13.333 0.666992 26.166 2 38.499
s3.33301 25.833 6 40.5h278c-2.66699 -14 -4.5 -27.333 -5.5 -40s-1.5 -23.667 -1.5 -33c0 -42 10.5 -73.5 31.5 -94.5s55.167 -31.5 102.5 -31.5c60.667 0 106 17 136 51s51.667 83.333 65 148h278z" />
    <glyph glyph-name="afii10076" unicode="&#xcb;" horiz-adv-x="1374" 
d="M1245 0l-379.001 -0.00292969l-200 448h-161l-103 -448h-362l259 1123h362l-105 -454c65.333 0.666992 111 8.33398 137 23.001s63 52.334 111 113.001l50 66.5l47 63.5c44 59.333 94 105.833 150 139.5s131.333 50.5 226 50.5c26.667 0 55.334 -0.333008 86.001 -1
s51.334 -1 62.001 -1l-66 -289h-90c-36 0 -67.333 -9.5 -94 -28.5s-55.334 -51.5 -86.001 -97.5c-30 -43.333 -51.167 -72.166 -63.5 -86.499s-30.5 -28.833 -54.5 -43.5z" />
    <glyph glyph-name="afii10076" unicode="&#x41b;" horiz-adv-x="1374" 
d="M1245 0l-379.001 -0.00292969l-200 448h-161l-103 -448h-362l259 1123h362l-105 -454c65.333 0.666992 111 8.33398 137 23.001s63 52.334 111 113.001l50 66.5l47 63.5c44 59.333 94 105.833 150 139.5s131.333 50.5 226 50.5c26.667 0 55.334 -0.333008 86.001 -1
s51.334 -1 62.001 -1l-66 -289h-90c-36 0 -67.333 -9.5 -94 -28.5s-55.334 -51.5 -86.001 -97.5c-30 -43.333 -51.167 -72.166 -63.5 -86.499s-30.5 -28.833 -54.5 -43.5z" />
    <glyph glyph-name="afii10077" unicode="&#xcc;" horiz-adv-x="1453" 
d="M1155 0l-362 0.000976562l203 879h-294l-30.5 -119.5l-25.5 -98.5c-18.667 -75.333 -38.167 -141.833 -58.5 -199.5s-41.5 -107.834 -63.5 -150.501c-36 -69.333 -80 -130.5 -132 -183.5s-107.667 -90.167 -167 -111.5c-28.667 -9.33301 -54.667 -15.5 -78 -18.5
s-51.333 -4.5 -84 -4.5c-31.333 0 -63.666 1.16699 -96.999 3.5s-53 3.5 -59 3.5l67 288h11c2.66699 0 7.66699 -0.666992 15 -2s14.333 -2 21 -2c40.667 0 71.5 5.16699 92.5 15.5s43.5 31.166 67.5 62.499c28 36.667 53.667 81.667 77 135s50.666 140 81.999 260
l43.5 164.5c13.667 51.667 30.5 118.834 50.5 201.501h980z" />
    <glyph glyph-name="afii10077" unicode="&#x41c;" horiz-adv-x="1453" 
d="M1155 0l-362 0.000976562l203 879h-294l-30.5 -119.5l-25.5 -98.5c-18.667 -75.333 -38.167 -141.833 -58.5 -199.5s-41.5 -107.834 -63.5 -150.501c-36 -69.333 -80 -130.5 -132 -183.5s-107.667 -90.167 -167 -111.5c-28.667 -9.33301 -54.667 -15.5 -78 -18.5
s-51.333 -4.5 -84 -4.5c-31.333 0 -63.666 1.16699 -96.999 3.5s-53 3.5 -59 3.5l67 288h11c2.66699 0 7.66699 -0.666992 15 -2s14.333 -2 21 -2c40.667 0 71.5 5.16699 92.5 15.5s43.5 31.166 67.5 62.499c28 36.667 53.667 81.667 77 135s50.666 140 81.999 260
l43.5 164.5c13.667 51.667 30.5 118.834 50.5 201.501h980z" />
    <glyph glyph-name="afii10078" unicode="&#xcd;" horiz-adv-x="1700" 
d="M1401 0h-351l159 685l-361 -448h-158l-144 484l-166 -721h-341l260 1123h391l160 -522l418 522h393z" />
    <glyph glyph-name="afii10078" unicode="&#x41d;" horiz-adv-x="1700" 
d="M1401 0h-351l159 685l-361 -448h-158l-144 484l-166 -721h-341l260 1123h391l160 -522l418 522h393z" />
    <glyph glyph-name="afii10079" unicode="&#xce;" horiz-adv-x="1474" 
d="M1176 0h-362l113 486h-413l-112 -486h-362l259 1123h361l-90 -394h412l91 394h362z" />
    <glyph glyph-name="afii10079" unicode="&#x41e;" horiz-adv-x="1474" 
d="M1176 0h-362l113 486h-413l-112 -486h-362l259 1123h361l-90 -394h412l91 394h362z" />
    <glyph glyph-name="afii10080" unicode="&#xcf;" horiz-adv-x="1404" 
d="M1335 712c0 -105.333 -17.666 -204 -52.999 -296s-85 -171 -149 -237c-66.667 -68.667 -144 -121.5 -232 -158.5s-190.667 -55.5 -308 -55.5c-167.333 0 -295.666 40 -384.999 120s-134 190.667 -134 332c0 100 16.667 195 50 285s82.666 169.333 147.999 238
c63.333 67.333 141.166 120.5 233.499 159.5s195.833 58.5 310.5 58.5c168 0 296.5 -39.5 385.5 -118.5s133.5 -188.167 133.5 -327.5zM867.001 344c30.667 46.667 53.832 97.668 69.499 153.001s23.5 122.666 23.5 201.999c0 68.667 -15 121.5 -45 158.5
s-77.667 55.5 -143 55.5c-50.667 0 -95.167 -12.333 -133.5 -37s-72.166 -59.667 -101.499 -105c-27.333 -42 -48.833 -94 -64.5 -156s-23.5 -125.667 -23.5 -191c0 -76.667 17 -131.5 51 -164.5s80.667 -49.5 140 -49.5c43.333 0 85 11.833 125 35.5s74 56.5 102 98.5z" />
    <glyph glyph-name="afii10080" unicode="&#x41f;" horiz-adv-x="1404" 
d="M1335 712c0 -105.333 -17.666 -204 -52.999 -296s-85 -171 -149 -237c-66.667 -68.667 -144 -121.5 -232 -158.5s-190.667 -55.5 -308 -55.5c-167.333 0 -295.666 40 -384.999 120s-134 190.667 -134 332c0 100 16.667 195 50 285s82.666 169.333 147.999 238
c63.333 67.333 141.166 120.5 233.499 159.5s195.833 58.5 310.5 58.5c168 0 296.5 -39.5 385.5 -118.5s133.5 -188.167 133.5 -327.5zM867.001 344c30.667 46.667 53.832 97.668 69.499 153.001s23.5 122.666 23.5 201.999c0 68.667 -15 121.5 -45 158.5
s-77.667 55.5 -143 55.5c-50.667 0 -95.167 -12.333 -133.5 -37s-72.166 -59.667 -101.499 -105c-27.333 -42 -48.833 -94 -64.5 -156s-23.5 -125.667 -23.5 -191c0 -76.667 17 -131.5 51 -164.5s80.667 -49.5 140 -49.5c43.333 0 85 11.833 125 35.5s74 56.5 102 98.5z" />
    <glyph glyph-name="afii10081" unicode="&#xd0;" horiz-adv-x="1474" 
d="M1176 0h-362l202 879h-412l-202 -879h-362l259 1123h1136z" />
    <glyph glyph-name="afii10081" unicode="&#x420;" horiz-adv-x="1474" 
d="M1176 0h-362l202 879h-412l-202 -879h-362l259 1123h1136z" />
    <glyph glyph-name="afii10097" unicode="&#xd1;" horiz-adv-x="1396" 
d="M1098 0h-361l91 393h-159l-334 -393h-417l399 452c-46.667 26.667 -84.834 61.5 -114.501 104.5s-44.5 94.833 -44.5 155.5c0 72.667 18 138 54 196s87 106 153 144c42 24.667 90.333 42.667 145 54s110.334 17 167.001 17h680zM877 609l65 282h-213
c-58 0 -104.833 -14 -140.5 -42s-53.5 -69.333 -53.5 -124c0 -37.333 12 -66 36 -86s59 -30 105 -30h201z" />
    <glyph glyph-name="afii10097" unicode="&#x421;" horiz-adv-x="1396" 
d="M1098 0h-361l91 393h-159l-334 -393h-417l399 452c-46.667 26.667 -84.834 61.5 -114.501 104.5s-44.5 94.833 -44.5 155.5c0 72.667 18 138 54 196s87 106 153 144c42 24.667 90.333 42.667 145 54s110.334 17 167.001 17h680zM877 609l65 282h-213
c-58 0 -104.833 -14 -140.5 -42s-53.5 -69.333 -53.5 -124c0 -37.333 12 -66 36 -86s59 -30 105 -30h201z" />
    <glyph glyph-name="afii10082" unicode="&#xd2;" horiz-adv-x="1432" 
d="M1366 764c0 -103.333 -16.833 -203.501 -50.5 -300.501s-79.5 -180.5 -137.5 -250.5c-60.667 -74 -129.167 -131.667 -205.5 -173s-161.833 -62 -256.5 -62c-60 0 -115.167 6.83301 -165.5 20.5s-95.833 32.834 -136.5 57.501l-108 -468h-362l355 1535h362l-27 -117
c68 46.667 130.833 83 188.5 109s121.5 39 191.5 39c113.333 0 200.333 -34.5 261 -103.5s91 -164.5 91 -286.5zM897 369.999c28.667 42 50.667 91.167 66 147.5s23 117.5 23 183.5c0 60.667 -13.333 107.167 -40 139.5s-74.334 48.5 -143.001 48.5
c-35.333 0 -70 -6.16699 -104 -18.5s-70 -28.5 -108 -48.5l-130 -565c21.333 -9.33301 46.166 -16.5 74.499 -21.5s57.5 -7.5 87.5 -7.5c60.667 0 114.334 13 161.001 39s84.334 60.333 113.001 103z" />
    <glyph glyph-name="afii10082" unicode="&#x422;" horiz-adv-x="1432" 
d="M1366 764c0 -103.333 -16.833 -203.501 -50.5 -300.501s-79.5 -180.5 -137.5 -250.5c-60.667 -74 -129.167 -131.667 -205.5 -173s-161.833 -62 -256.5 -62c-60 0 -115.167 6.83301 -165.5 20.5s-95.833 32.834 -136.5 57.501l-108 -468h-362l355 1535h362l-27 -117
c68 46.667 130.833 83 188.5 109s121.5 39 191.5 39c113.333 0 200.333 -34.5 261 -103.5s91 -164.5 91 -286.5zM897 369.999c28.667 42 50.667 91.167 66 147.5s23 117.5 23 183.5c0 60.667 -13.333 107.167 -40 139.5s-74.334 48.5 -143.001 48.5
c-35.333 0 -70 -6.16699 -104 -18.5s-70 -28.5 -108 -48.5l-130 -565c21.333 -9.33301 46.166 -16.5 74.499 -21.5s57.5 -7.5 87.5 -7.5c60.667 0 114.334 13 161.001 39s84.334 60.333 113.001 103z" />
    <glyph glyph-name="afii10083" unicode="&#xd3;" horiz-adv-x="1205" 
d="M620 -30c-76.667 0 -148.499 9.49805 -215.499 28.498s-125.5 48.5 -175.5 88.5c-48.667 39.333 -86.667 88.666 -114 147.999s-41 128 -41 206c0 100.667 19.167 194.167 57.5 280.5s92.166 161.833 161.499 226.5c68 63.333 151 113.5 249 150.5s204 55.5 318 55.5
c68.667 0 136.834 -7.66699 204.501 -23s130.5 -37.666 188.5 -66.999l-76 -307h-51c-39.333 47.333 -83.833 82.5 -133.5 105.5s-105.5 34.5 -167.5 34.5c-113.333 0 -204.333 -40.167 -273 -120.5s-103 -180.5 -103 -300.5c0 -83.333 21.167 -145.666 63.5 -186.999
s108.166 -62 197.499 -62c69.333 0 132.5 14.167 189.5 42.5s105.833 59.833 146.5 94.5h51l-76 -307c-72 -31.333 -135.167 -53.666 -189.5 -66.999s-124.833 -20 -211.5 -20z" />
    <glyph glyph-name="afii10083" unicode="&#x423;" horiz-adv-x="1205" 
d="M620 -30c-76.667 0 -148.499 9.49805 -215.499 28.498s-125.5 48.5 -175.5 88.5c-48.667 39.333 -86.667 88.666 -114 147.999s-41 128 -41 206c0 100.667 19.167 194.167 57.5 280.5s92.166 161.833 161.499 226.5c68 63.333 151 113.5 249 150.5s204 55.5 318 55.5
c68.667 0 136.834 -7.66699 204.501 -23s130.5 -37.666 188.5 -66.999l-76 -307h-51c-39.333 47.333 -83.833 82.5 -133.5 105.5s-105.5 34.5 -167.5 34.5c-113.333 0 -204.333 -40.167 -273 -120.5s-103 -180.5 -103 -300.5c0 -83.333 21.167 -145.666 63.5 -186.999
s108.166 -62 197.499 -62c69.333 0 132.5 14.167 189.5 42.5s105.833 59.833 146.5 94.5h51l-76 -307c-72 -31.333 -135.167 -53.666 -189.5 -66.999s-124.833 -20 -211.5 -20z" />
    <glyph glyph-name="afii10084" unicode="&#xd4;" horiz-adv-x="1096" 
d="M1160 879h-358l-203 -879h-362l203 879h-358l56 244h1078z" />
    <glyph glyph-name="afii10084" unicode="&#x424;" horiz-adv-x="1096" 
d="M1160 879h-358l-203 -879h-362l203 879h-358l56 244h1078z" />
    <glyph glyph-name="afii10085" unicode="&#xd5;" horiz-adv-x="1333" 
d="M454 -412h-395l286 434l-185 1101h368l97 -736l428 736h380z" />
    <glyph glyph-name="afii10085" unicode="&#x425;" horiz-adv-x="1333" 
d="M454 -412h-395l286 434l-185 1101h368l97 -736l428 736h380z" />
    <glyph glyph-name="afii10072" unicode="&#xd6;" horiz-adv-x="2046" 
d="M1885 0l-379.003 -0.000976562l-220 448h-108l-104 -448h-360l104 448h-101l-382 -448h-417l523 590c-14.667 13.333 -26.167 30.5 -34.5 51.5s-14.5 41.167 -18.5 60.5c-3.33301 16 -6.83301 30.833 -10.5 44.5s-11.5 28.167 -23.5 43.5c-10 13.333 -22.833 24 -38.5 32
s-36.167 12 -61.5 12h-101l67 289c12 0 29.333 0.333008 52 1s47.667 1 75 1c73.333 0 133.5 -13.833 180.5 -41.5s82.833 -78.167 107.5 -151.5l19 -62c7.33301 -24.667 14.666 -47.334 21.999 -68.001c18.667 -56 39.5 -92.167 62.5 -108.5s65.833 -24.5 128.5 -24.5
l105 454h360l-105 -454c62.667 0.666992 104.834 8.83398 126.501 24.501s56.5 53.834 104.5 114.501l47.5 64l50.5 67c48 61.333 98.833 107.666 152.5 138.999s128.167 47 223.5 47c26.667 0 55.334 -0.333008 86.001 -1s51.334 -1 62 -1l-66 -289h-93
c-26.667 0 -49 -3.83301 -67 -11.5s-34.667 -18.167 -50 -31.5c-13.333 -10.667 -26.166 -25 -38.499 -43l-30.5 -44c-26 -38 -50.167 -67.667 -72.5 -89s-45.166 -37.666 -68.499 -48.999z" />
    <glyph glyph-name="afii10072" unicode="&#x426;" horiz-adv-x="2046" 
d="M1885 0l-379.003 -0.000976562l-220 448h-108l-104 -448h-360l104 448h-101l-382 -448h-417l523 590c-14.667 13.333 -26.167 30.5 -34.5 51.5s-14.5 41.167 -18.5 60.5c-3.33301 16 -6.83301 30.833 -10.5 44.5s-11.5 28.167 -23.5 43.5c-10 13.333 -22.833 24 -38.5 32
s-36.167 12 -61.5 12h-101l67 289c12 0 29.333 0.333008 52 1s47.667 1 75 1c73.333 0 133.5 -13.833 180.5 -41.5s82.833 -78.167 107.5 -151.5l19 -62c7.33301 -24.667 14.666 -47.334 21.999 -68.001c18.667 -56 39.5 -92.167 62.5 -108.5s65.833 -24.5 128.5 -24.5
l105 454h360l-105 -454c62.667 0.666992 104.834 8.83398 126.501 24.501s56.5 53.834 104.5 114.501l47.5 64l50.5 67c48 61.333 98.833 107.666 152.5 138.999s128.167 47 223.5 47c26.667 0 55.334 -0.333008 86.001 -1s51.334 -1 62 -1l-66 -289h-93
c-26.667 0 -49 -3.83301 -67 -11.5s-34.667 -18.167 -50 -31.5c-13.333 -10.667 -26.166 -25 -38.499 -43l-30.5 -44c-26 -38 -50.167 -67.667 -72.5 -89s-45.166 -37.666 -68.499 -48.999z" />
    <glyph glyph-name="afii10067" unicode="&#xd7;" horiz-adv-x="1387" 
d="M1264 386c0 -60.667 -15.8311 -118.164 -47.498 -172.497s-73.834 -98.833 -126.501 -133.5c-46 -30 -95.333 -50.833 -148 -62.5s-117 -17.5 -193 -17.5h-709l259 1123h632c64 0 119.667 -5.33301 167 -16s85.666 -25.334 114.999 -44.001
c28.667 -18.667 50.167 -41.334 64.5 -68.001s21.5 -57 21.5 -91c0 -70.667 -20.5 -129.834 -61.5 -177.501s-91.833 -85.167 -152.5 -112.5v-11c50.667 -13.333 93.167 -38.833 127.5 -76.5s51.5 -84.5 51.5 -140.5zM928.002 807.003c0 32 -11.667 55.5 -35 70.5
s-58.333 22.5 -105 22.5h-183l-51 -226h197c58 0 102 11.333 132 34s45 55.667 45 99zM886.002 377.003c0 36.667 -12 63.499 -36 80.499s-59.667 25.5 -107 25.5h-234l-59 -259h249c58 0 103.667 12.833 137 38.5s50 63.834 50 114.501z" />
    <glyph glyph-name="afii10067" unicode="&#x427;" horiz-adv-x="1387" 
d="M1264 386c0 -60.667 -15.8311 -118.164 -47.498 -172.497s-73.834 -98.833 -126.501 -133.5c-46 -30 -95.333 -50.833 -148 -62.5s-117 -17.5 -193 -17.5h-709l259 1123h632c64 0 119.667 -5.33301 167 -16s85.666 -25.334 114.999 -44.001
c28.667 -18.667 50.167 -41.334 64.5 -68.001s21.5 -57 21.5 -91c0 -70.667 -20.5 -129.834 -61.5 -177.501s-91.833 -85.167 -152.5 -112.5v-11c50.667 -13.333 93.167 -38.833 127.5 -76.5s51.5 -84.5 51.5 -140.5zM928.002 807.003c0 32 -11.667 55.5 -35 70.5
s-58.333 22.5 -105 22.5h-183l-51 -226h197c58 0 102 11.333 132 34s45 55.667 45 99zM886.002 377.003c0 36.667 -12 63.499 -36 80.499s-59.667 25.5 -107 25.5h-234l-59 -259h249c58 0 103.667 12.833 137 38.5s50 63.834 50 114.501z" />
    <glyph glyph-name="afii10094" unicode="&#xd8;" horiz-adv-x="1330" 
d="M859 402c0 36.667 -12 65.667 -36 87s-63 32 -117 32h-185l-68 -295h204c42.667 0 78 7.16699 106 21.5s48.667 30.833 62 49.5c14 20.667 23.167 40.167 27.5 58.5s6.5 33.833 6.5 46.5zM1235 449c0 -73.333 -16.498 -141.331 -49.498 -203.998
s-78.5 -114.334 -136.5 -155.001c-47.333 -32.667 -97.333 -55.834 -150 -69.501s-121.334 -20.5 -206.001 -20.5h-653l259 1123h361l-87 -375h257c133.333 0 234.166 -26.5 302.499 -79.5s102.5 -126.167 102.5 -219.5z" />
    <glyph glyph-name="afii10094" unicode="&#x428;" horiz-adv-x="1330" 
d="M859 402c0 36.667 -12 65.667 -36 87s-63 32 -117 32h-185l-68 -295h204c42.667 0 78 7.16699 106 21.5s48.667 30.833 62 49.5c14 20.667 23.167 40.167 27.5 58.5s6.5 33.833 6.5 46.5zM1235 449c0 -73.333 -16.498 -141.331 -49.498 -203.998
s-78.5 -114.334 -136.5 -155.001c-47.333 -32.667 -97.333 -55.834 -150 -69.501s-121.334 -20.5 -206.001 -20.5h-653l259 1123h361l-87 -375h257c133.333 0 234.166 -26.5 302.499 -79.5s102.5 -126.167 102.5 -219.5z" />
    <glyph glyph-name="afii10093" unicode="&#xd9;" horiz-adv-x="1919" 
d="M859 402c0 36.667 -12 65.667 -36 87s-63 32 -117 32h-185l-68 -295h204c42.667 0 78 7.16699 106 21.5s48.667 30.833 62 49.5c14 20.667 23.167 40.167 27.5 58.5s6.5 33.833 6.5 46.5zM1235 449c0 -73.333 -16.498 -141.331 -49.498 -203.998
s-78.5 -114.334 -136.5 -155.001c-47.333 -32.667 -97.333 -55.834 -150 -69.501s-121.334 -20.5 -206.001 -20.5h-653l259 1123h361l-87 -375h257c133.333 0 234.166 -26.5 302.499 -79.5s102.5 -126.167 102.5 -219.5zM1621 0.00195312h-362l259 1123h362z" />
    <glyph glyph-name="afii10093" unicode="&#x429;" horiz-adv-x="1919" 
d="M859 402c0 36.667 -12 65.667 -36 87s-63 32 -117 32h-185l-68 -295h204c42.667 0 78 7.16699 106 21.5s48.667 30.833 62 49.5c14 20.667 23.167 40.167 27.5 58.5s6.5 33.833 6.5 46.5zM1235 449c0 -73.333 -16.498 -141.331 -49.498 -203.998
s-78.5 -114.334 -136.5 -155.001c-47.333 -32.667 -97.333 -55.834 -150 -69.501s-121.334 -20.5 -206.001 -20.5h-653l259 1123h361l-87 -375h257c133.333 0 234.166 -26.5 302.499 -79.5s102.5 -126.167 102.5 -219.5zM1621 0.00195312h-362l259 1123h362z" />
    <glyph glyph-name="afii10073" unicode="&#xda;" horiz-adv-x="1204" 
d="M871 52c-58 -28.667 -124.501 -49.6641 -199.501 -62.9971s-153.5 -20 -235.5 -20c-99.333 0 -188.666 9 -267.999 27s-149.333 38 -210 60l62 267h40c47.333 -29.333 101.833 -55.5 163.5 -78.5s126.5 -34.5 194.5 -34.5c26.667 0 59.334 2.5 98.001 7.5
s69 12.5 91 22.5c28 12.667 50.167 28.5 66.5 47.5s24.5 45.833 24.5 80.5c0 21.333 -5.16699 38.5 -15.5 51.5s-26.166 23.167 -47.499 30.5c-20 7.33301 -45.833 12 -77.5 14s-62.834 3 -93.501 3h-180l50 221h143c30 0 64.5 0.833008 103.5 2.5
s70.833 5.83398 95.5 12.501c30 8 53.667 19.833 71 35.5s26 39.834 26 72.501c0 18 -6.33301 33.667 -19 47s-29.334 24 -50.001 32s-43.667 13.833 -69 17.5s-50.666 5.5 -75.999 5.5c-50.667 0 -108.834 -9.33301 -174.501 -28s-126.834 -41.334 -183.501 -68.001h-39
l61 269c42 12 106.333 26.5 193 43.5s170.334 25.5 251.001 25.5c66 0 126 -5 180 -15s104.667 -26.667 152 -50c45.333 -22.667 81.333 -51.334 108 -86.001s40 -76.334 40 -125.001c0 -72.667 -26.167 -136.334 -78.5 -191.001s-113.5 -91.334 -183.5 -110.001l-1 -9
c52 -15.333 96.667 -41 134 -77s56 -82.333 56 -139c0 -72 -18.5 -132.833 -55.5 -182.5s-86.167 -89.167 -147.5 -118.5z" />
    <glyph glyph-name="afii10073" unicode="&#x42a;" horiz-adv-x="1204" 
d="M871 52c-58 -28.667 -124.501 -49.6641 -199.501 -62.9971s-153.5 -20 -235.5 -20c-99.333 0 -188.666 9 -267.999 27s-149.333 38 -210 60l62 267h40c47.333 -29.333 101.833 -55.5 163.5 -78.5s126.5 -34.5 194.5 -34.5c26.667 0 59.334 2.5 98.001 7.5
s69 12.5 91 22.5c28 12.667 50.167 28.5 66.5 47.5s24.5 45.833 24.5 80.5c0 21.333 -5.16699 38.5 -15.5 51.5s-26.166 23.167 -47.499 30.5c-20 7.33301 -45.833 12 -77.5 14s-62.834 3 -93.501 3h-180l50 221h143c30 0 64.5 0.833008 103.5 2.5
s70.833 5.83398 95.5 12.501c30 8 53.667 19.833 71 35.5s26 39.834 26 72.501c0 18 -6.33301 33.667 -19 47s-29.334 24 -50.001 32s-43.667 13.833 -69 17.5s-50.666 5.5 -75.999 5.5c-50.667 0 -108.834 -9.33301 -174.501 -28s-126.834 -41.334 -183.501 -68.001h-39
l61 269c42 12 106.333 26.5 193 43.5s170.334 25.5 251.001 25.5c66 0 126 -5 180 -15s104.667 -26.667 152 -50c45.333 -22.667 81.333 -51.334 108 -86.001s40 -76.334 40 -125.001c0 -72.667 -26.167 -136.334 -78.5 -191.001s-113.5 -91.334 -183.5 -110.001l-1 -9
c52 -15.333 96.667 -41 134 -77s56 -82.333 56 -139c0 -72 -18.5 -132.833 -55.5 -182.5s-86.167 -89.167 -147.5 -118.5z" />
    <glyph glyph-name="afii10090" unicode="&#xdb;" horiz-adv-x="2053" 
d="M1755 0h-1715l259 1123h361l-203 -881h316l203 881h361l-203 -881h316l203 881h361z" />
    <glyph glyph-name="afii10090" unicode="&#x42b;" horiz-adv-x="2053" 
d="M1755 0h-1715l259 1123h361l-203 -881h316l203 881h361l-203 -881h316l203 881h361z" />
    <glyph glyph-name="afii10095" unicode="&#xdc;" horiz-adv-x="1246" 
d="M1177 707c0 -116 -20.668 -220.332 -62.001 -312.999s-99 -170.667 -173 -234c-74.667 -63.333 -160 -110.833 -256 -142.5s-201 -47.5 -315 -47.5c-87.333 0 -164.166 9.5 -230.499 28.5s-118.5 36.833 -156.5 53.5l65 279h49c36.667 -41.333 81.5 -73.333 134.5 -96
s116.5 -34 190.5 -34c92 0 170.833 23.333 236.5 70s111.5 112 137.5 196h-521l51 223h508v12c0 70 -24.333 124.167 -73 162.5s-109 57.5 -181 57.5c-45.333 0 -86.5 -4.33301 -123.5 -13s-73.833 -20.334 -110.5 -35.001c-38 -16 -68 -30.833 -90 -44.5l-63 -39.5h-49
l65 279c61.333 24 126.5 44.167 195.5 60.5s141.5 24.5 217.5 24.5c170.667 0 305.667 -39 405 -117s149 -188 149 -330z" />
    <glyph glyph-name="afii10095" unicode="&#x42c;" horiz-adv-x="1246" 
d="M1177 707c0 -116 -20.668 -220.332 -62.001 -312.999s-99 -170.667 -173 -234c-74.667 -63.333 -160 -110.833 -256 -142.5s-201 -47.5 -315 -47.5c-87.333 0 -164.166 9.5 -230.499 28.5s-118.5 36.833 -156.5 53.5l65 279h49c36.667 -41.333 81.5 -73.333 134.5 -96
s116.5 -34 190.5 -34c92 0 170.833 23.333 236.5 70s111.5 112 137.5 196h-521l51 223h508v12c0 70 -24.333 124.167 -73 162.5s-109 57.5 -181 57.5c-45.333 0 -86.5 -4.33301 -123.5 -13s-73.833 -20.334 -110.5 -35.001c-38 -16 -68 -30.833 -90 -44.5l-63 -39.5h-49
l65 279c61.333 24 126.5 44.167 195.5 60.5s141.5 24.5 217.5 24.5c170.667 0 305.667 -39 405 -117s149 -188 149 -330z" />
    <glyph glyph-name="afii10091" unicode="&#xdd;" horiz-adv-x="2074" 
d="M1548 0h-1509l260 1123h361l-203 -881h316l203 881h361l-203 -881h316l203 881h361l-203 -881h116l-120 -520h-323z" />
    <glyph glyph-name="afii10091" unicode="&#x42d;" horiz-adv-x="2074" 
d="M1548 0h-1509l260 1123h361l-203 -881h316l203 881h361l-203 -881h316l203 881h361l-203 -881h116l-120 -520h-323z" />
    <glyph glyph-name="afii10089" unicode="&#xde;" horiz-adv-x="1401" 
d="M1103 0l-362.001 -0.00195312l89 386c-65.333 -12.667 -131.333 -23.167 -198 -31.5s-121.334 -12.5 -164.001 -12.5c-100 0 -180.5 21.5 -241.5 64.5s-91.5 105.5 -91.5 187.5c0 22.667 1.83301 45.667 5.5 69s6.83398 42.333 9.50098 57l93 403h364l-60 -258
c-6 -25.333 -10.833 -50.166 -14.5 -74.499s-5.5 -45.5 -5.5 -63.5c0 -44.667 14.833 -78.5 44.5 -101.5s87.167 -34.5 172.5 -34.5c16.667 0 38.834 0.833008 66.501 2.5s50.5 3.83398 68.5 6.50098l121 523h362z" />
    <glyph glyph-name="afii10089" unicode="&#x42e;" horiz-adv-x="1401" 
d="M1103 0l-362.001 -0.00195312l89 386c-65.333 -12.667 -131.333 -23.167 -198 -31.5s-121.334 -12.5 -164.001 -12.5c-100 0 -180.5 21.5 -241.5 64.5s-91.5 105.5 -91.5 187.5c0 22.667 1.83301 45.667 5.5 69s6.83398 42.333 9.50098 57l93 403h364l-60 -258
c-6 -25.333 -10.833 -50.166 -14.5 -74.499s-5.5 -45.5 -5.5 -63.5c0 -44.667 14.833 -78.5 44.5 -101.5s87.167 -34.5 172.5 -34.5c16.667 0 38.834 0.833008 66.501 2.5s50.5 3.83398 68.5 6.50098l121 523h362z" />
    <glyph glyph-name="afii10092" unicode="&#xdf;" horiz-adv-x="1522" 
d="M1051 402c0 36.667 -12 65.667 -36 87s-63 32 -117 32h-185l-68 -295h204c42.667 0 78 7.16699 106 21.5s48.667 30.833 62 49.5c14 20.667 23.167 40.167 27.5 58.5s6.5 33.833 6.5 46.5zM1427 449c0 -73.333 -16.498 -141.331 -49.498 -203.998
s-78.5 -114.334 -136.5 -155.001c-47.333 -32.667 -97.333 -55.834 -150 -69.501s-121.334 -20.5 -206.001 -20.5h-653l203 879h-353l56 244h714l-87 -375h257c133.333 0 234.166 -26.5 302.499 -79.5s102.5 -126.167 102.5 -219.5z" />
    <glyph glyph-name="afii10092" unicode="&#x42f;" horiz-adv-x="1522" 
d="M1051 402c0 36.667 -12 65.667 -36 87s-63 32 -117 32h-185l-68 -295h204c42.667 0 78 7.16699 106 21.5s48.667 30.833 62 49.5c14 20.667 23.167 40.167 27.5 58.5s6.5 33.833 6.5 46.5zM1427 449c0 -73.333 -16.498 -141.331 -49.498 -203.998
s-78.5 -114.334 -136.5 -155.001c-47.333 -32.667 -97.333 -55.834 -150 -69.501s-121.334 -20.5 -206.001 -20.5h-653l203 879h-353l56 244h714l-87 -375h257c133.333 0 234.166 -26.5 302.499 -79.5s102.5 -126.167 102.5 -219.5z" />
    <glyph glyph-name="afii10048" unicode="&#xe0;" horiz-adv-x="2448" 
d="M1871 427c43.333 60 77.334 128.999 102.001 206.999s37 168 37 270c0 61.333 -7.33301 113.5 -22 156.5s-35.334 78.167 -62.001 105.5c-24.667 26.667 -54 46.5 -88 59.5s-70.667 19.5 -110 19.5c-60 0 -117 -14.333 -171 -43s-103.333 -71.667 -148 -129
c-44 -56 -78.833 -125.167 -104.5 -207.5s-38.5 -174.5 -38.5 -276.5c0 -62 7.5 -115.167 22.5 -159.5s35.167 -80.166 60.5 -107.499s55.166 -47.166 89.499 -59.499s71.166 -18.5 110.499 -18.5c60.667 0 119.334 16.167 176.001 48.5s105.334 77.166 146.001 134.499z
M874.001 658.999l-277 -0.00390625l-152 -659h-386l344 1489h386l-127 -548h273c32.667 86 75.334 164 128.001 234s115 131 187 183c70.667 50.667 151.334 90.334 242.001 119.001s186.667 43 288 43c197.333 0 352.333 -52.667 465 -158s169 -247.666 169 -426.999
c0 -123.333 -20 -243.5 -60 -360.5s-98.667 -219.833 -176 -308.5c-78 -90 -173.833 -162 -287.5 -216s-243.834 -81 -390.501 -81c-196.667 0 -350.834 53.167 -462.501 159.5s-167.5 251.833 -167.5 436.5c0 18.667 0.333008 34.334 1 47.001s1.66699 28.334 3 47.001z
" />
    <glyph glyph-name="afii10048" unicode="&#x430;" horiz-adv-x="2448" 
d="M1871 427c43.333 60 77.334 128.999 102.001 206.999s37 168 37 270c0 61.333 -7.33301 113.5 -22 156.5s-35.334 78.167 -62.001 105.5c-24.667 26.667 -54 46.5 -88 59.5s-70.667 19.5 -110 19.5c-60 0 -117 -14.333 -171 -43s-103.333 -71.667 -148 -129
c-44 -56 -78.833 -125.167 -104.5 -207.5s-38.5 -174.5 -38.5 -276.5c0 -62 7.5 -115.167 22.5 -159.5s35.167 -80.166 60.5 -107.499s55.166 -47.166 89.499 -59.499s71.166 -18.5 110.499 -18.5c60.667 0 119.334 16.167 176.001 48.5s105.334 77.166 146.001 134.499z
M874.001 658.999l-277 -0.00390625l-152 -659h-386l344 1489h386l-127 -548h273c32.667 86 75.334 164 128.001 234s115 131 187 183c70.667 50.667 151.334 90.334 242.001 119.001s186.667 43 288 43c197.333 0 352.333 -52.667 465 -158s169 -247.666 169 -426.999
c0 -123.333 -20 -243.5 -60 -360.5s-98.667 -219.833 -176 -308.5c-78 -90 -173.833 -162 -287.5 -216s-243.834 -81 -390.501 -81c-196.667 0 -350.834 53.167 -462.501 159.5s-167.5 251.833 -167.5 436.5c0 18.667 0.333008 34.334 1 47.001s1.66699 28.334 3 47.001z
" />
    <glyph glyph-name="afii10017" unicode="&#xe1;" horiz-adv-x="1590" 
d="M1451 0h-387l-34 304h-548l-174 -304h-401l893 1489h444zM1001 571l-60 535l-307 -535h367z" />
    <glyph glyph-name="afii10017" unicode="&#x431;" horiz-adv-x="1590" 
d="M1451 0h-387l-34 304h-548l-174 -304h-401l893 1489h444zM1001 571l-60 535l-307 -535h367z" />
    <glyph glyph-name="afii10018" unicode="&#xe2;" horiz-adv-x="1552" 
d="M1047 516c0 20.667 -3.16699 39.334 -9.5 56.001s-16.833 31.667 -31.5 45c-15.333 13.333 -37.5 24.166 -66.5 32.499s-64.833 12.5 -107.5 12.5h-236l-90 -389h247c53.333 0 99.166 7 137.499 21s68.5 32.333 90.5 55c22.667 22.667 39.334 48.167 50.001 76.5
s16 58.5 16 90.5zM1455 572c0 -91.333 -22.5 -177.5 -67.5 -258.5s-103.167 -146.167 -174.5 -195.5c-65.333 -44.667 -133 -75.5 -203 -92.5s-151.667 -25.5 -245 -25.5h-706l344 1489h1159l-67 -288h-775l-61 -267h302c161.333 0 284 -30.667 368 -92
s126 -151.333 126 -270z" />
    <glyph glyph-name="afii10018" unicode="&#x432;" horiz-adv-x="1552" 
d="M1047 516c0 20.667 -3.16699 39.334 -9.5 56.001s-16.833 31.667 -31.5 45c-15.333 13.333 -37.5 24.166 -66.5 32.499s-64.833 12.5 -107.5 12.5h-236l-90 -389h247c53.333 0 99.166 7 137.499 21s68.5 32.333 90.5 55c22.667 22.667 39.334 48.167 50.001 76.5
s16 58.5 16 90.5zM1455 572c0 -91.333 -22.5 -177.5 -67.5 -258.5s-103.167 -146.167 -174.5 -195.5c-65.333 -44.667 -133 -75.5 -203 -92.5s-151.667 -25.5 -245 -25.5h-706l344 1489h1159l-67 -288h-775l-61 -267h302c161.333 0 284 -30.667 368 -92
s126 -151.333 126 -270z" />
    <glyph glyph-name="afii10040" unicode="&#xe3;" horiz-adv-x="1740" 
d="M1185 0h-1126l344 1489h385l-278 -1206h562l278 1206h385l-277 -1206h147l-144 -625h-355z" />
    <glyph glyph-name="afii10040" unicode="&#x433;" horiz-adv-x="1740" 
d="M1185 0h-1126l344 1489h385l-278 -1206h562l278 1206h385l-277 -1206h147l-144 -625h-355z" />
    <glyph glyph-name="afii10021" unicode="&#xe4;" horiz-adv-x="1723" 
d="M1443 -342h-355l80 347h-902l-80 -347h-355l145 625h113c102 142.667 199.833 320 293.5 532s168.167 436.667 223.5 674h1113l-278 -1206h147zM1055 283l213 923h-370c-55.333 -184 -121.833 -355.167 -199.5 -513.5s-157.5 -294.833 -239.5 -409.5h596z" />
    <glyph glyph-name="afii10021" unicode="&#x434;" horiz-adv-x="1723" 
d="M1443 -342h-355l80 347h-902l-80 -347h-355l145 625h113c102 142.667 199.833 320 293.5 532s168.167 436.667 223.5 674h1113l-278 -1206h147zM1055 283l213 923h-370c-55.333 -184 -121.833 -355.167 -199.5 -513.5s-157.5 -294.833 -239.5 -409.5h596z" />
    <glyph glyph-name="afii10022" unicode="&#xe5;" horiz-adv-x="1399" 
d="M1482 1489l-65 -282h-695l-62 -266h645l-66 -283h-645l-87 -376h695l-64 -282h-1079l344 1489h1079z" />
    <glyph glyph-name="afii10022" unicode="&#x435;" horiz-adv-x="1399" 
d="M1482 1489l-65 -282h-695l-62 -266h645l-66 -283h-645l-87 -376h695l-64 -282h-1079l344 1489h1079z" />
    <glyph glyph-name="afii10038" unicode="&#xe6;" horiz-adv-x="1950" 
d="M1916 866c0 -108 -19.9961 -204.833 -59.9961 -290.5s-96.667 -158.5 -170 -218.5c-74.667 -60.667 -163.334 -108.5 -266.001 -143.5s-219.334 -56.167 -350.001 -63.5l-38 -164h-382l39 166c-87.333 8 -166 24.333 -236 49s-130 57.667 -180 99
c-48.667 40 -86.334 88.667 -113.001 146s-40 121 -40 191c0 106 19.667 201.833 59 287.5s96.333 159.5 171 221.5c74.667 61.333 164.667 109.333 270 144s220.666 55.667 345.999 63l35 153h382l-36 -155c175.333 -16 314 -64.833 416 -146.5s153 -194.5 153 -338.5z
M910.004 1109c-128 -15.333 -225.168 -62.668 -291.501 -142.001s-99.5 -180.666 -99.5 -303.999c0 -70 17.333 -128.5 52 -175.5s92.334 -77.833 173.001 -92.5zM1517 839.998c0 68.667 -17 126.334 -51 173.001s-92 78.334 -174 95.001l-166 -714
c126.667 15.333 223.5 62.166 290.5 140.499s100.5 180.166 100.5 305.499z" />
    <glyph glyph-name="afii10038" unicode="&#x436;" horiz-adv-x="1950" 
d="M1916 866c0 -108 -19.9961 -204.833 -59.9961 -290.5s-96.667 -158.5 -170 -218.5c-74.667 -60.667 -163.334 -108.5 -266.001 -143.5s-219.334 -56.167 -350.001 -63.5l-38 -164h-382l39 166c-87.333 8 -166 24.333 -236 49s-130 57.667 -180 99
c-48.667 40 -86.334 88.667 -113.001 146s-40 121 -40 191c0 106 19.667 201.833 59 287.5s96.333 159.5 171 221.5c74.667 61.333 164.667 109.333 270 144s220.666 55.667 345.999 63l35 153h382l-36 -155c175.333 -16 314 -64.833 416 -146.5s153 -194.5 153 -338.5z
M910.004 1109c-128 -15.333 -225.168 -62.668 -291.501 -142.001s-99.5 -180.666 -99.5 -303.999c0 -70 17.333 -128.5 52 -175.5s92.334 -77.833 173.001 -92.5zM1517 839.998c0 68.667 -17 126.334 -51 173.001s-92 78.334 -174 95.001l-166 -714
c126.667 15.333 223.5 62.166 290.5 140.499s100.5 180.166 100.5 305.499z" />
    <glyph glyph-name="afii10020" unicode="&#xe7;" horiz-adv-x="1305" 
d="M1410 1201h-688l-277 -1201h-386l344 1489h1074z" />
    <glyph glyph-name="afii10020" unicode="&#x437;" horiz-adv-x="1305" 
d="M1410 1201h-688l-277 -1201h-386l344 1489h1074z" />
    <glyph glyph-name="afii10039" unicode="&#xe8;" horiz-adv-x="1564" 
d="M610 768l-361 721h418l219 -469l435 469h425l-701 -742l365 -747h-419l-223 495l-450 -495h-424z" />
    <glyph glyph-name="afii10039" unicode="&#x438;" horiz-adv-x="1564" 
d="M610 768l-361 721h418l219 -469l435 469h425l-701 -742l365 -747h-419l-223 495l-450 -495h-424z" />
    <glyph glyph-name="afii10026" unicode="&#xe9;" horiz-adv-x="1738" 
d="M1419 0h-376l233 1001l-851 -1001h-366l344 1489h376l-211 -907l784 907h411z" />
    <glyph glyph-name="afii10026" unicode="&#x439;" horiz-adv-x="1738" 
d="M1419 0h-376l233 1001l-851 -1001h-366l344 1489h376l-211 -907l784 907h411z" />
    <glyph glyph-name="afii10027" unicode="&#xea;" horiz-adv-x="1738" 
d="M1419 0h-376l233 1001l-851 -1001h-366l344 1489h376l-211 -907l784 907h411zM1683 1980c-24.667 -125.333 -91.6699 -223.004 -201.003 -293.004s-247.666 -105 -414.999 -105c-148.667 0 -263.167 27.833 -343.5 83.5s-120.5 134.834 -120.5 237.501
c0 14.667 0.833008 28.167 2.5 40.5s3.5 24.5 5.5 36.5h336c-2.66699 -13.333 -4.5 -26.166 -5.5 -38.499s-1.5 -23.166 -1.5 -32.499c0 -47.333 12.333 -82.166 37 -104.499s67.334 -33.5 128.001 -33.5c73.333 0 128.333 17.167 165 51.5s62.334 86.833 77.001 157.5h336z
" />
    <glyph glyph-name="afii10027" unicode="&#x43a;" horiz-adv-x="1738" 
d="M1419 0h-376l233 1001l-851 -1001h-366l344 1489h376l-211 -907l784 907h411zM1683 1980c-24.667 -125.333 -91.6699 -223.004 -201.003 -293.004s-247.666 -105 -414.999 -105c-148.667 0 -263.167 27.833 -343.5 83.5s-120.5 134.834 -120.5 237.501
c0 14.667 0.833008 28.167 2.5 40.5s3.5 24.5 5.5 36.5h336c-2.66699 -13.333 -4.5 -26.166 -5.5 -38.499s-1.5 -23.166 -1.5 -32.499c0 -47.333 12.333 -82.166 37 -104.499s67.334 -33.5 128.001 -33.5c73.333 0 128.333 17.167 165 51.5s62.334 86.833 77.001 157.5h336z
" />
    <glyph glyph-name="afii10028" unicode="&#xeb;" horiz-adv-x="1579" 
d="M1466 0h-423.003l-336 605h-122l-140 -605h-386l343 1489h386l-141 -610c60 2.66699 107 14.667 141 36s86.333 75.666 157 162.999l62.5 80l67.5 87c40.667 50.667 80 92.834 118 126.501s74.667 59.167 110 76.5c34.667 16.667 71.334 28.167 110.001 34.5
s86.334 9.5 143.001 9.5c34 0 64.333 -0.5 91 -1.5s46.334 -1.5 59.001 -1.5l-73 -317h-101c-30.667 0 -55 -3.16699 -73 -9.5s-38.667 -18.166 -62 -35.499c-19.333 -14.667 -38.333 -32.834 -57 -54.501s-44.334 -53.834 -77.001 -96.501
c-53.333 -70 -97.666 -119.667 -132.999 -149s-68 -50.666 -98 -63.999z" />
    <glyph glyph-name="afii10028" unicode="&#x43b;" horiz-adv-x="1579" 
d="M1466 0h-423.003l-336 605h-122l-140 -605h-386l343 1489h386l-141 -610c60 2.66699 107 14.667 141 36s86.333 75.666 157 162.999l62.5 80l67.5 87c40.667 50.667 80 92.834 118 126.501s74.667 59.167 110 76.5c34.667 16.667 71.334 28.167 110.001 34.5
s86.334 9.5 143.001 9.5c34 0 64.333 -0.5 91 -1.5s46.334 -1.5 59.001 -1.5l-73 -317h-101c-30.667 0 -55 -3.16699 -73 -9.5s-38.667 -18.166 -62 -35.499c-19.333 -14.667 -38.333 -32.834 -57 -54.501s-44.334 -53.834 -77.001 -96.501
c-53.333 -70 -97.666 -119.667 -132.999 -149s-68 -50.666 -98 -63.999z" />
    <glyph glyph-name="afii10029" unicode="&#xec;" horiz-adv-x="1731" 
d="M1304 1206l-423.001 -0.000976562l-43 -158l-41 -150c-39.333 -143.333 -76 -259.666 -110 -348.999s-67.333 -163 -100 -221c-33.333 -59.333 -66 -107 -98 -143s-65.667 -66.667 -101 -92c-48 -35.333 -97.667 -61.333 -149 -78s-104.666 -25 -159.999 -25
c-33.333 0 -68.333 1.33301 -105 4s-60 4.66699 -70 6l77 333h14c6.66699 -0.666992 13.5 -1.66699 20.5 -3s15.5 -2 25.5 -2c18 0 41.833 2.66699 71.5 8s53.167 15 70.5 29c62.667 50 112.167 120.5 148.5 211.5s78.5 225.833 126.5 404.5
c17.333 65.333 36.5 141.5 57.5 228.5l66.5 279.5h1174l-344 -1489h-386z" />
    <glyph glyph-name="afii10029" unicode="&#x43c;" horiz-adv-x="1731" 
d="M1304 1206l-423.001 -0.000976562l-43 -158l-41 -150c-39.333 -143.333 -76 -259.666 -110 -348.999s-67.333 -163 -100 -221c-33.333 -59.333 -66 -107 -98 -143s-65.667 -66.667 -101 -92c-48 -35.333 -97.667 -61.333 -149 -78s-104.666 -25 -159.999 -25
c-33.333 0 -68.333 1.33301 -105 4s-60 4.66699 -70 6l77 333h14c6.66699 -0.666992 13.5 -1.66699 20.5 -3s15.5 -2 25.5 -2c18 0 41.833 2.66699 71.5 8s53.167 15 70.5 29c62.667 50 112.167 120.5 148.5 211.5s78.5 225.833 126.5 404.5
c17.333 65.333 36.5 141.5 57.5 228.5l66.5 279.5h1174l-344 -1489h-386z" />
    <glyph glyph-name="afii10030" unicode="&#xed;" horiz-adv-x="1941" 
d="M1622 0h-384l225 974l-409 -624h-265l-132 665l-234 -1015h-364l344 1489h441l163 -747l506 747h453z" />
    <glyph glyph-name="afii10030" unicode="&#x43d;" horiz-adv-x="1941" 
d="M1622 0h-384l225 974l-409 -624h-265l-132 665l-234 -1015h-364l344 1489h441l163 -747l506 747h453z" />
    <glyph glyph-name="afii10031" unicode="&#xee;" horiz-adv-x="1715" 
d="M1740 1489l-344 -1489h-386l152 658h-565l-152 -658h-386l344 1489h386l-127 -548h565l127 548h386z" />
    <glyph glyph-name="afii10031" unicode="&#x43e;" horiz-adv-x="1715" 
d="M1740 1489l-344 -1489h-386l152 658h-565l-152 -658h-386l344 1489h386l-127 -548h565l127 548h386z" />
    <glyph glyph-name="afii10032" unicode="&#xef;" horiz-adv-x="1741" 
d="M1707 935c0 -122 -20.667 -242.002 -62 -360.002s-101.333 -221 -180 -309c-86 -96 -186.333 -169.5 -301 -220.5s-246.667 -76.5 -396 -76.5c-203.333 0 -362.5 52.5 -477.5 157.5s-172.5 249.5 -172.5 433.5c0 129.333 22 252.333 66 369s107 219.334 189 308.001
c80 86 179 154.667 297 206s246.667 77 386 77c204 0 363.5 -52.667 478.5 -158s172.5 -247.666 172.5 -426.999zM1158 426.998c45.333 59.333 80.832 128.165 106.499 206.498s38.5 168.5 38.5 270.5c0 106.667 -25.5 190.167 -76.5 250.5s-123.833 90.5 -218.5 90.5
c-62 0 -121.167 -14.167 -177.5 -42.5s-108.166 -71.5 -155.499 -129.5c-46 -55.333 -83 -124.166 -111 -206.499s-42 -174.833 -42 -277.5c0 -114 26.167 -200 78.5 -258s124.833 -87 217.5 -87c64 0 125.667 15.833 185 47.5s111 76.834 155 135.501z" />
    <glyph glyph-name="afii10032" unicode="&#x43f;" horiz-adv-x="1741" 
d="M1707 935c0 -122 -20.667 -242.002 -62 -360.002s-101.333 -221 -180 -309c-86 -96 -186.333 -169.5 -301 -220.5s-246.667 -76.5 -396 -76.5c-203.333 0 -362.5 52.5 -477.5 157.5s-172.5 249.5 -172.5 433.5c0 129.333 22 252.333 66 369s107 219.334 189 308.001
c80 86 179 154.667 297 206s246.667 77 386 77c204 0 363.5 -52.667 478.5 -158s172.5 -247.666 172.5 -426.999zM1158 426.998c45.333 59.333 80.832 128.165 106.499 206.498s38.5 168.5 38.5 270.5c0 106.667 -25.5 190.167 -76.5 250.5s-123.833 90.5 -218.5 90.5
c-62 0 -121.167 -14.167 -177.5 -42.5s-108.166 -71.5 -155.499 -129.5c-46 -55.333 -83 -124.166 -111 -206.499s-42 -174.833 -42 -277.5c0 -114 26.167 -200 78.5 -258s124.833 -87 217.5 -87c64 0 125.667 15.833 185 47.5s111 76.834 155 135.501z" />
    <glyph glyph-name="afii10033" unicode="&#xf0;" horiz-adv-x="1715" 
d="M1740 1489l-344 -1489h-386l278 1206h-565l-278 -1206h-386l344 1489h1337z" />
    <glyph glyph-name="afii10033" unicode="&#x440;" horiz-adv-x="1715" 
d="M1740 1489l-344 -1489h-386l278 1206h-565l-278 -1206h-386l344 1489h1337z" />
    <glyph glyph-name="afii10049" unicode="&#xf1;" horiz-adv-x="1628" 
d="M1309 0l-384.001 -0.000976562l127 550h-191l-519 -550h-454l597 617c-67.333 34.667 -121 80.834 -161 138.501s-60 124.167 -60 199.5c0 92 23 176.833 69 254.5s109.667 140.167 191 187.5c54 32 114.833 55.333 182.5 70s142.834 22 225.501 22h721zM1112 810.999
l94 403.998h-196c-58 0 -103.333 -2 -136 -6s-65.334 -16.667 -98.001 -38c-31.333 -20.667 -56.666 -48 -75.999 -82s-29 -71.333 -29 -112c0 -25.333 3.33301 -47.666 10 -66.999s18.334 -36.666 35.001 -51.999c23.333 -21.333 50.666 -34.5 81.999 -39.5
s76 -7.5 134 -7.5h180z" />
    <glyph glyph-name="afii10049" unicode="&#x441;" horiz-adv-x="1628" 
d="M1309 0l-384.001 -0.000976562l127 550h-191l-519 -550h-454l597 617c-67.333 34.667 -121 80.834 -161 138.501s-60 124.167 -60 199.5c0 92 23 176.833 69 254.5s109.667 140.167 191 187.5c54 32 114.833 55.333 182.5 70s142.834 22 225.501 22h721zM1112 810.999
l94 403.998h-196c-58 0 -103.333 -2 -136 -6s-65.334 -16.667 -98.001 -38c-31.333 -20.667 -56.666 -48 -75.999 -82s-29 -71.333 -29 -112c0 -25.333 3.33301 -47.666 10 -66.999s18.334 -36.666 35.001 -51.999c23.333 -21.333 50.666 -34.5 81.999 -39.5
s76 -7.5 134 -7.5h180z" />
    <glyph glyph-name="afii10034" unicode="&#xf2;" horiz-adv-x="1501" 
d="M1540 1077c0 -177.333 -73.499 -320.333 -220.499 -429s-352.5 -163 -616.5 -163h-146l-112 -485h-386l344 1489h535c97.333 0 182.166 -6.66699 254.499 -20s134.833 -36.333 187.5 -69c52 -32.667 91.667 -75.167 119 -127.5s41 -117.5 41 -195.5zM1130 1040
c0 58 -21 101 -63 129s-104.333 42 -187 42h-155l-103 -446h138c116.667 0 207.5 23.833 272.5 71.5s97.5 115.5 97.5 203.5z" />
    <glyph glyph-name="afii10034" unicode="&#x442;" horiz-adv-x="1501" 
d="M1540 1077c0 -177.333 -73.499 -320.333 -220.499 -429s-352.5 -163 -616.5 -163h-146l-112 -485h-386l344 1489h535c97.333 0 182.166 -6.66699 254.499 -20s134.833 -36.333 187.5 -69c52 -32.667 91.667 -75.167 119 -127.5s41 -117.5 41 -195.5zM1130 1040
c0 58 -21 101 -63 129s-104.333 42 -187 42h-155l-103 -446h138c116.667 0 207.5 23.833 272.5 71.5s97.5 115.5 97.5 203.5z" />
    <glyph glyph-name="afii10035" unicode="&#xf3;" horiz-adv-x="1482" 
d="M748 -29c-201.333 0 -356.666 49.499 -465.999 148.499s-164 240.833 -164 425.5c0 146 24.167 278.333 72.5 397s114.833 221.334 199.5 308.001c82.667 84 181.834 149.667 297.501 197s237.167 71 364.5 71c102.667 0 198 -10.5 286 -31.5s167.333 -51.833 238 -92.5
l-88 -361h-44c-63.333 68 -126.333 118 -189 150s-136.334 48 -221.001 48c-148.667 0 -271.167 -59.667 -367.5 -179s-144.5 -271.333 -144.5 -456c0 -118.667 26.667 -204.667 80 -258s131.333 -80 234 -80c92 0 178.333 18.5 259 55.5s157 84.167 229 141.5h40l-87 -356
l-105 -43.5c-40 -17 -78.333 -30.833 -115 -41.5c-48 -14 -92.833 -24.667 -134.5 -32s-99.834 -11 -174.501 -11z" />
    <glyph glyph-name="afii10035" unicode="&#x443;" horiz-adv-x="1482" 
d="M748 -29c-201.333 0 -356.666 49.499 -465.999 148.499s-164 240.833 -164 425.5c0 146 24.167 278.333 72.5 397s114.833 221.334 199.5 308.001c82.667 84 181.834 149.667 297.501 197s237.167 71 364.5 71c102.667 0 198 -10.5 286 -31.5s167.333 -51.833 238 -92.5
l-88 -361h-44c-63.333 68 -126.333 118 -189 150s-136.334 48 -221.001 48c-148.667 0 -271.167 -59.667 -367.5 -179s-144.5 -271.333 -144.5 -456c0 -118.667 26.667 -204.667 80 -258s131.333 -80 234 -80c92 0 178.333 18.5 259 55.5s157 84.167 229 141.5h40l-87 -356
l-105 -43.5c-40 -17 -78.333 -30.833 -115 -41.5c-48 -14 -92.833 -24.667 -134.5 -32s-99.834 -11 -174.501 -11z" />
    <glyph glyph-name="afii10036" unicode="&#xf4;" horiz-adv-x="1396" 
d="M1504 1201h-464l-277 -1201h-386l277 1201h-464l66 288h1314z" />
    <glyph glyph-name="afii10036" unicode="&#x444;" horiz-adv-x="1396" 
d="M1504 1201h-464l-277 -1201h-386l277 1201h-464l66 288h1314z" />
    <glyph glyph-name="afii10037" unicode="&#xf5;" horiz-adv-x="1509" 
d="M1714 1489l-817 -1191c-48.667 -70 -97.667 -125.667 -147 -167s-98.333 -72.333 -147 -93c-48 -20.667 -93.833 -33.834 -137.5 -39.501s-86.5 -8.5 -128.5 -8.5c-46 0 -101.167 1.16699 -165.5 3.5s-106.166 4.5 -125.499 6.5l73 319h23
c13.333 -4 39.666 -8.16699 78.999 -12.5s71.333 -6.5 96 -6.5c62.667 0 116.667 8 162 24s75 36.333 89 61l-345 1104h395l212 -733l475 733h409z" />
    <glyph glyph-name="afii10037" unicode="&#x445;" horiz-adv-x="1509" 
d="M1714 1489l-817 -1191c-48.667 -70 -97.667 -125.667 -147 -167s-98.333 -72.333 -147 -93c-48 -20.667 -93.833 -33.834 -137.5 -39.501s-86.5 -8.5 -128.5 -8.5c-46 0 -101.167 1.16699 -165.5 3.5s-106.166 4.5 -125.499 6.5l73 319h23
c13.333 -4 39.666 -8.16699 78.999 -12.5s71.333 -6.5 96 -6.5c62.667 0 116.667 8 162 24s75 36.333 89 61l-345 1104h395l212 -733l475 733h409z" />
    <glyph glyph-name="afii10024" unicode="&#xf6;" horiz-adv-x="2284" 
d="M2155 0l-414.997 0.000976562l-280 615h-114l-142 -615h-384l142 615h-105l-514 -615h-453l681 788c-18 17.333 -33.5 44.333 -46.5 81s-22.833 74.334 -29.5 113.001c-10 59.333 -26.833 105.166 -50.5 137.499s-62.5 48.5 -116.5 48.5h-98l74 321c12 0 30 0.5 54 1.5
s51.667 1.5 83 1.5c99.333 0 176.666 -20.333 231.999 -61s93 -103.667 113 -189c6 -25.333 12.5 -54.333 19.5 -87s13.5 -61.667 19.5 -87c18.667 -78 40.667 -130.833 66 -158.5s68.333 -41.5 129 -41.5l144 621h384l-144 -621c56.667 0.666992 102.167 13.5 136.5 38.5
s81.166 79.5 140.499 163.5l57 86l57 86c63.333 90.667 129.166 155 197.499 193s153.833 57 256.5 57c34 0 65.5 -0.5 94.5 -1.5s49.833 -1.5 62.5 -1.5l-73 -317h-80c-26 0 -49.5 -3.5 -70.5 -10.5s-41.833 -19.167 -62.5 -36.5
c-16 -12.667 -34.167 -32.834 -54.5 -60.501l-61.5 -87.5c-42.667 -63.333 -80 -110.833 -112 -142.5s-66 -54.5 -102 -68.5z" />
    <glyph glyph-name="afii10024" unicode="&#x446;" horiz-adv-x="2284" 
d="M2155 0l-414.997 0.000976562l-280 615h-114l-142 -615h-384l142 615h-105l-514 -615h-453l681 788c-18 17.333 -33.5 44.333 -46.5 81s-22.833 74.334 -29.5 113.001c-10 59.333 -26.833 105.166 -50.5 137.499s-62.5 48.5 -116.5 48.5h-98l74 321c12 0 30 0.5 54 1.5
s51.667 1.5 83 1.5c99.333 0 176.666 -20.333 231.999 -61s93 -103.667 113 -189c6 -25.333 12.5 -54.333 19.5 -87s13.5 -61.667 19.5 -87c18.667 -78 40.667 -130.833 66 -158.5s68.333 -41.5 129 -41.5l144 621h384l-144 -621c56.667 0.666992 102.167 13.5 136.5 38.5
s81.166 79.5 140.499 163.5l57 86l57 86c63.333 90.667 129.166 155 197.499 193s153.833 57 256.5 57c34 0 65.5 -0.5 94.5 -1.5s49.833 -1.5 62.5 -1.5l-73 -317h-80c-26 0 -49.5 -3.5 -70.5 -10.5s-41.833 -19.167 -62.5 -36.5
c-16 -12.667 -34.167 -32.834 -54.5 -60.501l-61.5 -87.5c-42.667 -63.333 -80 -110.833 -112 -142.5s-66 -54.5 -102 -68.5z" />
    <glyph glyph-name="afii10019" unicode="&#xf7;" horiz-adv-x="1560" 
d="M1499 1152c0 -90.667 -24.834 -165.5 -74.501 -224.5s-125.5 -103.5 -227.5 -133.5l-2 -8c80.667 -23.333 141.834 -57 183.501 -101s62.5 -106 62.5 -186c0 -156.667 -64.167 -279 -192.5 -367s-309.833 -132 -544.5 -132h-645l344 1489h543
c179.333 0 316.333 -29.5 411 -88.5s142 -141.833 142 -248.5zM1093 1091c0 44 -17.333 75.833 -52 95.5s-82.667 29.5 -144 29.5h-173l-73 -315h175c84 0 149.5 16.167 196.5 48.5s70.5 79.5 70.5 141.5zM1050 489c0 54.667 -20.667 94.166 -62 118.499
s-106.333 36.5 -195 36.5h-201l-86 -371h194c112 0 198.333 18.333 259 55s91 90.334 91 161.001z" />
    <glyph glyph-name="afii10019" unicode="&#x447;" horiz-adv-x="1560" 
d="M1499 1152c0 -90.667 -24.834 -165.5 -74.501 -224.5s-125.5 -103.5 -227.5 -133.5l-2 -8c80.667 -23.333 141.834 -57 183.501 -101s62.5 -106 62.5 -186c0 -156.667 -64.167 -279 -192.5 -367s-309.833 -132 -544.5 -132h-645l344 1489h543
c179.333 0 316.333 -29.5 411 -88.5s142 -141.833 142 -248.5zM1093 1091c0 44 -17.333 75.833 -52 95.5s-82.667 29.5 -144 29.5h-173l-73 -315h175c84 0 149.5 16.167 196.5 48.5s70.5 79.5 70.5 141.5zM1050 489c0 54.667 -20.667 94.166 -62 118.499
s-106.333 36.5 -195 36.5h-201l-86 -371h194c112 0 198.333 18.333 259 55s91 90.334 91 161.001z" />
    <glyph glyph-name="afii10046" unicode="&#xf8;" horiz-adv-x="1552" 
d="M1047 516c0 20.667 -3.16699 39.334 -9.5 56.001s-16.833 31.667 -31.5 45c-15.333 13.333 -37.5 24.166 -66.5 32.499s-64.833 12.5 -107.5 12.5h-235l-90 -389h246c53.333 0 99.166 7 137.499 21s68.5 32.333 90.5 55c22.667 22.667 39.334 48.167 50.001 76.5
s16 58.5 16 90.5zM1455 572c0 -91.333 -22.5 -177.5 -67.5 -258.5s-103.167 -146.167 -174.5 -195.5c-65.333 -44.667 -133 -75.5 -203 -92.5s-151.667 -25.5 -245 -25.5h-706l344 1489h386l-129 -555h301c161.333 0 284 -30.667 368 -92s126 -151.333 126 -270z" />
    <glyph glyph-name="afii10046" unicode="&#x448;" horiz-adv-x="1552" 
d="M1047 516c0 20.667 -3.16699 39.334 -9.5 56.001s-16.833 31.667 -31.5 45c-15.333 13.333 -37.5 24.166 -66.5 32.499s-64.833 12.5 -107.5 12.5h-235l-90 -389h246c53.333 0 99.166 7 137.499 21s68.5 32.333 90.5 55c22.667 22.667 39.334 48.167 50.001 76.5
s16 58.5 16 90.5zM1455 572c0 -91.333 -22.5 -177.5 -67.5 -258.5s-103.167 -146.167 -174.5 -195.5c-65.333 -44.667 -133 -75.5 -203 -92.5s-151.667 -25.5 -245 -25.5h-706l344 1489h386l-129 -555h301c161.333 0 284 -30.667 368 -92s126 -151.333 126 -270z" />
    <glyph glyph-name="afii10045" unicode="&#xf9;" horiz-adv-x="2176" 
d="M1047 516c0 20.667 -3.16699 39.334 -9.5 56.001s-16.833 31.667 -31.5 45c-15.333 13.333 -37.5 24.166 -66.5 32.499s-64.833 12.5 -107.5 12.5h-235l-90 -389h246c53.333 0 99.166 7 137.499 21s68.5 32.333 90.5 55c22.667 22.667 39.334 48.167 50.001 76.5
s16 58.5 16 90.5zM1455 572c0 -91.333 -22.5 -177.5 -67.5 -258.5s-103.167 -146.167 -174.5 -195.5c-65.333 -44.667 -133 -75.5 -203 -92.5s-151.667 -25.5 -245 -25.5h-706l344 1489h386l-129 -555h301c161.333 0 284 -30.667 368 -92s126 -151.333 126 -270zM1857 0
h-386l344 1489h386z" />
    <glyph glyph-name="afii10045" unicode="&#x449;" horiz-adv-x="2176" 
d="M1047 516c0 20.667 -3.16699 39.334 -9.5 56.001s-16.833 31.667 -31.5 45c-15.333 13.333 -37.5 24.166 -66.5 32.499s-64.833 12.5 -107.5 12.5h-235l-90 -389h246c53.333 0 99.166 7 137.499 21s68.5 32.333 90.5 55c22.667 22.667 39.334 48.167 50.001 76.5
s16 58.5 16 90.5zM1455 572c0 -91.333 -22.5 -177.5 -67.5 -258.5s-103.167 -146.167 -174.5 -195.5c-65.333 -44.667 -133 -75.5 -203 -92.5s-151.667 -25.5 -245 -25.5h-706l344 1489h386l-129 -555h301c161.333 0 284 -30.667 368 -92s126 -151.333 126 -270zM1857 0
h-386l344 1489h386z" />
    <glyph glyph-name="afii10025" unicode="&#xfa;" horiz-adv-x="1447" 
d="M1335 508c0 -80.667 -18.165 -154.671 -54.498 -222.004s-88.166 -123.666 -155.499 -168.999c-69.333 -47.333 -153 -83.5 -251 -108.5s-211.667 -37.5 -341 -37.5c-108 0 -210.833 9.33301 -308.5 28s-179.834 41.667 -246.501 69l77 329h36
c63.333 -41.333 133.5 -77.166 210.5 -107.499s155.167 -45.5 234.5 -45.5c57.333 0 110.666 5.33301 159.999 16s90.666 27 123.999 49c34.667 22.667 61.334 50.334 80.001 83.001s28 72 28 118c0 56 -18.667 95.5 -56 118.5s-102 34.5 -194 34.5h-292l61 259h274
c98.667 0 172.667 15.5 222 46.5s74 77.5 74 139.5c0 43.333 -23.667 77 -71 101s-110.666 36 -189.999 36c-63.333 0 -135.5 -11 -216.5 -33s-171.5 -57 -271.5 -105h-37l72 313c62 22 144.667 43.833 248 65.5s209.333 32.5 318 32.5c176 0 312.333 -28.5 409 -85.5
s145 -137.167 145 -240.5c0 -94 -35.333 -176.167 -106 -246.5s-157 -117.166 -259 -140.499l-3 -15c29.333 -5.33301 61.166 -15 95.499 -29s64.166 -31.667 89.499 -53c27.333 -22 50 -49.667 68 -83s27 -72.333 27 -117z" />
    <glyph glyph-name="afii10025" unicode="&#x44a;" horiz-adv-x="1447" 
d="M1335 508c0 -80.667 -18.165 -154.671 -54.498 -222.004s-88.166 -123.666 -155.499 -168.999c-69.333 -47.333 -153 -83.5 -251 -108.5s-211.667 -37.5 -341 -37.5c-108 0 -210.833 9.33301 -308.5 28s-179.834 41.667 -246.501 69l77 329h36
c63.333 -41.333 133.5 -77.166 210.5 -107.499s155.167 -45.5 234.5 -45.5c57.333 0 110.666 5.33301 159.999 16s90.666 27 123.999 49c34.667 22.667 61.334 50.334 80.001 83.001s28 72 28 118c0 56 -18.667 95.5 -56 118.5s-102 34.5 -194 34.5h-292l61 259h274
c98.667 0 172.667 15.5 222 46.5s74 77.5 74 139.5c0 43.333 -23.667 77 -71 101s-110.666 36 -189.999 36c-63.333 0 -135.5 -11 -216.5 -33s-171.5 -57 -271.5 -105h-37l72 313c62 22 144.667 43.833 248 65.5s209.333 32.5 318 32.5c176 0 312.333 -28.5 409 -85.5
s145 -137.167 145 -240.5c0 -94 -35.333 -176.167 -106 -246.5s-157 -117.166 -259 -140.499l-3 -15c29.333 -5.33301 61.166 -15 95.499 -29s64.166 -31.667 89.499 -53c27.333 -22 50 -49.667 68 -83s27 -72.333 27 -117z" />
    <glyph glyph-name="afii10042" unicode="&#xfb;" horiz-adv-x="2383" 
d="M2065 0h-2005l343 1489h385l-278 -1206h425l278 1206h385l-278 -1206h425l278 1206h385z" />
    <glyph glyph-name="afii10042" unicode="&#x44b;" horiz-adv-x="2383" 
d="M2065 0h-2005l343 1489h385l-278 -1206h425l278 1206h385l-278 -1206h425l278 1206h385z" />
    <glyph glyph-name="afii10047" unicode="&#xfc;" horiz-adv-x="1519" 
d="M1485 941c0 -149.333 -25.498 -284.499 -76.498 -405.499s-120.167 -222.833 -207.5 -305.5c-88.667 -84 -190.667 -148.167 -306 -192.5s-238.333 -66.5 -369 -66.5c-107.333 0 -206.333 11.833 -297 35.5s-168.334 50.167 -233.001 79.5l77 331h37
c42.667 -49.333 101.5 -91.5 176.5 -126.5s157.833 -52.5 248.5 -52.5c42.667 0 91.667 7.16699 147 21.5s105 35.833 149 64.5c48 31.333 92.167 72.666 132.5 123.999s71.833 115 94.5 191h-673l63 277h654v14c0 56 -10 104.5 -30 145.5s-46.333 74.5 -79 100.5
c-32 24.667 -68.667 43.334 -110 56.001s-84.666 19 -129.999 19c-82 0 -166.833 -16.833 -254.5 -50.5s-170.834 -79.834 -249.501 -138.501h-42l77 340c73.333 31.333 156.333 58.5 249 81.5s194 34.5 304 34.5c199.333 0 357.166 -51.833 473.499 -155.5
s174.5 -244.167 174.5 -421.5z" />
    <glyph glyph-name="afii10047" unicode="&#x44c;" horiz-adv-x="1519" 
d="M1485 941c0 -149.333 -25.498 -284.499 -76.498 -405.499s-120.167 -222.833 -207.5 -305.5c-88.667 -84 -190.667 -148.167 -306 -192.5s-238.333 -66.5 -369 -66.5c-107.333 0 -206.333 11.833 -297 35.5s-168.334 50.167 -233.001 79.5l77 331h37
c42.667 -49.333 101.5 -91.5 176.5 -126.5s157.833 -52.5 248.5 -52.5c42.667 0 91.667 7.16699 147 21.5s105 35.833 149 64.5c48 31.333 92.167 72.666 132.5 123.999s71.833 115 94.5 191h-673l63 277h654v14c0 56 -10 104.5 -30 145.5s-46.333 74.5 -79 100.5
c-32 24.667 -68.667 43.334 -110 56.001s-84.666 19 -129.999 19c-82 0 -166.833 -16.833 -254.5 -50.5s-170.834 -79.834 -249.501 -138.501h-42l77 340c73.333 31.333 156.333 58.5 249 81.5s194 34.5 304 34.5c199.333 0 357.166 -51.833 473.499 -155.5
s174.5 -244.167 174.5 -421.5z" />
    <glyph glyph-name="afii10043" unicode="&#xfd;" horiz-adv-x="2411" 
d="M1857 0h-1797l343 1489h385l-278 -1206h425l278 1206h385l-278 -1206h425l278 1206h385l-277 -1204h147l-145 -627h-355z" />
    <glyph glyph-name="afii10043" unicode="&#x44d;" horiz-adv-x="2411" 
d="M1857 0h-1797l343 1489h385l-278 -1206h425l278 1206h385l-278 -1206h425l278 1206h385l-277 -1204h147l-145 -627h-355z" />
    <glyph glyph-name="afii10041" unicode="&#xfe;" horiz-adv-x="1612" 
d="M1293 0l-386.001 0.000976562l128 551c-80.667 -15.333 -148.5 -27.333 -203.5 -36s-127.5 -13 -217.5 -13c-128.667 0 -228.5 28.667 -299.5 86s-106.5 134.666 -106.5 231.999c0 20.667 1.33301 43.834 4 69.501s7 52.167 13 79.5l119 520h388l-81 -353
c-6.66699 -26.667 -12.667 -56.834 -18 -90.501s-8 -61.167 -8 -82.5c0 -30 4 -55.333 12 -76s22.333 -38.667 43 -54s46.5 -26.833 77.5 -34.5s73.5 -11.5 127.5 -11.5c26.667 0 60.834 1.66699 102.501 5s76.5 7.33301 104.5 12l159 685h386z" />
    <glyph glyph-name="afii10041" unicode="&#x44e;" horiz-adv-x="1612" 
d="M1293 0l-386.001 0.000976562l128 551c-80.667 -15.333 -148.5 -27.333 -203.5 -36s-127.5 -13 -217.5 -13c-128.667 0 -228.5 28.667 -299.5 86s-106.5 134.666 -106.5 231.999c0 20.667 1.33301 43.834 4 69.501s7 52.167 13 79.5l119 520h388l-81 -353
c-6.66699 -26.667 -12.667 -56.834 -18 -90.501s-8 -61.167 -8 -82.5c0 -30 4 -55.333 12 -76s22.333 -38.667 43 -54s46.5 -26.833 77.5 -34.5s73.5 -11.5 127.5 -11.5c26.667 0 60.834 1.66699 102.501 5s76.5 7.33301 104.5 12l159 685h386z" />
    <glyph glyph-name="afii10044" unicode="&#xff;" horiz-adv-x="1858" 
d="M1353 516c0 20.667 -3.16699 39.334 -9.5 56.001s-16.833 31.667 -31.5 45c-15.333 13.333 -37.5 24.166 -66.5 32.499s-64.833 12.5 -107.5 12.5h-235l-90 -389h246c53.333 0 99.166 7 137.499 21s68.5 32.333 90.5 55c22.667 22.667 39.334 48.167 50.001 76.5
s16 58.5 16 90.5zM1761 572c0 -91.333 -22.5 -177.5 -67.5 -258.5s-103.167 -146.167 -174.5 -195.5c-65.333 -44.667 -133 -75.5 -203 -92.5s-151.667 -25.5 -245 -25.5h-705l278 1201h-455l66 288h840l-129 -555h301c161.333 0 284 -30.667 368 -92s126 -151.333 126 -270
z" />
    <glyph glyph-name="afii10044" unicode="&#x44f;" horiz-adv-x="1858" 
d="M1353 516c0 20.667 -3.16699 39.334 -9.5 56.001s-16.833 31.667 -31.5 45c-15.333 13.333 -37.5 24.166 -66.5 32.499s-64.833 12.5 -107.5 12.5h-235l-90 -389h246c53.333 0 99.166 7 137.499 21s68.5 32.333 90.5 55c22.667 22.667 39.334 48.167 50.001 76.5
s16 58.5 16 90.5zM1761 572c0 -91.333 -22.5 -177.5 -67.5 -258.5s-103.167 -146.167 -174.5 -195.5c-65.333 -44.667 -133 -75.5 -203 -92.5s-151.667 -25.5 -245 -25.5h-705l278 1201h-455l66 288h840l-129 -555h301c161.333 0 284 -30.667 368 -92s126 -151.333 126 -270
z" />
    <glyph glyph-name="endash" unicode="&#x2013;" 
d="M1299 528h-1158l62 268h1158z" />
    <glyph glyph-name="emdash" unicode="&#x2014;" horiz-adv-x="2048" 
d="M1891 528h-1750l62 268h1750z" />
    <glyph glyph-name="quoteleft" unicode="&#x2018;" horiz-adv-x="680" 
d="M567 967h-230l-155 589h364z" />
    <glyph glyph-name="quoteright" unicode="&#x2019;" horiz-adv-x="680" 
d="M917 1556l-427 -589h-238l293 589h372z" />
    <glyph glyph-name="quotesinglbase" unicode="&#x201a;" horiz-adv-x="680" 
d="M553 393l-427 -589h-238l293 589h372z" />
    <glyph glyph-name="quotedblleft" unicode="&#x201c;" horiz-adv-x="1203" 
d="M1127 967h-230l-155 589h364zM583 967h-230l-155 589h364z" />
    <glyph glyph-name="quotedblright" unicode="&#x201d;" horiz-adv-x="1203" 
d="M1441 1556l-427 -589h-238l293 589h372zM897 1556l-427 -589h-238l293 589h372z" />
    <glyph glyph-name="quotedblbase" unicode="&#x201e;" horiz-adv-x="1203" 
d="M1081 393l-427 -589h-238l293 589h372zM537 393l-427 -589h-238l293 589h372z" />
    <glyph glyph-name="dagger" unicode="&#x2020;" 
d="M1290 938l-363 5l-182 -808h-254l192 808l-365 -5l53 230l363 -5l85 393h254l-95 -393l365 5z" />
    <glyph glyph-name="daggerdbl" unicode="&#x2021;" 
d="M1191 510l-363 5l-83 -380h-254l93 380l-365 -5l53 230l364 -5l53 230l-366 -5l53 230l363 -5l80 371h254l-90 -371l365 5l-53 -230l-364 5l-53 -230l366 5z" />
    <glyph glyph-name="bullet" unicode="&#x2022;" 
d="M1255 683c0 -140 -49.5 -259.333 -148.5 -358s-218.5 -148 -358.5 -148s-259.5 49.333 -358.5 148s-148.5 218 -148.5 358s49.5 259.333 148.5 358s218.5 148 358.5 148s259.5 -49.333 358.5 -148s148.5 -218 148.5 -358z" />
    <glyph glyph-name="ellipsis" unicode="&#x2026;" horiz-adv-x="2148" 
d="M1836 0h-350l90 393h350zM1120 0h-350l90 393h350zM404 0h-350l90 393h350z" />
    <glyph glyph-name="perthousand" unicode="&#x2030;" horiz-adv-x="3640" 
d="M1146 1161c0 -185.333 -47.333 -334 -142 -446s-222 -168 -382 -168c-135.333 0 -237.5 30.667 -306.5 92s-103.5 152.333 -103.5 273c0 184.667 47.833 331.667 143.5 441s222.5 164 380.5 164c134 0 235.833 -30.333 305.5 -91s104.5 -149 104.5 -265zM853 1140
c0 54.667 -11.333 95.832 -34 123.499s-57 41.5 -103 41.5c-60 0 -110.167 -36 -150.5 -108s-60.5 -162.667 -60.5 -272c0 -55.333 11.333 -96.833 34 -124.5s57 -41.5 103 -41.5c64 0 115.167 37.833 153.5 113.5s57.5 164.834 57.5 267.501zM2457 582.998
c0 -185.333 -47.333 -334 -142 -446s-222 -168 -382 -168c-135.333 0 -237.5 30.667 -306.5 92s-103.5 152.333 -103.5 273c0 184.667 47.833 331.667 143.5 441s222.5 164 380.5 164c134 0 235.833 -30.333 305.5 -91s104.5 -149 104.5 -265zM2164 561.998
c0 54.667 -11.333 95.832 -34 123.499s-57 41.5 -103 41.5c-60 0 -110.167 -36 -150.5 -108s-60.5 -162.667 -60.5 -272c0 -55.333 11.333 -96.833 34 -124.5s57 -41.5 103 -41.5c64 0 115.167 37.833 153.5 113.5s57.5 164.834 57.5 267.501zM1993 1489l-1043 -1489h-271
l1043 1489h271zM3491 582.996c0 -185.333 -47.333 -334 -142 -446s-222 -168 -382 -168c-135.333 0 -237.5 30.667 -306.5 92s-103.5 152.333 -103.5 273c0 184.667 47.833 331.667 143.5 441s222.5 164 380.5 164c134 0 235.833 -30.333 305.5 -91s104.5 -149 104.5 -265z
M3198 561.996c0 54.667 -11.333 95.832 -34 123.499s-57 41.5 -103 41.5c-60 0 -110.167 -36 -150.5 -108s-60.5 -162.667 -60.5 -272c0 -55.333 11.333 -96.833 34 -124.5s57 -41.5 103 -41.5c64 0 115.167 37.833 153.5 113.5s57.5 164.834 57.5 267.501z" />
    <glyph glyph-name="guilsinglleft" unicode="&#x2039;" horiz-adv-x="1113" 
d="M719 128l-495 463l31 135l708 462l-75 -327l-353 -223l251 -223z" />
    <glyph glyph-name="guilsinglright" unicode="&#x203a;" horiz-adv-x="1113" 
d="M902 590l-708 -462l75 327l353 223l-251 223l67 287l495 -463z" />
    <glyph glyph-name="trademark" unicode="&#x2122;" horiz-adv-x="1974" 
d="M1912 765h-194v566h-21l-178 -396h-136l-180 403h-26v-573h-184v724h315l146 -354l152 354h306v-724zM878 1332h-207v-567h-195v567h-207v157h609v-157z" />
    <glyph glyph-name=".null" horiz-adv-x="0" 
 />
    <glyph glyph-name="nonmarkingreturn" horiz-adv-x="1024" 
 />
    <glyph glyph-name="afii10058" horiz-adv-x="2503" 
d="M1998 516c0 20.667 -3.16699 39.334 -9.5 56.001s-16.833 31.667 -31.5 45c-15.333 13.333 -37.5 24.166 -66.5 32.499s-64.833 12.5 -107.5 12.5h-235l-90 -389h246c53.333 0 99.166 7 137.499 21s68.5 32.333 90.5 55c22.667 22.667 39.334 48.167 50.001 76.5
s16 58.5 16 90.5zM2406 572c0 -91.333 -22.501 -177.501 -67.501 -258.501s-103.167 -146.167 -174.5 -195.5c-65.333 -44.667 -133 -75.5 -203 -92.5s-151.667 -25.5 -245 -25.5h-705l279 1206h-409l-43 -158l-41 -150c-39.333 -143.333 -76 -259.666 -110 -348.999
s-67.333 -163 -100 -221c-33.333 -59.333 -66 -107 -98 -143s-65.667 -66.667 -101 -92c-48 -35.333 -97.667 -61.333 -149 -78s-104.666 -25 -159.999 -25c-33.333 0 -68.333 1.33301 -105 4s-60 4.66699 -70 6l77 333h14c6.66699 -0.666992 13.5 -1.66699 20.5 -3
s15.5 -2 25.5 -2c18 0 41.833 2.66699 71.5 8s53.167 15 70.5 29c62.667 50 112.167 120.5 148.5 211.5s78.5 225.833 126.5 404.5c17.333 65.333 36.5 141.5 57.5 228.5l66.5 279.5h1158l-129 -555h301c161.333 0 284 -30.667 368 -92s126 -151.333 126 -270z" />
    <glyph glyph-name="afii10059" horiz-adv-x="2487" 
d="M1982 516c0 20.667 -3.16699 39.334 -9.5 56.001s-16.833 31.667 -31.5 45c-15.333 13.333 -37.5 24.166 -66.5 32.499s-64.833 12.5 -107.5 12.5h-235l-90 -389h246c53.333 0 99.166 7 137.499 21s68.5 32.333 90.5 55c22.667 22.667 39.334 48.167 50.001 76.5
s16 58.5 16 90.5zM2390 572c0 -91.333 -22.5 -177.5 -67.5 -258.5s-103.167 -146.167 -174.5 -195.5c-65.333 -44.667 -133 -75.5 -203 -92.5s-151.667 -25.5 -245 -25.5h-705l152 659h-550l-152 -659h-386l344 1489h386l-129 -558h550l129 558h385l-129 -555h301
c161.333 0 284 -30.667 368 -92s126 -151.333 126 -270z" />
    <glyph glyph-name="afii10100" horiz-adv-x="1088" 
d="M1279 1656l-438 -373h-256l313 393h381v-20zM1150 879h-546l-202 -879h-362l259 1123h908z" />
    <glyph glyph-name="afii10106" horiz-adv-x="2073" 
d="M1602 402c0 36.667 -12 65.667 -36 87s-63 32 -117 32h-185l-68 -295h204c42.667 0 78 7.16699 106 21.5s48.667 30.833 62 49.5c14 20.667 23.167 40.167 27.5 58.5s6.5 33.833 6.5 46.5zM1978 449c0 -73.333 -16.498 -141.33 -49.498 -203.997
s-78.5 -114.334 -136.5 -155.001c-47.333 -32.667 -97.333 -55.834 -150 -69.501s-121.334 -20.5 -206.001 -20.5h-652l203 879h-285l-30.5 -119.5l-25.5 -98.5c-18.667 -75.333 -38.167 -141.833 -58.5 -199.5s-41.5 -107.834 -63.5 -150.501
c-36 -69.333 -80 -130.5 -132 -183.5s-107.667 -90.167 -167 -111.5c-28.667 -9.33301 -54.667 -15.5 -78 -18.5s-51.333 -4.5 -84 -4.5c-31.333 0 -63.666 1.16699 -96.999 3.5s-53 3.5 -59 3.5l67 288h11c2.66699 0 7.66699 -0.666992 15 -2s14.333 -2 21 -2
c40.667 0 71.5 5.16699 92.5 15.5s43.5 31.166 67.5 62.499c28 36.667 53.667 81.667 77 135s50.666 140 81.999 260l43.5 164.5c13.667 51.667 30.5 118.834 50.5 201.501h969l-87 -375h257c133.333 0 234.166 -26.5 302.499 -79.5s102.5 -126.167 102.5 -219.5z" />
    <glyph glyph-name="afii10107" horiz-adv-x="2088" 
d="M1617 402c0 36.667 -12 65.667 -36 87s-63 32 -117 32h-185l-68 -295h204c42.667 0 78 7.16699 106 21.5s48.667 30.833 62 49.5c14 20.667 23.167 40.167 27.5 58.5s6.5 33.833 6.5 46.5zM1993 449c0 -73.333 -16.498 -141.331 -49.498 -203.998
s-78.5 -114.334 -136.5 -155.001c-47.333 -32.667 -97.333 -55.834 -150 -69.501s-121.334 -20.5 -206.001 -20.5h-653l119 518h-396l-119 -518h-362l259 1123h361l-87 -378h396l88 378h361l-87 -375h257c133.333 0 234.166 -26.5 302.499 -79.5
s102.5 -126.167 102.5 -219.5z" />
    <glyph glyph-name="afii10193" horiz-adv-x="1474" 
d="M447 0h-407l259 1123h362l-203 -881h412l203 881h362l-259 -1123h-407l-65 -280h-322z" />
  </font>
</defs>
</svg>
